G05
M48
;#@! TF.GenerationSoftware,DesignSpark,DesignSpark PCB,10.0.5344
;#@! TF.CreationDate,2022-07-28T09:00:40--2:00*
;#@! TF.FileFunction,Plated,1,2,PTH
;FILE_FORMAT=3:5
;TYPE=PLATED
INCH,TZ
FMAT,2
T1C000.03937
T2C000.04000
T3C000.04134
%
T001
X25250Y22750
X25250Y337750
X227750Y322750
X237750Y322750
X325250Y275250
X325250Y285250
X325250Y295250
X325250Y305250
X490250Y275250
X490250Y285250
X490250Y295250
X490250Y305250
X507750Y22750
T002
X265250Y267750
X265250Y277750
X265250Y287750
X265250Y297750
X265250Y307750
X393124Y264876
X393124Y274876
X393124Y284876
X393124Y294876
X393124Y304876
X393124Y314876
X433124Y264876
X433124Y274876
X433124Y284876
X433124Y294876
X433124Y304876
X433124Y314876
T003
X110250Y225250
X120250Y225250
X210250Y225250
X220250Y35250
X230250Y35250
X230250Y225250
X260250Y35250
X280250Y35250
X287750Y225250
X290250Y35250
X490250Y212750
X490250Y225250
M30
