G04 DesignSpark PCB Gerber Version 10.0 Build 5299*
G04 #@! TF.Part,Single*
G04 #@! TF.FileFunction,Copper,L1,Top*
G04 #@! TF.FilePolarity,Positive*
%FSLAX35Y35*%
%MOIN*%
%ADD10C,0.00500*%
%ADD26C,0.02559*%
G04 #@! TA.AperFunction,WasherPad*
%ADD13C,0.07874*%
%ADD14C,0.08268*%
G04 #@! TD.AperFunction*
X0Y0D02*
D02*
D10*
X2750Y485250D02*
Y50250D01*
X550250D01*
Y485250D01*
X436858D01*
G75*
G02*
X440261Y472376I-3734J-7874D01*
G01*
G75*
G02*
Y462376I-7137J-5000D01*
G01*
G75*
G02*
X437809Y450028I-7137J-5000D01*
G01*
G75*
G02*
Y444724I-4685J-2652D01*
G01*
G75*
G02*
X441463Y439906I-4686J-7348D01*
G01*
X452720D01*
Y447750D01*
G75*
G02*
X455250Y450280I2530J0D01*
G01*
X482117D01*
G75*
G02*
X483354Y452750I8133J-2530D01*
G01*
G75*
G02*
Y462750I6896J5000D01*
G01*
G75*
G02*
X490250Y476268I6896J5000D01*
G01*
G75*
G02*
X497146Y462750I0J-8518D01*
G01*
G75*
G02*
Y452750I-6896J-5000D01*
G01*
G75*
G02*
X494668Y440468I-6896J-5000D01*
G01*
G75*
G02*
X490250Y432563I-4418J-2718D01*
G01*
G75*
G02*
X485832Y440468I0J5187D01*
G01*
G75*
G02*
X482117Y445220I4418J7282D01*
G01*
X457780D01*
Y437376D01*
G75*
G02*
X455250Y434846I-2530J0D01*
G01*
X441463D01*
G75*
G02*
X440261Y432376I-8340J2530D01*
G01*
G75*
G02*
X433124Y418661I-7137J-5000D01*
G01*
G75*
G02*
X425987Y432376I0J8715D01*
G01*
G75*
G02*
X428439Y444724I7137J5000D01*
G01*
G75*
G02*
Y450028I4685J2652D01*
G01*
G75*
G02*
X425987Y462376I4685J7348D01*
G01*
G75*
G02*
Y472376I7137J5000D01*
G01*
G75*
G02*
X429390Y485250I7137J5000D01*
G01*
X396858D01*
G75*
G02*
X400261Y472376I-3734J-7874D01*
G01*
G75*
G02*
Y462376I-7137J-5000D01*
G01*
G75*
G02*
X397809Y450028I-7137J-5000D01*
G01*
G75*
G02*
Y444724I-4685J-2652D01*
G01*
G75*
G02*
X400261Y432376I-4685J-7348D01*
G01*
G75*
G02*
X393124Y418661I-7137J-5000D01*
G01*
G75*
G02*
X385987Y432376I0J8715D01*
G01*
G75*
G02*
X384680Y435220I7138J5000D01*
G01*
X383798D01*
X355435Y406858D01*
G75*
G02*
X356465Y402750I-7686J-4108D01*
G01*
G75*
G02*
X339035I-8715J0D01*
G01*
G75*
G02*
X351858Y410435I8715J0D01*
G01*
X380960Y439537D01*
G75*
G02*
X382750Y440280I1790J-1787D01*
G01*
X384907D01*
G75*
G02*
X388439Y444724I8217J-2903D01*
G01*
G75*
G02*
Y450028I4685J2652D01*
G01*
G75*
G02*
X384585Y455634I4685J7348D01*
G01*
X342414Y413463D01*
G75*
G02*
X340624Y412720I-1790J1787D01*
G01*
X252780D01*
Y369737D01*
G75*
G02*
X268965Y365250I7470J-4487D01*
G01*
G75*
G02*
X252780Y360763I-8715J0D01*
G01*
Y321089D01*
G75*
G02*
X255250Y319887I-2530J-8340D01*
G01*
G75*
G02*
X265250I5000J-7137D01*
G01*
G75*
G02*
X275250I5000J-7137D01*
G01*
G75*
G02*
X285250I5000J-7137D01*
G01*
G75*
G02*
X298250Y316206I5000J-7137D01*
G01*
G75*
G02*
X311250Y319887I8000J-3456D01*
G01*
G75*
G02*
X321250I5000J-7137D01*
G01*
G75*
G02*
X331250I5000J-7137D01*
G01*
G75*
G02*
X341250I5000J-7137D01*
G01*
G75*
G02*
X351250I5000J-7137D01*
G01*
G75*
G02*
X361250I5000J-7137D01*
G01*
G75*
G02*
X371250I5000J-7137D01*
G01*
G75*
G02*
X381250I5000J-7137D01*
G01*
G75*
G02*
X391250I5000J-7137D01*
G01*
G75*
G02*
X404965Y312750I5000J-7137D01*
G01*
G75*
G02*
X391250Y305613I-8715J0D01*
G01*
G75*
G02*
X381250I-5000J7137D01*
G01*
G75*
G02*
X371250I-5000J7137D01*
G01*
G75*
G02*
X361250I-5000J7137D01*
G01*
G75*
G02*
X351250I-5000J7137D01*
G01*
G75*
G02*
X341250I-5000J7137D01*
G01*
G75*
G02*
X331250I-5000J7137D01*
G01*
G75*
G02*
X328780Y304411I-5000J7138D01*
G01*
Y285280D01*
X479411D01*
G75*
G02*
X496465Y282750I8339J-2530D01*
G01*
G75*
G02*
X479411Y280220I-8715J0D01*
G01*
X326250D01*
G75*
G02*
X323720Y282750I0J2530D01*
G01*
Y304411D01*
G75*
G02*
X321250Y305613I2530J8340D01*
G01*
G75*
G02*
X311250I-5000J7137D01*
G01*
G75*
G02*
X298250Y309294I-5000J7137D01*
G01*
G75*
G02*
X285250Y305613I-8000J3456D01*
G01*
G75*
G02*
X275250I-5000J7137D01*
G01*
G75*
G02*
X265250I-5000J7137D01*
G01*
G75*
G02*
X255250I-5000J7137D01*
G01*
G75*
G02*
X245250I-5000J7137D01*
G01*
G75*
G02*
X235250I-5000J7137D01*
G01*
G75*
G02*
X225250I-5000J7137D01*
G01*
G75*
G02*
X211535Y312750I-5000J7137D01*
G01*
G75*
G02*
X225250Y319887I8715J0D01*
G01*
G75*
G02*
X235250I5000J-7137D01*
G01*
G75*
G02*
X245250I5000J-7137D01*
G01*
G75*
G02*
X247720Y321089I5000J-7138D01*
G01*
Y360763D01*
G75*
G02*
X235250Y358113I-7470J4487D01*
G01*
G75*
G02*
X225250I-5000J7137D01*
G01*
G75*
G02*
X211535Y365250I-5000J7137D01*
G01*
G75*
G02*
X225250Y372387I8715J0D01*
G01*
G75*
G02*
X235250I5000J-7137D01*
G01*
G75*
G02*
X247720Y369737I5000J-7137D01*
G01*
Y415250D01*
G75*
G02*
X250250Y417780I2530J0D01*
G01*
X339576D01*
X385311Y463515D01*
G75*
G02*
X385987Y472376I7813J3861D01*
G01*
G75*
G02*
X389390Y485250I7137J5000D01*
G01*
X272387D01*
G75*
G02*
Y475250I-7137J-5000D01*
G01*
G75*
G02*
Y465250I-7137J-5000D01*
G01*
G75*
G02*
Y455250I-7137J-5000D01*
G01*
G75*
G02*
X269935Y442902I-7137J-5000D01*
G01*
G75*
G02*
Y437598I-4685J-2652D01*
G01*
G75*
G02*
X265250Y421535I-4685J-7348D01*
G01*
G75*
G02*
X260565Y437598I0J8715D01*
G01*
G75*
G02*
Y442902I4685J2652D01*
G01*
G75*
G02*
X258113Y455250I4685J7348D01*
G01*
G75*
G02*
Y465250I7137J5000D01*
G01*
G75*
G02*
Y475250I7137J5000D01*
G01*
G75*
G02*
Y485250I7137J5000D01*
G01*
X246268D01*
G75*
G02*
X232750Y478354I-8518J0D01*
G01*
G75*
G02*
X219232Y485250I-5000J6896D01*
G01*
X2750D01*
X482366Y297750D02*
G75*
G02*
X493134I5384J0D01*
G01*
G75*
G02*
X482366I-5384J0D01*
G01*
X310750Y372387D02*
G75*
G02*
X324465Y365250I5000J-7137D01*
G01*
G75*
G02*
X310750Y358113I-8715J0D01*
G01*
G75*
G02*
X298000Y361265I-5000J7137D01*
G01*
G75*
G02*
X285250Y358113I-7750J3985D01*
G01*
G75*
G02*
X271535Y365250I-5000J7137D01*
G01*
G75*
G02*
X285250Y372387I8715J0D01*
G01*
G75*
G02*
X298000Y369235I5000J-7137D01*
G01*
G75*
G02*
X310750Y372387I7750J-3985D01*
G01*
X350750D02*
G75*
G02*
X364465Y365250I5000J-7137D01*
G01*
G75*
G02*
X350750Y358113I-8715J0D01*
G01*
G75*
G02*
X340750I-5000J7137D01*
G01*
G75*
G02*
X327035Y365250I-5000J7137D01*
G01*
G75*
G02*
X340750Y372387I8715J0D01*
G01*
G75*
G02*
X350750I5000J-7137D01*
G01*
X321535Y155250D02*
G75*
G02*
X338965I8715J0D01*
G01*
G75*
G02*
X321535I-8715J0D01*
G01*
X355250Y129887D02*
G75*
G02*
X368965Y122750I5000J-7137D01*
G01*
G75*
G02*
X355250Y115613I-8715J0D01*
G01*
G75*
G02*
X345250I-5000J7137D01*
G01*
G75*
G02*
X335250I-5000J7137D01*
G01*
G75*
G02*
X325250I-5000J7137D01*
G01*
G75*
G02*
X312902Y118065I-5000J7137D01*
G01*
G75*
G02*
X305250Y120754I-2652J4685D01*
G01*
G75*
G02*
X297598Y118065I-5000J1996D01*
G01*
G75*
G02*
X281535Y122750I-7348J4685D01*
G01*
G75*
G02*
X297598Y127435I8715J0D01*
G01*
G75*
G02*
X305250Y124746I2652J-4685D01*
G01*
G75*
G02*
X312902Y127435I5000J-1996D01*
G01*
G75*
G02*
X325250Y129887I7348J-4685D01*
G01*
G75*
G02*
X335250I5000J-7137D01*
G01*
G75*
G02*
X345250I5000J-7137D01*
G01*
G75*
G02*
X355250I5000J-7137D01*
G01*
X311535Y82750D02*
G75*
G02*
X328965I8715J0D01*
G01*
G75*
G02*
X311535I-8715J0D01*
G01*
X325250Y476268D02*
G75*
G02*
X332146Y462750I0J-8518D01*
G01*
G75*
G02*
Y452750I-6896J-5000D01*
G01*
G75*
G02*
X329668Y440468I-6896J-5000D01*
G01*
G75*
G02*
X325250Y432563I-4418J-2718D01*
G01*
G75*
G02*
X320832Y440468I0J5187D01*
G01*
G75*
G02*
X318354Y452750I4418J7282D01*
G01*
G75*
G02*
Y462750I6896J5000D01*
G01*
G75*
G02*
X325250Y476268I6896J5000D01*
G01*
X94000Y318823D02*
G75*
G02*
X107387Y307750I6250J-6073D01*
G01*
G75*
G02*
Y297750I-7137J-5000D01*
G01*
G75*
G02*
Y287750I-7137J-5000D01*
G01*
G75*
G02*
Y277750I-7137J-5000D01*
G01*
G75*
G02*
Y267750I-7137J-5000D01*
G01*
G75*
G02*
Y257750I-7137J-5000D01*
G01*
G75*
G02*
Y247750I-7137J-5000D01*
G01*
G75*
G02*
Y237750I-7137J-5000D01*
G01*
G75*
G02*
Y227750I-7137J-5000D01*
G01*
G75*
G02*
Y217750I-7137J-5000D01*
G01*
G75*
G02*
Y207750I-7137J-5000D01*
G01*
G75*
G02*
Y197750I-7137J-5000D01*
G01*
G75*
G02*
Y187750I-7137J-5000D01*
G01*
G75*
G02*
Y177750I-7137J-5000D01*
G01*
G75*
G02*
Y167750I-7137J-5000D01*
G01*
G75*
G02*
Y157750I-7137J-5000D01*
G01*
G75*
G02*
Y147750I-7137J-5000D01*
G01*
G75*
G02*
X94000Y136677I-7137J-5000D01*
G01*
G75*
G02*
X80613Y147750I-6250J6073D01*
G01*
G75*
G02*
Y157750I7137J5000D01*
G01*
G75*
G02*
Y167750I7137J5000D01*
G01*
G75*
G02*
Y177750I7137J5000D01*
G01*
G75*
G02*
Y187750I7137J5000D01*
G01*
G75*
G02*
Y197750I7137J5000D01*
G01*
G75*
G02*
Y207750I7137J5000D01*
G01*
G75*
G02*
Y217750I7137J5000D01*
G01*
G75*
G02*
Y227750I7137J5000D01*
G01*
G75*
G02*
Y237750I7137J5000D01*
G01*
G75*
G02*
Y247750I7137J5000D01*
G01*
G75*
G02*
Y257750I7137J5000D01*
G01*
G75*
G02*
Y267750I7137J5000D01*
G01*
G75*
G02*
Y277750I7137J5000D01*
G01*
G75*
G02*
Y287750I7137J5000D01*
G01*
G75*
G02*
X79411Y290220I7138J5000D01*
G01*
X72750D01*
G75*
G02*
X70960Y290963I0J2530D01*
G01*
X20963Y340960D01*
G75*
G02*
X20220Y342750I1787J1790D01*
G01*
Y366911D01*
G75*
G02*
X14035Y375250I2530J8339D01*
G01*
G75*
G02*
X31465I8715J0D01*
G01*
G75*
G02*
X25280Y366911I-8715J0D01*
G01*
Y343798D01*
X73798Y295280D01*
X79411D01*
G75*
G02*
X80613Y297750I8340J-2530D01*
G01*
G75*
G02*
X79411Y300220I7138J5000D01*
G01*
X72750D01*
G75*
G02*
X70960Y300963I0J2530D01*
G01*
X53463Y318460D01*
G75*
G02*
X52720Y320250I1787J1790D01*
G01*
Y366911D01*
G75*
G02*
X46535Y375250I2530J8339D01*
G01*
G75*
G02*
X63965I8715J0D01*
G01*
G75*
G02*
X57780Y366911I-8715J0D01*
G01*
Y321298D01*
X73798Y305280D01*
X79411D01*
G75*
G02*
X80613Y307750I8340J-2530D01*
G01*
G75*
G02*
X94000Y318823I7137J5000D01*
G01*
X175250Y84887D02*
G75*
G02*
X188965Y77750I5000J-7137D01*
G01*
G75*
G02*
X175250Y70613I-8715J0D01*
G01*
G75*
G02*
X165250I-5000J7137D01*
G01*
G75*
G02*
X155250I-5000J7137D01*
G01*
G75*
G02*
X145250I-5000J7137D01*
G01*
G75*
G02*
X135250I-5000J7137D01*
G01*
G75*
G02*
X125250I-5000J7137D01*
G01*
G75*
G02*
X115250I-5000J7137D01*
G01*
G75*
G02*
X101535Y77750I-5000J7137D01*
G01*
G75*
G02*
X115250Y84887I8715J0D01*
G01*
G75*
G02*
X125250I5000J-7137D01*
G01*
G75*
G02*
X135250I5000J-7137D01*
G01*
G75*
G02*
X145250I5000J-7137D01*
G01*
G75*
G02*
X155250I5000J-7137D01*
G01*
G75*
G02*
X165250I5000J-7137D01*
G01*
G75*
G02*
X175250I5000J-7137D01*
G01*
Y129887D02*
G75*
G02*
X188965Y122750I5000J-7137D01*
G01*
G75*
G02*
X175250Y115613I-8715J0D01*
G01*
G75*
G02*
X165250I-5000J7137D01*
G01*
G75*
G02*
X155250I-5000J7137D01*
G01*
G75*
G02*
X145250I-5000J7137D01*
G01*
G75*
G02*
X135250I-5000J7137D01*
G01*
G75*
G02*
X125250I-5000J7137D01*
G01*
G75*
G02*
X115250I-5000J7137D01*
G01*
G75*
G02*
X101535Y122750I-5000J7137D01*
G01*
G75*
G02*
X115250Y129887I8715J0D01*
G01*
G75*
G02*
X125250I5000J-7137D01*
G01*
G75*
G02*
X135250I5000J-7137D01*
G01*
G75*
G02*
X145250I5000J-7137D01*
G01*
G75*
G02*
X155250I5000J-7137D01*
G01*
G75*
G02*
X165250I5000J-7137D01*
G01*
G75*
G02*
X175250I5000J-7137D01*
G01*
X14035Y415250D02*
G75*
G02*
X31465I8715J0D01*
G01*
G75*
G02*
X14035I-8715J0D01*
G01*
X30098Y444935D02*
G75*
G02*
X38134Y440250I2652J-4685D01*
G01*
G75*
G02*
X30098Y435565I-5384J0D01*
G01*
G75*
G02*
X14035Y440250I-7348J4685D01*
G01*
G75*
G02*
X30098Y444935I8715J0D01*
G01*
X46535Y415250D02*
G75*
G02*
X63965I8715J0D01*
G01*
G75*
G02*
X46535I-8715J0D01*
G01*
X62598Y444935D02*
G75*
G02*
X70634Y440250I2652J-4685D01*
G01*
G75*
G02*
X62598Y435565I-5384J0D01*
G01*
G75*
G02*
X46535Y440250I-7348J4685D01*
G01*
G75*
G02*
X62598Y444935I8715J0D01*
G01*
X195250Y319887D02*
G75*
G02*
X208965Y312750I5000J-7137D01*
G01*
G75*
G02*
X195250Y305613I-8715J0D01*
G01*
G75*
G02*
X185250I-5000J7137D01*
G01*
G75*
G02*
X175250I-5000J7137D01*
G01*
G75*
G02*
X165250I-5000J7137D01*
G01*
G75*
G02*
X155250I-5000J7137D01*
G01*
G75*
G02*
X145250I-5000J7137D01*
G01*
G75*
G02*
X135250I-5000J7137D01*
G01*
G75*
G02*
X121535Y312750I-5000J7137D01*
G01*
G75*
G02*
X135250Y319887I8715J0D01*
G01*
G75*
G02*
X145250I5000J-7137D01*
G01*
G75*
G02*
X155250I5000J-7137D01*
G01*
G75*
G02*
X165250I5000J-7137D01*
G01*
G75*
G02*
X175250I5000J-7137D01*
G01*
G75*
G02*
X185250I5000J-7137D01*
G01*
G75*
G02*
X195250I5000J-7137D01*
G01*
X245250Y84887D02*
G75*
G02*
X258965Y77750I5000J-7137D01*
G01*
G75*
G02*
X245250Y70613I-8715J0D01*
G01*
G75*
G02*
X235250I-5000J7137D01*
G01*
G75*
G02*
X225250I-5000J7137D01*
G01*
G75*
G02*
X215250I-5000J7137D01*
G01*
G75*
G02*
X205250I-5000J7137D01*
G01*
G75*
G02*
X191535Y77750I-5000J7137D01*
G01*
G75*
G02*
X205250Y84887I8715J0D01*
G01*
G75*
G02*
X215250I5000J-7137D01*
G01*
G75*
G02*
X225250I5000J-7137D01*
G01*
G75*
G02*
X235250I5000J-7137D01*
G01*
G75*
G02*
X245250I5000J-7137D01*
G01*
X265250Y129887D02*
G75*
G02*
X278965Y122750I5000J-7137D01*
G01*
G75*
G02*
X265250Y115613I-8715J0D01*
G01*
G75*
G02*
X255250I-5000J7137D01*
G01*
G75*
G02*
X245250I-5000J7137D01*
G01*
G75*
G02*
X235250I-5000J7137D01*
G01*
G75*
G02*
X225250I-5000J7137D01*
G01*
G75*
G02*
X215250I-5000J7137D01*
G01*
G75*
G02*
X205250I-5000J7137D01*
G01*
G75*
G02*
X191535Y122750I-5000J7137D01*
G01*
G75*
G02*
X205250Y129887I8715J0D01*
G01*
G75*
G02*
X215250I5000J-7137D01*
G01*
G75*
G02*
X225250I5000J-7137D01*
G01*
G75*
G02*
X235250I5000J-7137D01*
G01*
G75*
G02*
X245250I5000J-7137D01*
G01*
G75*
G02*
X255250I5000J-7137D01*
G01*
G75*
G02*
X265250I5000J-7137D01*
G01*
X135250Y372387D02*
G75*
G02*
X148965Y365250I5000J-7137D01*
G01*
G75*
G02*
X135250Y358113I-8715J0D01*
G01*
G75*
G02*
X121535Y365250I-5000J7137D01*
G01*
G75*
G02*
X135250Y372387I8715J0D01*
G01*
X195250D02*
G75*
G02*
X208965Y365250I5000J-7137D01*
G01*
G75*
G02*
X195250Y358113I-8715J0D01*
G01*
G75*
G02*
X185250I-5000J7137D01*
G01*
G75*
G02*
X175250I-5000J7137D01*
G01*
G75*
G02*
X161535Y365250I-5000J7137D01*
G01*
G75*
G02*
X175250Y372387I8715J0D01*
G01*
G75*
G02*
X185250I5000J-7137D01*
G01*
G75*
G02*
X195250I5000J-7137D01*
G01*
X3000Y82750D02*
G36*
X3000Y82750D02*
Y50500D01*
X550000D01*
Y82750D01*
X328965D01*
G75*
G02*
X311535I-8715J0D01*
G01*
X257387D01*
G75*
G02*
X258965Y77750I-7137J-5000D01*
G01*
G75*
G02*
X245250Y70613I-8715J0D01*
G01*
G75*
G02*
X235250I-5000J7137D01*
G01*
G75*
G02*
X225250I-5000J7137D01*
G01*
G75*
G02*
X215250I-5000J7137D01*
G01*
G75*
G02*
X205250I-5000J7137D01*
G01*
G75*
G02*
X191535Y77750I-5000J7137D01*
G01*
G75*
G02*
X193113Y82750I8715J0D01*
G01*
X187387D01*
G75*
G02*
X188965Y77750I-7137J-5000D01*
G01*
G75*
G02*
X175250Y70613I-8715J0D01*
G01*
G75*
G02*
X165250I-5000J7137D01*
G01*
G75*
G02*
X155250I-5000J7137D01*
G01*
G75*
G02*
X145250I-5000J7137D01*
G01*
G75*
G02*
X135250I-5000J7137D01*
G01*
G75*
G02*
X125250I-5000J7137D01*
G01*
G75*
G02*
X115250I-5000J7137D01*
G01*
G75*
G02*
X101535Y77750I-5000J7137D01*
G01*
G75*
G02*
X103113Y82750I8715J0D01*
G01*
X3000D01*
G37*
Y122750D02*
G36*
X3000Y122750D02*
Y82750D01*
X103113D01*
G75*
G02*
X115250Y84887I7137J-5000D01*
G01*
G75*
G02*
X125250I5000J-7137D01*
G01*
G75*
G02*
X135250I5000J-7137D01*
G01*
G75*
G02*
X145250I5000J-7137D01*
G01*
G75*
G02*
X155250I5000J-7137D01*
G01*
G75*
G02*
X165250I5000J-7137D01*
G01*
G75*
G02*
X175250I5000J-7137D01*
G01*
G75*
G02*
X187387Y82750I5000J-7137D01*
G01*
X193113D01*
G75*
G02*
X205250Y84887I7137J-5000D01*
G01*
G75*
G02*
X215250I5000J-7137D01*
G01*
G75*
G02*
X225250I5000J-7137D01*
G01*
G75*
G02*
X235250I5000J-7137D01*
G01*
G75*
G02*
X245250I5000J-7137D01*
G01*
G75*
G02*
X257387Y82750I5000J-7137D01*
G01*
X311535D01*
G75*
G02*
X328965I8715J0D01*
G01*
X550000D01*
Y122750D01*
X368965D01*
G75*
G02*
X355250Y115613I-8715J0D01*
G01*
G75*
G02*
X345250I-5000J7137D01*
G01*
G75*
G02*
X335250I-5000J7137D01*
G01*
G75*
G02*
X325250I-5000J7137D01*
G01*
G75*
G02*
X312902Y118065I-5000J7137D01*
G01*
G75*
G02*
X305250Y120754I-2652J4685D01*
G01*
G75*
G02*
X297598Y118065I-5000J1996D01*
G01*
G75*
G02*
X281535Y122750I-7348J4685D01*
G01*
X278965D01*
G75*
G02*
X265250Y115613I-8715J0D01*
G01*
G75*
G02*
X255250I-5000J7137D01*
G01*
G75*
G02*
X245250I-5000J7137D01*
G01*
G75*
G02*
X235250I-5000J7137D01*
G01*
G75*
G02*
X225250I-5000J7137D01*
G01*
G75*
G02*
X215250I-5000J7137D01*
G01*
G75*
G02*
X205250I-5000J7137D01*
G01*
G75*
G02*
X191535Y122750I-5000J7137D01*
G01*
X188965D01*
G75*
G02*
X175250Y115613I-8715J0D01*
G01*
G75*
G02*
X165250I-5000J7137D01*
G01*
G75*
G02*
X155250I-5000J7137D01*
G01*
G75*
G02*
X145250I-5000J7137D01*
G01*
G75*
G02*
X135250I-5000J7137D01*
G01*
G75*
G02*
X125250I-5000J7137D01*
G01*
G75*
G02*
X115250I-5000J7137D01*
G01*
G75*
G02*
X101535Y122750I-5000J7137D01*
G01*
X3000D01*
G37*
Y155250D02*
G36*
X3000Y155250D02*
Y122750D01*
X101535D01*
G75*
G02*
X115250Y129887I8715J0D01*
G01*
G75*
G02*
X125250I5000J-7137D01*
G01*
G75*
G02*
X135250I5000J-7137D01*
G01*
G75*
G02*
X145250I5000J-7137D01*
G01*
G75*
G02*
X155250I5000J-7137D01*
G01*
G75*
G02*
X165250I5000J-7137D01*
G01*
G75*
G02*
X175250I5000J-7137D01*
G01*
G75*
G02*
X188965Y122750I5000J-7137D01*
G01*
X191535D01*
G75*
G02*
X205250Y129887I8715J0D01*
G01*
G75*
G02*
X215250I5000J-7137D01*
G01*
G75*
G02*
X225250I5000J-7137D01*
G01*
G75*
G02*
X235250I5000J-7137D01*
G01*
G75*
G02*
X245250I5000J-7137D01*
G01*
G75*
G02*
X255250I5000J-7137D01*
G01*
G75*
G02*
X265250I5000J-7137D01*
G01*
G75*
G02*
X278965Y122750I5000J-7137D01*
G01*
X281535D01*
G75*
G02*
X297598Y127435I8715J0D01*
G01*
G75*
G02*
X305250Y124746I2652J-4685D01*
G01*
G75*
G02*
X312902Y127435I5000J-1996D01*
G01*
G75*
G02*
X325250Y129887I7348J-4685D01*
G01*
G75*
G02*
X335250I5000J-7137D01*
G01*
G75*
G02*
X345250I5000J-7137D01*
G01*
G75*
G02*
X355250I5000J-7137D01*
G01*
G75*
G02*
X368965Y122750I5000J-7137D01*
G01*
X550000D01*
Y155250D01*
X338965D01*
G75*
G02*
X321535I-8715J0D01*
G01*
X108598D01*
G75*
G02*
X108965Y152750I-8348J-2500D01*
G01*
G75*
G02*
X107387Y147750I-8715J0D01*
G01*
G75*
G02*
X108964Y142750I-7137J-5000D01*
G01*
G75*
G02*
X94000Y136677I-8715J0D01*
G01*
G75*
G02*
X79035Y142750I-6250J6072D01*
G01*
G75*
G02*
X80613Y147750I8715J0D01*
G01*
G75*
G02*
X79035Y152750I7137J5000D01*
G01*
G75*
G02*
X79402Y155250I8715J0D01*
G01*
X3000D01*
G37*
Y297750D02*
G36*
X3000Y297750D02*
Y155250D01*
X79402D01*
G75*
G02*
X80613Y157750I8348J-2500D01*
G01*
G75*
G02*
X79035Y162750I7137J5000D01*
G01*
G75*
G02*
X80613Y167750I8715J0D01*
G01*
G75*
G02*
X79035Y172750I7137J5000D01*
G01*
G75*
G02*
X80613Y177750I8715J0D01*
G01*
G75*
G02*
X79035Y182750I7137J5000D01*
G01*
G75*
G02*
X80613Y187750I8715J0D01*
G01*
G75*
G02*
X79035Y192750I7137J5000D01*
G01*
G75*
G02*
X80613Y197750I8715J0D01*
G01*
G75*
G02*
X79035Y202750I7137J5000D01*
G01*
G75*
G02*
X80613Y207750I8715J0D01*
G01*
G75*
G02*
X79035Y212750I7137J5000D01*
G01*
G75*
G02*
X80613Y217750I8715J0D01*
G01*
G75*
G02*
X79035Y222750I7137J5000D01*
G01*
G75*
G02*
X80613Y227750I8715J0D01*
G01*
G75*
G02*
X79035Y232750I7137J5000D01*
G01*
G75*
G02*
X80613Y237750I8715J0D01*
G01*
G75*
G02*
X79035Y242750I7137J5000D01*
G01*
G75*
G02*
X80613Y247750I8715J0D01*
G01*
G75*
G02*
X79035Y252750I7137J5000D01*
G01*
G75*
G02*
X80613Y257750I8715J0D01*
G01*
G75*
G02*
X79035Y262750I7137J5000D01*
G01*
G75*
G02*
X80613Y267750I8715J0D01*
G01*
G75*
G02*
X79035Y272750I7137J5000D01*
G01*
G75*
G02*
X80613Y277750I8715J0D01*
G01*
G75*
G02*
X79035Y282750I7137J5000D01*
G01*
G75*
G02*
X80613Y287750I8715J0D01*
G01*
G75*
G02*
X79411Y290220I7141J5002D01*
G01*
X72750D01*
G75*
G02*
X70960Y290963I0J2529D01*
G01*
X64173Y297750D01*
X3000D01*
G37*
X71327D02*
G36*
X71327Y297750D02*
X73798Y295280D01*
X79411D01*
G75*
G02*
X80613Y297750I8343J-2531D01*
G01*
X71327D01*
G37*
X107387Y157750D02*
G36*
X107387Y157750D02*
G75*
G02*
X108598Y155250I-7137J-5000D01*
G01*
X321535D01*
G75*
G02*
X338965I8715J0D01*
G01*
X550000D01*
Y297750D01*
X493134D01*
G75*
G02*
X482366I-5384J0D01*
G01*
X328780D01*
Y285280D01*
X479411D01*
G75*
G02*
X496465Y282750I8339J-2530D01*
G01*
G75*
G02*
X479411Y280220I-8715J0D01*
G01*
X326250D01*
G75*
G02*
X323720Y282750I0J2530D01*
G01*
Y297750D01*
X107387D01*
G75*
G02*
X108965Y292750I-7137J-5000D01*
G01*
G75*
G02*
X107387Y287750I-8715J0D01*
G01*
G75*
G02*
X108965Y282750I-7137J-5000D01*
G01*
G75*
G02*
X107387Y277750I-8715J0D01*
G01*
G75*
G02*
X108965Y272750I-7137J-5000D01*
G01*
G75*
G02*
X107387Y267750I-8715J0D01*
G01*
G75*
G02*
X108965Y262750I-7137J-5000D01*
G01*
G75*
G02*
X107387Y257750I-8715J0D01*
G01*
G75*
G02*
X108965Y252750I-7137J-5000D01*
G01*
G75*
G02*
X107387Y247750I-8715J0D01*
G01*
G75*
G02*
X108965Y242750I-7137J-5000D01*
G01*
G75*
G02*
X107387Y237750I-8715J0D01*
G01*
G75*
G02*
X108965Y232750I-7137J-5000D01*
G01*
G75*
G02*
X107387Y227750I-8715J0D01*
G01*
G75*
G02*
X108965Y222750I-7137J-5000D01*
G01*
G75*
G02*
X107387Y217750I-8715J0D01*
G01*
G75*
G02*
X108965Y212750I-7137J-5000D01*
G01*
G75*
G02*
X107387Y207750I-8715J0D01*
G01*
G75*
G02*
X108965Y202750I-7137J-5000D01*
G01*
G75*
G02*
X107387Y197750I-8715J0D01*
G01*
G75*
G02*
X108965Y192750I-7137J-5000D01*
G01*
G75*
G02*
X107387Y187750I-8715J0D01*
G01*
G75*
G02*
X108965Y182750I-7137J-5000D01*
G01*
G75*
G02*
X107387Y177750I-8715J0D01*
G01*
G75*
G02*
X108965Y172750I-7137J-5000D01*
G01*
G75*
G02*
X107387Y167750I-8715J0D01*
G01*
G75*
G02*
X108965Y162750I-7137J-5000D01*
G01*
G75*
G02*
X107387Y157750I-8715J0D01*
G01*
G37*
X3000Y312750D02*
G36*
X3000Y312750D02*
Y297750D01*
X64173D01*
X49173Y312750D01*
X3000D01*
G37*
X59173D02*
G36*
X59173Y312750D02*
X56327D01*
X71327Y297750D01*
X80613D01*
G75*
G02*
X79411Y300220I7141J5002D01*
G01*
X72750D01*
G75*
G02*
X70960Y300963I0J2529D01*
G01*
X59173Y312750D01*
G37*
X66327D02*
G36*
X66327Y312750D02*
X73798Y305280D01*
X79411D01*
G75*
G02*
X80613Y307750I8343J-2531D01*
G01*
G75*
G02*
X79035Y312750I7137J5000D01*
G01*
X66327D01*
G37*
X108964Y312750D02*
G36*
X108964Y312750D02*
G75*
G02*
X107387Y307750I-8714J0D01*
G01*
G75*
G02*
X108965Y302750I-7137J-5000D01*
G01*
G75*
G02*
X107387Y297750I-8715J0D01*
G01*
X323720D01*
Y304411D01*
G75*
G02*
X321250Y305613I2531J8343D01*
G01*
G75*
G02*
X311250I-5000J7137D01*
G01*
G75*
G02*
X298250Y309294I-5000J7138D01*
G01*
G75*
G02*
X285250Y305613I-8000J3456D01*
G01*
G75*
G02*
X275250I-5000J7137D01*
G01*
G75*
G02*
X265250I-5000J7137D01*
G01*
G75*
G02*
X255250I-5000J7137D01*
G01*
G75*
G02*
X245250I-5000J7137D01*
G01*
G75*
G02*
X235250I-5000J7137D01*
G01*
G75*
G02*
X225250I-5000J7137D01*
G01*
G75*
G02*
X211535Y312750I-5000J7137D01*
G01*
X208965D01*
G75*
G02*
X195250Y305613I-8715J0D01*
G01*
G75*
G02*
X185250I-5000J7137D01*
G01*
G75*
G02*
X175250I-5000J7137D01*
G01*
G75*
G02*
X165250I-5000J7137D01*
G01*
G75*
G02*
X155250I-5000J7137D01*
G01*
G75*
G02*
X145250I-5000J7137D01*
G01*
G75*
G02*
X135250I-5000J7137D01*
G01*
G75*
G02*
X121535Y312750I-5000J7137D01*
G01*
X108964D01*
Y312750D01*
G37*
X328780Y304411D02*
G36*
X328780Y304411D02*
Y297750D01*
X482366D01*
G75*
G02*
X493134I5384J0D01*
G01*
X550000D01*
Y312750D01*
X404965D01*
G75*
G02*
X391250Y305613I-8715J0D01*
G01*
G75*
G02*
X381250I-5000J7137D01*
G01*
G75*
G02*
X371250I-5000J7137D01*
G01*
G75*
G02*
X361250I-5000J7137D01*
G01*
G75*
G02*
X351250I-5000J7137D01*
G01*
G75*
G02*
X341250I-5000J7137D01*
G01*
G75*
G02*
X331250I-5000J7137D01*
G01*
G75*
G02*
X328780Y304411I-5002J7141D01*
G01*
G37*
X3000Y365250D02*
G36*
X3000Y365250D02*
Y312750D01*
X49173D01*
X20963Y340960D01*
G75*
G02*
X20220Y342750I1787J1790D01*
G01*
Y365250D01*
X3000D01*
G37*
X25280D02*
G36*
X25280Y365250D02*
Y343798D01*
X56327Y312750D01*
X59173D01*
X53463Y318460D01*
G75*
G02*
X52720Y320250I1787J1790D01*
G01*
Y365250D01*
X25280D01*
G37*
X57780D02*
G36*
X57780Y365250D02*
Y321298D01*
X66327Y312750D01*
X79035D01*
G75*
G02*
X94000Y318823I8715J0D01*
G01*
G75*
G02*
X108964Y312750I6250J-6073D01*
G01*
X121535D01*
G75*
G02*
X135250Y319887I8715J0D01*
G01*
G75*
G02*
X145250I5000J-7137D01*
G01*
G75*
G02*
X155250I5000J-7137D01*
G01*
G75*
G02*
X165250I5000J-7137D01*
G01*
G75*
G02*
X175250I5000J-7137D01*
G01*
G75*
G02*
X185250I5000J-7137D01*
G01*
G75*
G02*
X195250I5000J-7137D01*
G01*
G75*
G02*
X208965Y312750I5000J-7137D01*
G01*
X211535D01*
G75*
G02*
X225250Y319887I8715J0D01*
G01*
G75*
G02*
X235250I5000J-7137D01*
G01*
G75*
G02*
X245250I5000J-7137D01*
G01*
G75*
G02*
X247720Y321089I5002J-7141D01*
G01*
Y360763D01*
G75*
G02*
X235250Y358113I-7470J4488D01*
G01*
G75*
G02*
X225250I-5000J7137D01*
G01*
G75*
G02*
X211535Y365250I-5000J7137D01*
G01*
X208965D01*
G75*
G02*
X195250Y358113I-8715J0D01*
G01*
G75*
G02*
X185250I-5000J7137D01*
G01*
G75*
G02*
X175250I-5000J7137D01*
G01*
G75*
G02*
X161535Y365250I-5000J7137D01*
G01*
X148965D01*
G75*
G02*
X135250Y358113I-8715J0D01*
G01*
G75*
G02*
X121535Y365250I-5000J7137D01*
G01*
X57780D01*
G37*
X252780Y360763D02*
G36*
X252780Y360763D02*
Y321089D01*
G75*
G02*
X255250Y319887I-2531J-8343D01*
G01*
G75*
G02*
X265250I5000J-7137D01*
G01*
G75*
G02*
X275250I5000J-7137D01*
G01*
G75*
G02*
X285250I5000J-7137D01*
G01*
G75*
G02*
X298250Y316206I5000J-7138D01*
G01*
G75*
G02*
X311250Y319887I8000J-3456D01*
G01*
G75*
G02*
X321250I5000J-7137D01*
G01*
G75*
G02*
X331250I5000J-7137D01*
G01*
G75*
G02*
X341250I5000J-7137D01*
G01*
G75*
G02*
X351250I5000J-7137D01*
G01*
G75*
G02*
X361250I5000J-7137D01*
G01*
G75*
G02*
X371250I5000J-7137D01*
G01*
G75*
G02*
X381250I5000J-7137D01*
G01*
G75*
G02*
X391250I5000J-7137D01*
G01*
G75*
G02*
X404965Y312750I5000J-7137D01*
G01*
X550000D01*
Y365250D01*
X364465D01*
G75*
G02*
X350750Y358113I-8715J0D01*
G01*
G75*
G02*
X340750I-5000J7137D01*
G01*
G75*
G02*
X327035Y365250I-5000J7137D01*
G01*
X324465D01*
G75*
G02*
X310750Y358113I-8715J0D01*
G01*
G75*
G02*
X298000Y361265I-5000J7137D01*
G01*
G75*
G02*
X285250Y358113I-7750J3985D01*
G01*
G75*
G02*
X271535Y365250I-5000J7137D01*
G01*
X268965D01*
Y365250D01*
G75*
G02*
X252780Y360763I-8715J0D01*
G01*
G37*
X3000Y415250D02*
G36*
X3000Y415250D02*
Y365250D01*
X20220D01*
Y366911D01*
G75*
G02*
X14035Y375250I2530J8339D01*
G01*
G75*
G02*
X31465I8715J0D01*
G01*
G75*
G02*
X25280Y366911I-8715J0D01*
G01*
Y365250D01*
X52720D01*
Y366911D01*
G75*
G02*
X46535Y375250I2530J8339D01*
G01*
G75*
G02*
X63965I8715J0D01*
G01*
G75*
G02*
X57780Y366911I-8715J0D01*
G01*
Y365250D01*
X121535D01*
G75*
G02*
X135250Y372387I8715J0D01*
G01*
G75*
G02*
X148965Y365250I5000J-7137D01*
G01*
X161535D01*
G75*
G02*
X175250Y372387I8715J0D01*
G01*
G75*
G02*
X185250I5000J-7137D01*
G01*
G75*
G02*
X195250I5000J-7137D01*
G01*
G75*
G02*
X208965Y365250I5000J-7137D01*
G01*
X211535D01*
G75*
G02*
X225250Y372387I8715J0D01*
G01*
G75*
G02*
X235250I5000J-7137D01*
G01*
G75*
G02*
X247720Y369737I5000J-7138D01*
G01*
Y415250D01*
X63965D01*
G75*
G02*
X46535I-8715J0D01*
G01*
X31465D01*
G75*
G02*
X14035I-8715J0D01*
G01*
X3000D01*
G37*
X252780Y412720D02*
G36*
X252780Y412720D02*
Y369737D01*
G75*
G02*
X268965Y365250I7470J-4487D01*
G01*
Y365250D01*
X271535D01*
G75*
G02*
X285250Y372387I8715J0D01*
G01*
G75*
G02*
X298000Y369235I5000J-7137D01*
G01*
G75*
G02*
X310750Y372387I7750J-3985D01*
G01*
G75*
G02*
X324465Y365250I5000J-7137D01*
G01*
X327035D01*
G75*
G02*
X340750Y372387I8715J0D01*
G01*
G75*
G02*
X350750I5000J-7137D01*
G01*
G75*
G02*
X364465Y365250I5000J-7137D01*
G01*
X550000D01*
Y415250D01*
X363827D01*
X355435Y406858D01*
G75*
G02*
X356465Y402752I-7679J-4107D01*
G01*
G75*
G02*
Y402750I-9023J-1D01*
G01*
G75*
G02*
X339035I-8715J0D01*
G01*
G75*
G02*
X351858Y410435I8715J0D01*
G01*
X356673Y415250D01*
X344201D01*
X342414Y413463D01*
G75*
G02*
X340624Y412720I-1790J1787D01*
G01*
X252780D01*
G37*
X3000Y440250D02*
G36*
X3000Y440250D02*
Y415250D01*
X14035D01*
G75*
G02*
X31465I8715J0D01*
G01*
X46535D01*
G75*
G02*
X63965I8715J0D01*
G01*
X247720D01*
G75*
G02*
X250250Y417780I2530J0D01*
G01*
X339576D01*
X362047Y440250D01*
X329795D01*
G75*
G02*
X330437Y437750I-4544J-2500D01*
G01*
G75*
G02*
X325250Y432563I-5187J0D01*
G01*
G75*
G02*
X320063Y437750I0J5187D01*
G01*
G75*
G02*
X320705Y440250I5187J0D01*
G01*
X270634D01*
G75*
G02*
X269935Y437598I-5384J0D01*
G01*
G75*
G02*
X273965Y430250I-4685J-7348D01*
G01*
G75*
G02*
X265250Y421535I-8715J0D01*
G01*
G75*
G02*
X256535Y430250I0J8715D01*
G01*
G75*
G02*
X260565Y437598I8715J0D01*
G01*
G75*
G02*
X259866Y440250I4686J2652D01*
G01*
X70634D01*
Y440250D01*
G75*
G02*
X62598Y435565I-5384J0D01*
G01*
G75*
G02*
X46535Y440250I-7348J4685D01*
G01*
X38134D01*
Y440250D01*
G75*
G02*
X30098Y435565I-5384J0D01*
G01*
G75*
G02*
X14035Y440250I-7348J4685D01*
G01*
X3000D01*
G37*
X344201Y415250D02*
G36*
X344201Y415250D02*
X356673D01*
X380960Y439537D01*
G75*
G02*
X382365Y440250I1790J-1787D01*
G01*
X369202D01*
X344201Y415250D01*
G37*
X383798Y435220D02*
G36*
X383798Y435220D02*
X363827Y415250D01*
X550000D01*
Y440250D01*
X494795D01*
G75*
G02*
X495437Y437750I-4544J-2500D01*
G01*
G75*
G02*
X490250Y432563I-5187J0D01*
G01*
G75*
G02*
X485063Y437750I0J5187D01*
G01*
G75*
G02*
X485705Y440250I5187J0D01*
G01*
X457780D01*
Y437376D01*
G75*
G02*
X455250Y434846I-2530J0D01*
G01*
X441463D01*
G75*
G02*
X440261Y432376I-8343J2531D01*
G01*
G75*
G02*
X441839Y427376I-7137J-5000D01*
G01*
G75*
G02*
X433124Y418661I-8715J0D01*
G01*
G75*
G02*
X424409Y427376I0J8715D01*
G01*
G75*
G02*
X425987Y432376I8715J0D01*
G01*
G75*
G02*
X424409Y437376I7137J5000D01*
G01*
G75*
G02*
X424897Y440250I8715J0D01*
G01*
X401351D01*
G75*
G02*
X401839Y437376I-8228J-2874D01*
G01*
G75*
G02*
X400261Y432376I-8715J0D01*
G01*
G75*
G02*
X401839Y427376I-7137J-5000D01*
G01*
G75*
G02*
X393124Y418661I-8715J0D01*
G01*
G75*
G02*
X384409Y427376I0J8715D01*
G01*
G75*
G02*
X385987Y432376I8715J0D01*
G01*
G75*
G02*
X384680Y435220I7136J4999D01*
G01*
X383798D01*
G37*
X441351Y440250D02*
G36*
X441351Y440250D02*
G75*
G02*
X441463Y439906I-8229J-2871D01*
G01*
X452720D01*
Y440250D01*
X441351D01*
G37*
X3000Y454415D02*
G36*
X3000Y454415D02*
Y440250D01*
X14035D01*
G75*
G02*
X30098Y444935I8715J0D01*
G01*
G75*
G02*
X38134Y440250I2652J-4685D01*
G01*
Y440250D01*
X46535D01*
G75*
G02*
X62598Y444935I8715J0D01*
G01*
G75*
G02*
X70634Y440250I2652J-4685D01*
G01*
Y440250D01*
X259866D01*
G75*
G02*
X260565Y442902I5384J0D01*
G01*
G75*
G02*
X256535Y450250I4686J7348D01*
G01*
G75*
G02*
X257595Y454415I8715J0D01*
G01*
X3000D01*
G37*
X269935Y442902D02*
G36*
X269935Y442902D02*
G75*
G02*
X270634Y440250I-4686J-2652D01*
G01*
X320705D01*
G75*
G02*
X320832Y440468I4545J-2500D01*
G01*
G75*
G02*
X316732Y447750I4418J7282D01*
G01*
G75*
G02*
X318354Y452750I8517J0D01*
G01*
G75*
G02*
X317412Y454415I6896J5000D01*
G01*
X272905D01*
G75*
G02*
X273965Y450250I-7655J-4165D01*
G01*
G75*
G02*
X269935Y442902I-8715J0D01*
G01*
G37*
X329668Y440468D02*
G36*
X329668Y440468D02*
G75*
G02*
X329795Y440250I-4418J-2718D01*
G01*
X362047D01*
X376212Y454415D01*
X333088D01*
G75*
G02*
X332146Y452750I-7838J3335D01*
G01*
G75*
G02*
X333768Y447750I-6895J-5000D01*
G01*
G75*
G02*
X329668Y440468I-8518J0D01*
G01*
G37*
X369202Y440250D02*
G36*
X369202Y440250D02*
X382365D01*
G75*
G02*
X382750Y440280I385J-2499D01*
G01*
X384907D01*
G75*
G02*
X388439Y444724I8220J-2906D01*
G01*
G75*
G02*
X387740Y447376I4686J2652D01*
G01*
G75*
G02*
X388439Y450028I5384J0D01*
G01*
G75*
G02*
X384928Y454415I4686J7348D01*
G01*
X383367D01*
X369202Y440250D01*
G37*
X398508Y447376D02*
G36*
X398508Y447376D02*
G75*
G02*
X397809Y444724I-5384J0D01*
G01*
G75*
G02*
X401351Y440250I-4685J-7348D01*
G01*
X424897D01*
G75*
G02*
X428439Y444724I8227J-2874D01*
G01*
G75*
G02*
X427740Y447376I4686J2652D01*
G01*
G75*
G02*
X428439Y450028I5384J0D01*
G01*
G75*
G02*
X424928Y454415I4685J7348D01*
G01*
X401320D01*
G75*
G02*
X397809Y450028I-8196J2961D01*
G01*
G75*
G02*
X398508Y447376I-4686J-2652D01*
G01*
G37*
X438508D02*
G36*
X438508Y447376D02*
G75*
G02*
X437809Y444724I-5384J0D01*
G01*
G75*
G02*
X441351Y440250I-4687J-7349D01*
G01*
X452720D01*
Y447750D01*
G75*
G02*
X455250Y450280I2530J0D01*
G01*
X482117D01*
G75*
G02*
X483354Y452750I8135J-2531D01*
G01*
G75*
G02*
X482412Y454415I6896J5000D01*
G01*
X441320D01*
G75*
G02*
X437809Y450028I-8196J2961D01*
G01*
G75*
G02*
X438508Y447376I-4686J-2652D01*
G01*
G37*
X457780Y445220D02*
G36*
X457780Y445220D02*
Y440250D01*
X485705D01*
G75*
G02*
X485832Y440468I4545J-2500D01*
G01*
G75*
G02*
X482117Y445220I4417J7281D01*
G01*
X457780D01*
G37*
X494668Y440468D02*
G36*
X494668Y440468D02*
G75*
G02*
X494795Y440250I-4418J-2718D01*
G01*
X550000D01*
Y454415D01*
X498088D01*
G75*
G02*
X497146Y452750I-7838J3335D01*
G01*
G75*
G02*
X498768Y447750I-6895J-5000D01*
G01*
G75*
G02*
X494668Y440468I-8518J0D01*
G01*
G37*
X3000Y485000D02*
G36*
X3000Y485000D02*
Y454415D01*
X257595D01*
G75*
G02*
X258113Y455250I7656J-4168D01*
G01*
G75*
G02*
X256535Y460250I7137J5000D01*
G01*
G75*
G02*
X258113Y465250I8715J0D01*
G01*
G75*
G02*
X256535Y470250I7137J5000D01*
G01*
G75*
G02*
X258113Y475250I8715J0D01*
G01*
G75*
G02*
X256535Y480250I7137J5000D01*
G01*
G75*
G02*
X257944Y485000I8714J0D01*
G01*
X246264D01*
G75*
G02*
X232750Y478354I-8514J250D01*
G01*
G75*
G02*
X219236Y485000I-5000J6896D01*
G01*
X3000D01*
G37*
X272387Y455250D02*
G36*
X272387Y455250D02*
G75*
G02*
X272905Y454415I-7139J-5002D01*
G01*
X317412D01*
G75*
G02*
X316732Y457750I7838J3335D01*
G01*
G75*
G02*
X318354Y462750I8517J0D01*
G01*
G75*
G02*
X316732Y467750I6896J5000D01*
G01*
G75*
G02*
X325250Y476268I8518J0D01*
G01*
G75*
G02*
X333768Y467750I0J-8518D01*
G01*
G75*
G02*
X332146Y462750I-8518J0D01*
G01*
G75*
G02*
X333768Y457750I-6895J-5000D01*
G01*
G75*
G02*
X333088Y454415I-8518J0D01*
G01*
X376212D01*
X385311Y463515D01*
G75*
G02*
X384409Y467376I7813J3861D01*
G01*
G75*
G02*
X385987Y472376I8715J0D01*
G01*
G75*
G02*
X384409Y477376I7137J5000D01*
G01*
G75*
G02*
X388903Y485000I8715J0D01*
G01*
X272556D01*
G75*
G02*
X273965Y480250I-7306J-4750D01*
G01*
G75*
G02*
X272387Y475250I-8715J0D01*
G01*
G75*
G02*
X273965Y470250I-7137J-5000D01*
G01*
G75*
G02*
X272387Y465250I-8715J0D01*
G01*
G75*
G02*
X273965Y460250I-7137J-5000D01*
G01*
G75*
G02*
X272387Y455250I-8715J0D01*
G01*
G37*
X384585Y455634D02*
G36*
X384585Y455634D02*
X383367Y454415D01*
X384928D01*
G75*
G02*
X384585Y455634I8197J2961D01*
G01*
G37*
X401839Y457376D02*
G36*
X401839Y457376D02*
G75*
G02*
X401320Y454415I-8715J0D01*
G01*
X424928D01*
G75*
G02*
X424409Y457376I8197J2960D01*
G01*
G75*
G02*
X425987Y462376I8715J0D01*
G01*
G75*
G02*
X424409Y467376I7137J5000D01*
G01*
G75*
G02*
X425987Y472376I8715J0D01*
G01*
G75*
G02*
X424409Y477376I7137J5000D01*
G01*
G75*
G02*
X428903Y485000I8715J0D01*
G01*
X397345D01*
G75*
G02*
X401839Y477376I-4221J-7624D01*
G01*
G75*
G02*
X400261Y472376I-8715J0D01*
G01*
G75*
G02*
X401839Y467376I-7137J-5000D01*
G01*
G75*
G02*
X400261Y462376I-8715J0D01*
G01*
G75*
G02*
X401839Y457376I-7137J-5000D01*
G01*
G37*
X441839D02*
G36*
X441839Y457376D02*
G75*
G02*
X441320Y454415I-8715J0D01*
G01*
X482412D01*
G75*
G02*
X481732Y457750I7838J3335D01*
G01*
G75*
G02*
X483354Y462750I8517J0D01*
G01*
G75*
G02*
X481732Y467750I6896J5000D01*
G01*
G75*
G02*
X490250Y476268I8518J0D01*
G01*
G75*
G02*
X498768Y467750I0J-8518D01*
G01*
G75*
G02*
X497146Y462750I-8518J0D01*
G01*
G75*
G02*
X498768Y457750I-6895J-5000D01*
G01*
G75*
G02*
X498088Y454415I-8518J0D01*
G01*
X550000D01*
Y485000D01*
X437345D01*
G75*
G02*
X441839Y477376I-4221J-7624D01*
G01*
G75*
G02*
X440261Y472376I-8715J0D01*
G01*
G75*
G02*
X441839Y467376I-7137J-5000D01*
G01*
G75*
G02*
X440261Y462376I-8715J0D01*
G01*
G75*
G02*
X441839Y457376I-7137J-5000D01*
G01*
G37*
D02*
D13*
X227750Y485250D03*
X237750D03*
X325250Y437750D03*
Y447750D03*
Y457750D03*
Y467750D03*
X490250Y437750D03*
Y447750D03*
Y457750D03*
Y467750D03*
D02*
D14*
X22750Y375250D03*
Y415250D03*
Y440250D03*
X32750D03*
X55250Y375250D03*
Y415250D03*
Y440250D03*
X65250D03*
X87750Y142750D03*
Y152750D03*
Y162750D03*
Y172750D03*
Y182750D03*
Y192750D03*
Y202750D03*
Y212750D03*
Y222750D03*
Y232750D03*
Y242750D03*
Y252750D03*
Y262750D03*
Y272750D03*
Y282750D03*
Y292750D03*
Y302750D03*
Y312750D03*
X100250Y142750D03*
Y152750D03*
Y162750D03*
Y172750D03*
Y182750D03*
Y192750D03*
Y202750D03*
Y212750D03*
Y222750D03*
Y232750D03*
Y242750D03*
Y252750D03*
Y262750D03*
Y272750D03*
Y282750D03*
Y292750D03*
Y302750D03*
Y312750D03*
X110250Y77750D03*
Y122750D03*
X120250Y77750D03*
Y122750D03*
X130250Y77750D03*
Y122750D03*
Y312750D03*
Y365250D03*
X140250Y77750D03*
Y122750D03*
Y312750D03*
Y365250D03*
X150250Y77750D03*
Y122750D03*
Y312750D03*
X160250Y77750D03*
Y122750D03*
Y312750D03*
X170250Y77750D03*
Y122750D03*
Y312750D03*
Y365250D03*
X180250Y77750D03*
Y122750D03*
Y312750D03*
Y365250D03*
X190250Y312750D03*
Y365250D03*
X200250Y77750D03*
Y122750D03*
Y312750D03*
Y365250D03*
X210250Y77750D03*
Y122750D03*
X220250Y77750D03*
Y122750D03*
Y312750D03*
Y365250D03*
X230250Y77750D03*
Y122750D03*
Y312750D03*
Y365250D03*
X240250Y77750D03*
Y122750D03*
Y312750D03*
Y365250D03*
X250250Y77750D03*
Y122750D03*
Y312750D03*
X260250Y122750D03*
Y312750D03*
Y365250D03*
X265250Y430250D03*
Y440250D03*
Y450250D03*
Y460250D03*
Y470250D03*
Y480250D03*
X270250Y122750D03*
Y312750D03*
X280250D03*
Y365250D03*
X290250Y122750D03*
Y312750D03*
Y365250D03*
X300250Y122750D03*
X305750Y365250D03*
X306250Y312750D03*
X310250Y122750D03*
X315750Y365250D03*
X316250Y312750D03*
X320250Y82750D03*
Y122750D03*
X326250Y312750D03*
X330250Y122750D03*
Y155250D03*
X335750Y365250D03*
X336250Y312750D03*
X340250Y122750D03*
X345750Y365250D03*
X346250Y312750D03*
X347750Y402750D03*
X350250Y122750D03*
X355750Y365250D03*
X356250Y312750D03*
X360250Y122750D03*
X366250Y312750D03*
X376250D03*
X386250D03*
X393124Y427376D03*
Y437376D03*
Y447376D03*
Y457376D03*
Y467376D03*
Y477376D03*
X396250Y312750D03*
X433124Y427376D03*
Y437376D03*
Y447376D03*
Y457376D03*
Y467376D03*
Y477376D03*
X487750Y282750D03*
Y297750D03*
D02*
D26*
X32750Y436616D02*
Y434616D01*
Y443884D02*
Y445884D01*
X36384Y440250D02*
X38384D01*
X65250Y436616D02*
Y434616D01*
Y443884D02*
Y445884D01*
X68884Y440250D02*
X70884D01*
X87750Y292750D02*
X72750D01*
X22750Y342750D01*
Y375250D01*
X87750Y302750D02*
X72750D01*
X55250Y320250D01*
Y375250D01*
X250250Y312750D02*
Y415250D01*
X340624D01*
X392750Y467376D01*
X393124D01*
X261616Y440250D02*
X259616D01*
X268884D02*
X270884D01*
X300250Y119116D02*
Y117116D01*
Y126384D02*
Y128384D01*
X310250Y119116D02*
Y117116D01*
Y126384D02*
Y128384D01*
X321813Y437750D02*
X319813D01*
X325250Y434313D02*
Y432313D01*
X326250Y312750D02*
Y282750D01*
X487750D01*
X328687Y437750D02*
X330687D01*
X347750Y402750D02*
X382750Y437750D01*
X392750D01*
X393124Y437376D01*
X389490Y447376D02*
X387490D01*
X396758D02*
X398758D01*
X429490D02*
X427490D01*
X436758D02*
X438758D01*
X484116Y297750D02*
X482116D01*
X486813Y437750D02*
X484813D01*
X487750Y294116D02*
Y292116D01*
Y301384D02*
Y303384D01*
X490250Y434313D02*
Y432313D01*
Y447750D02*
X455250D01*
Y437376D01*
X433124D01*
X491384Y297750D02*
X493384D01*
X493687Y437750D02*
X495687D01*
X0Y0D02*
M02*
