G05
M48
;#@! TF.GenerationSoftware,DesignSpark,DesignSpark PCB,10.0.5344
;#@! TF.CreationDate,2022-07-29T06:36:03--2:00*
;#@! TF.FileFunction,Plated,1,2,PTH
;FILE_FORMAT=3:5
;TYPE=PLATED
INCH,TZ
FMAT,2
T1C000.03937
T2C000.04000
T3C000.04134
%
T001
X227750Y485250
X237750Y485250
X325250Y437750
X325250Y447750
X325250Y457750
X325250Y467750
X490250Y437750
X490250Y447750
X490250Y457750
X490250Y467750
T002
X22750Y375250
X22750Y415250
X22750Y440250
X32750Y440250
X55250Y375250
X55250Y415250
X55250Y440250
X65250Y440250
X87750Y142750
X87750Y152750
X87750Y162750
X87750Y172750
X87750Y182750
X87750Y192750
X87750Y202750
X87750Y212750
X87750Y222750
X87750Y232750
X87750Y242750
X87750Y252750
X87750Y262750
X87750Y272750
X87750Y282750
X87750Y292750
X87750Y302750
X87750Y312750
X100250Y142750
X100250Y152750
X100250Y162750
X100250Y172750
X100250Y182750
X100250Y192750
X100250Y202750
X100250Y212750
X100250Y222750
X100250Y232750
X100250Y242750
X100250Y252750
X100250Y262750
X100250Y272750
X100250Y282750
X100250Y292750
X100250Y302750
X100250Y312750
X110250Y77750
X110250Y122750
X120250Y77750
X120250Y122750
X130250Y77750
X130250Y122750
X130250Y312750
X130250Y365250
X140250Y77750
X140250Y122750
X140250Y312750
X140250Y365250
X150250Y77750
X150250Y122750
X150250Y312750
X160250Y77750
X160250Y122750
X160250Y312750
X170250Y77750
X170250Y122750
X170250Y312750
X170250Y365250
X180250Y77750
X180250Y122750
X180250Y312750
X180250Y365250
X190250Y312750
X190250Y365250
X200250Y77750
X200250Y122750
X200250Y312750
X200250Y365250
X210250Y77750
X210250Y122750
X220250Y77750
X220250Y122750
X220250Y312750
X220250Y365250
X230250Y77750
X230250Y122750
X230250Y312750
X230250Y365250
X240250Y77750
X240250Y122750
X240250Y312750
X240250Y365250
X250250Y77750
X250250Y122750
X250250Y312750
X260250Y122750
X260250Y312750
X260250Y365250
X265250Y430250
X265250Y440250
X265250Y450250
X265250Y460250
X265250Y470250
X270250Y122750
X270250Y312750
X280250Y312750
X280250Y365250
X290250Y122750
X290250Y312750
X290250Y365250
X300250Y122750
X305750Y365250
X306250Y312750
X310250Y122750
X315750Y365250
X316250Y312750
X320250Y82750
X320250Y122750
X326250Y312750
X330250Y122750
X330250Y155250
X335750Y365250
X336250Y312750
X340250Y122750
X345750Y365250
X346250Y312750
X347750Y402750
X350250Y122750
X355750Y365250
X356250Y312750
X360250Y122750
X366250Y312750
X376250Y312750
X386250Y312750
X393124Y427376
X393124Y437376
X393124Y447376
X393124Y457376
X393124Y467376
X393124Y477376
X396250Y312750
X433124Y427376
X433124Y437376
X433124Y447376
X433124Y457376
X433124Y467376
X433124Y477376
T003
X487750Y282750
X487750Y297750
M30
