G04 DesignSpark PCB Gerber Version 10.0 Build 5299*
G04 #@! TF.Part,Single*
G04 #@! TF.FileFunction,Copper,L1,Top*
G04 #@! TF.FilePolarity,Positive*
%FSLAX35Y35*%
%MOIN*%
%ADD10C,0.00500*%
%ADD11C,0.01000*%
%ADD12C,0.01772*%
G04 #@! TA.AperFunction,ComponentPad*
%ADD15C,0.07400*%
G04 #@! TA.AperFunction,WasherPad*
%ADD13C,0.07874*%
G04 #@! TA.AperFunction,ComponentPad*
%ADD16C,0.08000*%
G04 #@! TA.AperFunction,WasherPad*
%ADD14C,0.08268*%
G04 #@! TD.AperFunction*
X0Y0D02*
D02*
D10*
X2750Y360250D02*
Y2750D01*
X530250D01*
Y360250D01*
X2750D01*
X20063Y22750D02*
G75*
G02*
X30437I5187J0D01*
G01*
G75*
G02*
X20063I-5187J0D01*
G01*
Y337750D02*
G75*
G02*
X30437I5187J0D01*
G01*
G75*
G02*
X20063I-5187J0D01*
G01*
X265250Y323000D02*
G75*
G02*
X266851Y312750I0J-5250D01*
G01*
G75*
G02*
Y302750I-1601J-5000D01*
G01*
G75*
G02*
Y292750I-1601J-5000D01*
G01*
G75*
G02*
Y282750I-1601J-5000D01*
G01*
G75*
G02*
Y272750I-1601J-5000D01*
G01*
G75*
G02*
X265250Y262500I-1601J-5000D01*
G01*
G75*
G02*
X263649Y272750I0J5250D01*
G01*
G75*
G02*
Y282750I1601J5000D01*
G01*
G75*
G02*
Y292750I1601J5000D01*
G01*
G75*
G02*
X260454Y295614I1601J5000D01*
G01*
X193635D01*
X125255Y227234D01*
G75*
G02*
X115250Y223254I-5005J-1984D01*
G01*
G75*
G02*
X104866Y225250I-5000J1996D01*
G01*
G75*
G02*
X112234Y230255I5384J0D01*
G01*
X191237Y309258D01*
G75*
G02*
X192750Y309886I1513J-1508D01*
G01*
X260454D01*
G75*
G02*
X263649Y312750I4796J-2136D01*
G01*
G75*
G02*
X265250Y323000I1601J5000D01*
G01*
X204866Y225250D02*
G75*
G02*
X215634I5384J0D01*
G01*
G75*
G02*
X204866I-5384J0D01*
G01*
X325250Y310437D02*
G75*
G02*
X326630Y300250I0J-5187D01*
G01*
G75*
G02*
Y290250I-1380J-5000D01*
G01*
G75*
G02*
Y280250I-1380J-5000D01*
G01*
G75*
G02*
X325250Y270063I-1380J-5000D01*
G01*
G75*
G02*
X320523Y273114I0J5187D01*
G01*
X303635D01*
X267386Y236865D01*
Y70250D01*
G75*
G02*
X266758Y68737I-2136J0D01*
G01*
X235255Y37234D01*
G75*
G02*
X225250Y33254I-5005J-1984D01*
G01*
G75*
G02*
X214866Y35250I-5000J1996D01*
G01*
G75*
G02*
X222234Y40255I5384J0D01*
G01*
X258114Y76135D01*
Y245250D01*
G75*
G02*
X258742Y246763I2136J0D01*
G01*
X298737Y286758D01*
G75*
G02*
X300250Y287386I1513J-1508D01*
G01*
X320523D01*
G75*
G02*
X323870Y290250I4727J-2136D01*
G01*
G75*
G02*
Y300250I1380J5000D01*
G01*
G75*
G02*
X325250Y310437I1380J5000D01*
G01*
X285250Y37246D02*
G75*
G02*
X295634Y35250I5000J-1996D01*
G01*
G75*
G02*
X285250Y33254I-5384J0D01*
G01*
G75*
G02*
X274866Y35250I-5000J1996D01*
G01*
G75*
G02*
X285250Y37246I5384J0D01*
G01*
X485308Y227386D02*
G75*
G02*
X495634Y225250I4942J-2136D01*
G01*
G75*
G02*
X485308Y223114I-5384J0D01*
G01*
X292692D01*
G75*
G02*
X282366Y225250I-4942J2136D01*
G01*
G75*
G02*
X292692Y227386I5384J0D01*
G01*
X485308D01*
X484866Y212750D02*
G75*
G02*
X495634I5384J0D01*
G01*
G75*
G02*
X484866I-5384J0D01*
G01*
X254866Y35250D02*
G75*
G02*
X265634I5384J0D01*
G01*
G75*
G02*
X254866I-5384J0D01*
G01*
X224866Y225250D02*
G75*
G02*
X235634I5384J0D01*
G01*
G75*
G02*
X224866I-5384J0D01*
G01*
X232750Y324130D02*
G75*
G02*
X242937Y322750I5000J-1380D01*
G01*
G75*
G02*
X232750Y321370I-5187J0D01*
G01*
G75*
G02*
X222563Y322750I-5000J1380D01*
G01*
G75*
G02*
X232750Y324130I5187J0D01*
G01*
X388174Y264876D02*
G75*
G02*
X398074I4950J0D01*
G01*
G75*
G02*
X388174I-4950J0D01*
G01*
Y274876D02*
G75*
G02*
X398074I4950J0D01*
G01*
G75*
G02*
X388174I-4950J0D01*
G01*
Y284876D02*
G75*
G02*
X398074I4950J0D01*
G01*
G75*
G02*
X388174I-4950J0D01*
G01*
Y294876D02*
G75*
G02*
X398074I4950J0D01*
G01*
G75*
G02*
X388174I-4950J0D01*
G01*
Y304876D02*
G75*
G02*
X398074I4950J0D01*
G01*
G75*
G02*
X388174I-4950J0D01*
G01*
Y314876D02*
G75*
G02*
X398074I4950J0D01*
G01*
G75*
G02*
X388174I-4950J0D01*
G01*
X428174Y264876D02*
G75*
G02*
X438074I4950J0D01*
G01*
G75*
G02*
X428174I-4950J0D01*
G01*
Y274876D02*
G75*
G02*
X438074I4950J0D01*
G01*
G75*
G02*
X428174I-4950J0D01*
G01*
Y284876D02*
G75*
G02*
X438074I4950J0D01*
G01*
G75*
G02*
X428174I-4950J0D01*
G01*
Y294876D02*
G75*
G02*
X438074I4950J0D01*
G01*
G75*
G02*
X428174I-4950J0D01*
G01*
Y304876D02*
G75*
G02*
X438074I4950J0D01*
G01*
G75*
G02*
X428174I-4950J0D01*
G01*
Y314876D02*
G75*
G02*
X438074I4950J0D01*
G01*
G75*
G02*
X428174I-4950J0D01*
G01*
X490250Y310437D02*
G75*
G02*
X491630Y300250I0J-5187D01*
G01*
G75*
G02*
Y290250I-1380J-5000D01*
G01*
G75*
G02*
Y280250I-1380J-5000D01*
G01*
G75*
G02*
X490250Y270063I-1380J-5000D01*
G01*
G75*
G02*
X488870Y280250I0J5187D01*
G01*
G75*
G02*
Y290250I1380J5000D01*
G01*
G75*
G02*
Y300250I1380J5000D01*
G01*
G75*
G02*
X490250Y310437I1380J5000D01*
G01*
X502563Y22750D02*
G75*
G02*
X512937I5187J0D01*
G01*
G75*
G02*
X502563I-5187J0D01*
G01*
Y337750D02*
G75*
G02*
X512937I5187J0D01*
G01*
G75*
G02*
X502563I-5187J0D01*
G01*
X3000Y22750D02*
G36*
X3000Y22750D02*
Y3000D01*
X530000D01*
Y22750D01*
X512937D01*
G75*
G02*
X502563I-5187J0D01*
G01*
X30437D01*
G75*
G02*
X20063I-5187J0D01*
G01*
X3000D01*
G37*
Y35250D02*
G36*
X3000Y35250D02*
Y22750D01*
X20063D01*
G75*
G02*
X30437I5187J0D01*
G01*
X502563D01*
G75*
G02*
X512937I5187J0D01*
G01*
X530000D01*
Y35250D01*
X295634D01*
G75*
G02*
X285250Y33254I-5384J0D01*
G01*
G75*
G02*
X274866Y35250I-5000J1996D01*
G01*
X265634D01*
G75*
G02*
X254866I-5384J0D01*
G01*
X235634D01*
G75*
G02*
X225250Y33254I-5384J0D01*
G01*
G75*
G02*
X214866Y35250I-5000J1996D01*
G01*
X3000D01*
G37*
Y212750D02*
G36*
X3000Y212750D02*
Y35250D01*
X214866D01*
G75*
G02*
X222234Y40255I5384J0D01*
G01*
X258114Y76135D01*
Y212750D01*
X3000D01*
G37*
X235634Y35250D02*
G36*
X235634Y35250D02*
X254866D01*
G75*
G02*
X265634I5384J0D01*
G01*
X274866D01*
G75*
G02*
X285250Y37246I5384J0D01*
G01*
G75*
G02*
X295634Y35250I5000J-1996D01*
G01*
X530000D01*
Y212750D01*
X495634D01*
G75*
G02*
X484866I-5384J0D01*
G01*
X267386D01*
Y70250D01*
G75*
G02*
X266758Y68737I-2137J1D01*
G01*
X235255Y37234D01*
G75*
G02*
X235634Y35250I-5005J-1985D01*
G01*
G37*
X3000Y225250D02*
G36*
X3000Y225250D02*
Y212750D01*
X258114D01*
Y225250D01*
X235634D01*
G75*
G02*
X224866I-5384J0D01*
G01*
X215634D01*
G75*
G02*
X204866I-5384J0D01*
G01*
X125634D01*
G75*
G02*
X115250Y223254I-5384J0D01*
G01*
G75*
G02*
X104866Y225250I-5000J1996D01*
G01*
X3000D01*
G37*
X267386D02*
G36*
X267386Y225250D02*
Y212750D01*
X484866D01*
G75*
G02*
X495634I5384J0D01*
G01*
X530000D01*
Y225250D01*
X495634D01*
Y225250D01*
G75*
G02*
X485308Y223114I-5384J0D01*
G01*
X292692D01*
G75*
G02*
X282366Y225250I-4942J2135D01*
G01*
Y225250D01*
X267386D01*
G37*
X3000Y264876D02*
G36*
X3000Y264876D02*
Y225250D01*
X104866D01*
G75*
G02*
X112234Y230255I5384J0D01*
G01*
X146856Y264876D01*
X3000D01*
G37*
X125634Y225250D02*
G36*
X125634Y225250D02*
X204866D01*
G75*
G02*
X215634I5384J0D01*
G01*
X224866D01*
G75*
G02*
X235634I5384J0D01*
G01*
X258114D01*
Y245250D01*
G75*
G02*
X258742Y246763I2137J-1D01*
G01*
X276856Y264876D01*
X269643D01*
G75*
G02*
X265250Y262500I-4393J2874D01*
G01*
G75*
G02*
X260857Y264876I0J5250D01*
G01*
X162896D01*
X125255Y227234D01*
G75*
G02*
X125634Y225250I-5005J-1985D01*
G01*
G37*
X267386Y236865D02*
G36*
X267386Y236865D02*
Y225250D01*
X282366D01*
Y225250D01*
G75*
G02*
X292692Y227386I5384J0D01*
G01*
X485308D01*
G75*
G02*
X495634Y225250I4942J-2135D01*
G01*
Y225250D01*
X530000D01*
Y264876D01*
X438074D01*
G75*
G02*
X428174I-4950J0D01*
G01*
X398074D01*
G75*
G02*
X388174I-4950J0D01*
G01*
X295396D01*
X267386Y236865D01*
G37*
X3000Y271433D02*
G36*
X3000Y271433D02*
Y264876D01*
X146856D01*
X153413Y271433D01*
X3000D01*
G37*
X169454D02*
G36*
X169454Y271433D02*
X162896Y264876D01*
X260857D01*
G75*
G02*
X260000Y267750I4393J2874D01*
G01*
G75*
G02*
X261509Y271433I5250J0D01*
G01*
X169454D01*
G37*
X270500Y267750D02*
G36*
X270500Y267750D02*
G75*
G02*
X269643Y264876I-5250J0D01*
G01*
X276856D01*
X283413Y271433D01*
X268991D01*
G75*
G02*
X270500Y267750I-3741J-3683D01*
G01*
G37*
X301954Y271433D02*
G36*
X301954Y271433D02*
X295396Y264876D01*
X388174D01*
G75*
G02*
X398074I4950J0D01*
G01*
X428174D01*
G75*
G02*
X438074I4950J0D01*
G01*
X530000D01*
Y271433D01*
X493762D01*
G75*
G02*
X490250Y270063I-3512J3817D01*
G01*
G75*
G02*
X486738Y271433I0J5187D01*
G01*
X436681D01*
G75*
G02*
X429567I-3557J3443D01*
G01*
X396681D01*
G75*
G02*
X389567I-3557J3443D01*
G01*
X328762D01*
G75*
G02*
X325250Y270063I-3512J3817D01*
G01*
G75*
G02*
X321738Y271433I0J5187D01*
G01*
X301954D01*
G37*
X3000Y284876D02*
G36*
X3000Y284876D02*
Y271433D01*
X153413D01*
X166856Y284876D01*
X3000D01*
G37*
X182896D02*
G36*
X182896Y284876D02*
X169454Y271433D01*
X261509D01*
G75*
G02*
X263649Y272750I3741J-3683D01*
G01*
G75*
G02*
X260000Y277750I1601J5000D01*
G01*
G75*
G02*
X263649Y282750I5250J0D01*
G01*
G75*
G02*
X260857Y284876I1601J5000D01*
G01*
X182896D01*
G37*
X266851Y272750D02*
G36*
X266851Y272750D02*
G75*
G02*
X268991Y271433I-1601J-5000D01*
G01*
X283413D01*
X296856Y284876D01*
X269643D01*
G75*
G02*
X266851Y282750I-4393J2874D01*
G01*
G75*
G02*
X270500Y277750I-1601J-5000D01*
G01*
G75*
G02*
X266851Y272750I-5250J0D01*
G01*
G37*
X303635Y273114D02*
G36*
X303635Y273114D02*
X301954Y271433D01*
X321738D01*
G75*
G02*
X320523Y273114I3513J3817D01*
G01*
X303635D01*
G37*
X330424Y284876D02*
G36*
X330424Y284876D02*
G75*
G02*
X326630Y280250I-5174J374D01*
G01*
G75*
G02*
X330437Y275250I-1380J-5000D01*
G01*
G75*
G02*
X328762Y271433I-5187J0D01*
G01*
X389567D01*
G75*
G02*
X388174Y274876I3557J3443D01*
G01*
G75*
G02*
X398074I4950J0D01*
G01*
G75*
G02*
X396681Y271433I-4950J0D01*
G01*
X429567D01*
G75*
G02*
X428174Y274876I3557J3443D01*
G01*
G75*
G02*
X438074I4950J0D01*
G01*
G75*
G02*
X436681Y271433I-4950J0D01*
G01*
X486738D01*
G75*
G02*
X485063Y275250I3512J3817D01*
G01*
G75*
G02*
X488870Y280250I5187J0D01*
G01*
G75*
G02*
X485076Y284876I1380J5000D01*
G01*
X438074D01*
G75*
G02*
X428174I-4950J0D01*
G01*
X398074D01*
G75*
G02*
X388174I-4950J0D01*
G01*
X330424D01*
G37*
X495424D02*
G36*
X495424Y284876D02*
G75*
G02*
X491630Y280250I-5174J374D01*
G01*
G75*
G02*
X495437Y275250I-1380J-5000D01*
G01*
G75*
G02*
X493762Y271433I-5187J0D01*
G01*
X530000D01*
Y284876D01*
X495424D01*
G37*
X3000Y294876D02*
G36*
X3000Y294876D02*
Y284876D01*
X166856D01*
X176856Y294876D01*
X3000D01*
G37*
X192896D02*
G36*
X192896Y294876D02*
X182896Y284876D01*
X260857D01*
G75*
G02*
X260000Y287750I4394J2874D01*
G01*
G75*
G02*
X263649Y292750I5250J0D01*
G01*
G75*
G02*
X260856Y294876I1600J5000D01*
G01*
X192896D01*
G37*
X269643D02*
G36*
X269643Y294876D02*
G75*
G02*
X266851Y292750I-4393J2874D01*
G01*
G75*
G02*
X270500Y287750I-1601J-5000D01*
G01*
G75*
G02*
X269643Y284876I-5250J0D01*
G01*
X296856D01*
X298737Y286758D01*
G75*
G02*
X300250Y287386I1513J-1509D01*
G01*
X320523D01*
G75*
G02*
X323870Y290250I4725J-2134D01*
G01*
G75*
G02*
X320076Y294876I1380J5000D01*
G01*
X269643D01*
G37*
X330424D02*
G36*
X330424Y294876D02*
G75*
G02*
X326630Y290250I-5174J374D01*
G01*
G75*
G02*
X330437Y285250I-1380J-5000D01*
G01*
G75*
G02*
X330424Y284876I-5188J-2D01*
G01*
X388174D01*
G75*
G02*
X398074I4950J0D01*
G01*
X428174D01*
G75*
G02*
X438074I4950J0D01*
G01*
X485076D01*
G75*
G02*
X485063Y285250I5175J372D01*
G01*
G75*
G02*
X488870Y290250I5187J0D01*
G01*
G75*
G02*
X485076Y294876I1380J5000D01*
G01*
X438074D01*
G75*
G02*
X428174I-4950J0D01*
G01*
X398074D01*
G75*
G02*
X388174I-4950J0D01*
G01*
X330424D01*
G37*
X495424D02*
G36*
X495424Y294876D02*
G75*
G02*
X491630Y290250I-5174J374D01*
G01*
G75*
G02*
X495437Y285250I-1380J-5000D01*
G01*
G75*
G02*
X495424Y284876I-5188J-2D01*
G01*
X530000D01*
Y294876D01*
X495424D01*
G37*
X3000Y304876D02*
G36*
X3000Y304876D02*
Y294876D01*
X176856D01*
X186856Y304876D01*
X3000D01*
G37*
X193635Y295614D02*
G36*
X193635Y295614D02*
X192896Y294876D01*
X260856D01*
G75*
G02*
X260454Y295614I4393J2873D01*
G01*
X193635D01*
G37*
X269643Y304876D02*
G36*
X269643Y304876D02*
G75*
G02*
X266851Y302750I-4393J2874D01*
G01*
G75*
G02*
X270500Y297750I-1601J-5000D01*
G01*
G75*
G02*
X269643Y294876I-5250J0D01*
G01*
X320076D01*
G75*
G02*
X320063Y295250I5175J372D01*
G01*
G75*
G02*
X323870Y300250I5187J0D01*
G01*
G75*
G02*
X320076Y304876I1380J5000D01*
G01*
X269643D01*
G37*
X330424D02*
G36*
X330424Y304876D02*
G75*
G02*
X326630Y300250I-5174J374D01*
G01*
G75*
G02*
X330437Y295250I-1380J-5000D01*
G01*
G75*
G02*
X330424Y294876I-5188J-2D01*
G01*
X388174D01*
G75*
G02*
X398074I4950J0D01*
G01*
X428174D01*
G75*
G02*
X438074I4950J0D01*
G01*
X485076D01*
G75*
G02*
X485063Y295250I5175J372D01*
G01*
G75*
G02*
X488870Y300250I5187J0D01*
G01*
G75*
G02*
X485076Y304876I1380J5000D01*
G01*
X438074D01*
G75*
G02*
X428174I-4950J0D01*
G01*
X398074D01*
G75*
G02*
X388174I-4950J0D01*
G01*
X330424D01*
G37*
X495424D02*
G36*
X495424Y304876D02*
G75*
G02*
X491630Y300250I-5174J374D01*
G01*
G75*
G02*
X495437Y295250I-1380J-5000D01*
G01*
G75*
G02*
X495424Y294876I-5188J-2D01*
G01*
X530000D01*
Y304876D01*
X495424D01*
G37*
X3000Y314876D02*
G36*
X3000Y314876D02*
Y304876D01*
X186856D01*
X191237Y309258D01*
G75*
G02*
X192750Y309886I1513J-1509D01*
G01*
X260454D01*
G75*
G02*
X263649Y312750I4798J-2138D01*
G01*
G75*
G02*
X260857Y314876I1601J5000D01*
G01*
X3000D01*
G37*
X269643D02*
G36*
X269643Y314876D02*
G75*
G02*
X266851Y312750I-4393J2874D01*
G01*
G75*
G02*
X270500Y307750I-1601J-5000D01*
G01*
G75*
G02*
X269643Y304876I-5250J0D01*
G01*
X320076D01*
G75*
G02*
X320063Y305250I5174J372D01*
G01*
G75*
G02*
X325250Y310437I5187J0D01*
G01*
G75*
G02*
X330437Y305250I0J-5187D01*
G01*
G75*
G02*
X330424Y304876I-5187J-2D01*
G01*
X388174D01*
G75*
G02*
X398074I4950J0D01*
G01*
X428174D01*
G75*
G02*
X438074I4950J0D01*
G01*
X485076D01*
G75*
G02*
X485063Y305250I5174J372D01*
G01*
G75*
G02*
X490250Y310437I5187J0D01*
G01*
G75*
G02*
X495437Y305250I0J-5187D01*
G01*
G75*
G02*
X495424Y304876I-5187J-2D01*
G01*
X530000D01*
Y314876D01*
X438074D01*
G75*
G02*
X428174I-4950J0D01*
G01*
X398074D01*
G75*
G02*
X388174I-4950J0D01*
G01*
X269643D01*
G37*
X3000Y322750D02*
G36*
X3000Y322750D02*
Y314876D01*
X260857D01*
G75*
G02*
X260000Y317750I4394J2874D01*
G01*
G75*
G02*
X263649Y322750I5250J0D01*
G01*
X242937D01*
G75*
G02*
X232750Y321370I-5187J0D01*
G01*
G75*
G02*
X222563Y322750I-5000J1380D01*
G01*
X3000D01*
G37*
X270500Y317750D02*
G36*
X270500Y317750D02*
G75*
G02*
X269643Y314876I-5250J0D01*
G01*
X388174D01*
G75*
G02*
X398074I4950J0D01*
G01*
X428174D01*
G75*
G02*
X438074I4950J0D01*
G01*
X530000D01*
Y322750D01*
X266851D01*
G75*
G02*
X270500Y317750I-1601J-5000D01*
G01*
G37*
X3000Y337750D02*
G36*
X3000Y337750D02*
Y322750D01*
X222563D01*
G75*
G02*
X232750Y324130I5187J0D01*
G01*
G75*
G02*
X242937Y322750I5000J-1380D01*
G01*
X263649D01*
G75*
G02*
X265250Y323000I1601J-5000D01*
G01*
G75*
G02*
X266851Y322750I0J-5250D01*
G01*
X530000D01*
Y337750D01*
X512937D01*
G75*
G02*
X502563I-5187J0D01*
G01*
X30437D01*
G75*
G02*
X20063I-5187J0D01*
G01*
X3000D01*
G37*
Y360000D02*
G36*
X3000Y360000D02*
Y337750D01*
X20063D01*
G75*
G02*
X30437I5187J0D01*
G01*
X502563D01*
G75*
G02*
X512937I5187J0D01*
G01*
X530000D01*
Y360000D01*
X3000D01*
G37*
D02*
D11*
X256616Y35250D02*
X254616D01*
X260250Y31616D02*
Y29616D01*
Y38884D02*
Y40884D01*
X262775Y275275D02*
X261361Y273861D01*
X262775Y280225D02*
X261361Y281639D01*
X263884Y35250D02*
X265884D01*
X267725Y275275D02*
X269139Y273861D01*
X267725Y280225D02*
X269139Y281639D01*
X322820Y302820D02*
X321406Y301406D01*
X322820Y307680D02*
X321406Y309094D01*
X327680Y302820D02*
X329094Y301406D01*
X327680Y307680D02*
X329094Y309094D01*
X390861Y282613D02*
X389447Y281199D01*
X390861Y287139D02*
X389447Y288553D01*
X395387Y282613D02*
X396801Y281199D01*
X395387Y287139D02*
X396801Y288553D01*
X430861Y282613D02*
X429447Y281199D01*
X430861Y287139D02*
X429447Y288553D01*
X435387Y282613D02*
X436801Y281199D01*
X435387Y287139D02*
X436801Y288553D01*
X486616Y212750D02*
X484616D01*
X487820Y282820D02*
X486406Y281406D01*
X487820Y287680D02*
X486406Y289094D01*
X490250Y209116D02*
Y207116D01*
Y216384D02*
Y218384D01*
X492680Y282820D02*
X494094Y281406D01*
X492680Y287680D02*
X494094Y289094D01*
X493884Y212750D02*
X495884D01*
D02*
D12*
X110250Y225250D02*
X192750Y307750D01*
X265250D01*
X120250Y225250D02*
X192750Y297750D01*
X265250D01*
X287750Y225250D02*
X490250D01*
X325250Y275250D02*
X302750D01*
X265250Y237750D01*
Y70250D01*
X230250Y35250D01*
X325250Y285250D02*
X300250D01*
X260250Y245250D01*
Y75250D01*
X220250Y35250D01*
D02*
D13*
X25250Y22750D03*
Y337750D03*
X227750Y322750D03*
X237750D03*
X325250Y275250D03*
Y285250D03*
Y295250D03*
Y305250D03*
X490250Y275250D03*
Y285250D03*
Y295250D03*
Y305250D03*
X507750Y22750D03*
Y337750D03*
D02*
D14*
X110250Y225250D03*
X120250D03*
X210250D03*
X220250Y35250D03*
X230250D03*
Y225250D03*
X260250Y35250D03*
X280250D03*
X287750Y225250D03*
X290250Y35250D03*
X490250Y212750D03*
Y225250D03*
D02*
D15*
X393124Y264876D03*
Y274876D03*
Y284876D03*
Y294876D03*
Y304876D03*
Y314876D03*
X433124Y264876D03*
Y274876D03*
Y284876D03*
Y294876D03*
Y304876D03*
Y314876D03*
D02*
D16*
X265250Y267750D03*
Y277750D03*
Y287750D03*
Y297750D03*
Y307750D03*
Y317750D03*
X0Y0D02*
M02*
