G04 DesignSpark PCB Gerber Version 10.0 Build 5299*
G04 #@! TF.Part,Single*
G04 #@! TF.FileFunction,Copper,L2,Bot*
G04 #@! TF.FilePolarity,Positive*
%FSLAX35Y35*%
%MOIN*%
%ADD10C,0.00500*%
%ADD11C,0.01000*%
%ADD12C,0.01772*%
G04 #@! TA.AperFunction,ComponentPad*
%ADD15C,0.07400*%
G04 #@! TA.AperFunction,WasherPad*
%ADD13C,0.07874*%
G04 #@! TA.AperFunction,ComponentPad*
%ADD16C,0.08000*%
G04 #@! TA.AperFunction,WasherPad*
%ADD14C,0.08268*%
G04 #@! TD.AperFunction*
X0Y0D02*
D02*
D10*
X232750Y300250D02*
Y240250D01*
X287750D01*
Y40018D01*
G75*
G02*
X295634Y35250I2500J-4768D01*
G01*
G75*
G02*
X287750Y30482I-5384J0D01*
G01*
Y27750D01*
X300250D01*
Y240250D01*
X402750D01*
Y300250D01*
X394885D01*
G75*
G02*
X391363I-1761J4626D01*
G01*
X370770D01*
X389364Y281656D01*
G75*
G02*
X393124Y289826I3760J3220D01*
G01*
G75*
G02*
Y279926I0J-4950D01*
G01*
G75*
G02*
X389904Y281116I0J4950D01*
G01*
X391477Y279544D01*
G75*
G02*
X398074Y274876I1647J-4668D01*
G01*
G75*
G02*
X388174I-4950J0D01*
G01*
G75*
G02*
X388456Y276523I4950J0D01*
G01*
X364730Y300250D01*
X326630D01*
G75*
G02*
Y290250I-1380J-5000D01*
G01*
G75*
G02*
Y280250I-1380J-5000D01*
G01*
G75*
G02*
X325250Y270063I-1380J-5000D01*
G01*
G75*
G02*
X323870Y280250I0J5187D01*
G01*
G75*
G02*
Y290250I1380J5000D01*
G01*
G75*
G02*
Y300250I1380J5000D01*
G01*
X277750D01*
Y335614D01*
X270194D01*
X232750Y300250D01*
X388174Y294876D02*
G75*
G02*
X398074I4950J0D01*
G01*
G75*
G02*
X388174I-4950J0D01*
G01*
Y264876D02*
G75*
G02*
X398074I4950J0D01*
G01*
G75*
G02*
X388174I-4950J0D01*
G01*
X265250Y323000D02*
G75*
G02*
X266851Y312750I0J-5250D01*
G01*
G75*
G02*
Y302750I-1601J-5000D01*
G01*
G75*
G02*
Y292750I-1601J-5000D01*
G01*
G75*
G02*
Y282750I-1601J-5000D01*
G01*
G75*
G02*
Y272750I-1601J-5000D01*
G01*
G75*
G02*
X265250Y262500I-1601J-5000D01*
G01*
G75*
G02*
X263649Y272750I0J5250D01*
G01*
G75*
G02*
Y282750I1601J5000D01*
G01*
G75*
G02*
Y292750I1601J5000D01*
G01*
G75*
G02*
Y302750I1601J5000D01*
G01*
G75*
G02*
Y312750I1601J5000D01*
G01*
G75*
G02*
X265250Y323000I1601J5000D01*
G01*
X233000Y264876D02*
G36*
X233000Y264876D02*
Y240250D01*
X287750D01*
Y40018D01*
G75*
G02*
X295634Y35250I2500J-4768D01*
G01*
G75*
G02*
X287750Y30482I-5384J0D01*
G01*
Y28000D01*
X300250D01*
Y240250D01*
X402500D01*
Y264876D01*
X398074D01*
G75*
G02*
X388174I-4950J0D01*
G01*
X269643D01*
G75*
G02*
X265250Y262500I-4393J2874D01*
G01*
G75*
G02*
X260857Y264876I0J5250D01*
G01*
X233000D01*
G37*
Y294876D02*
G36*
X233000Y294876D02*
Y264876D01*
X260857D01*
G75*
G02*
X260000Y267750I4393J2874D01*
G01*
G75*
G02*
X263649Y272750I5250J0D01*
G01*
G75*
G02*
X260000Y277750I1601J5000D01*
G01*
G75*
G02*
X263649Y282750I5250J0D01*
G01*
G75*
G02*
X260000Y287750I1601J5000D01*
G01*
G75*
G02*
X263649Y292750I5250J0D01*
G01*
G75*
G02*
X260857Y294876I1601J5000D01*
G01*
X233000D01*
G37*
X269643D02*
G36*
X269643Y294876D02*
G75*
G02*
X266851Y292750I-4393J2874D01*
G01*
G75*
G02*
X270500Y287750I-1601J-5000D01*
G01*
G75*
G02*
X266851Y282750I-5250J0D01*
G01*
G75*
G02*
X270500Y277750I-1601J-5000D01*
G01*
G75*
G02*
X266851Y272750I-5250J0D01*
G01*
G75*
G02*
X270500Y267750I-1601J-5000D01*
G01*
G75*
G02*
X269643Y264876I-5250J0D01*
G01*
X388174D01*
G75*
G02*
X398074I4950J0D01*
G01*
X402500D01*
Y294876D01*
X398074D01*
G75*
G02*
X388174I-4950J0D01*
G01*
X376144D01*
X389364Y281656D01*
G75*
G02*
X388174Y284876I3760J3220D01*
G01*
G75*
G02*
X393124Y289826I4950J0D01*
G01*
G75*
G02*
X398074Y284876I0J-4950D01*
G01*
G75*
G02*
X393124Y279926I-4950J0D01*
G01*
G75*
G02*
X389904Y281116I0J4951D01*
G01*
X391477Y279544D01*
G75*
G02*
X398074Y274876I1647J-4668D01*
G01*
G75*
G02*
X388174I-4950J0D01*
G01*
G75*
G02*
X388456Y276523I4962J-2D01*
G01*
X370104Y294876D01*
X330424D01*
G75*
G02*
X326630Y290250I-5174J374D01*
G01*
G75*
G02*
X330437Y285250I-1380J-5000D01*
G01*
G75*
G02*
X326630Y280250I-5187J0D01*
G01*
G75*
G02*
X330437Y275250I-1380J-5000D01*
G01*
G75*
G02*
X325250Y270063I-5187J0D01*
G01*
G75*
G02*
X320063Y275250I0J5187D01*
G01*
G75*
G02*
X323870Y280250I5187J0D01*
G01*
G75*
G02*
X320063Y285250I1380J5000D01*
G01*
G75*
G02*
X323870Y290250I5187J0D01*
G01*
G75*
G02*
X320076Y294876I1380J5000D01*
G01*
X269643D01*
G37*
X233000Y300486D02*
G36*
X233000Y300486D02*
Y294876D01*
X260857D01*
G75*
G02*
X260000Y297750I4394J2874D01*
G01*
G75*
G02*
X263649Y302750I5250J0D01*
G01*
G75*
G02*
X260000Y307750I1601J5000D01*
G01*
G75*
G02*
X263649Y312750I5250J0D01*
G01*
G75*
G02*
X260000Y317750I1601J5000D01*
G01*
G75*
G02*
X265250Y323000I5250J0D01*
G01*
G75*
G02*
X270500Y317750I0J-5250D01*
G01*
G75*
G02*
X266851Y312750I-5250J0D01*
G01*
G75*
G02*
X270500Y307750I-1601J-5000D01*
G01*
G75*
G02*
X266851Y302750I-5250J0D01*
G01*
G75*
G02*
X270500Y297750I-1601J-5000D01*
G01*
G75*
G02*
X269643Y294876I-5250J0D01*
G01*
X320076D01*
G75*
G02*
X320063Y295250I5175J372D01*
G01*
G75*
G02*
X323870Y300250I5187J0D01*
G01*
X277750D01*
Y335364D01*
X269930D01*
X233000Y300486D01*
G37*
X330437Y295250D02*
G36*
X330437Y295250D02*
G75*
G02*
X330424Y294876I-5188J-2D01*
G01*
X370104D01*
X364730Y300250D01*
X326630D01*
G75*
G02*
X330437Y295250I-1380J-5000D01*
G01*
G37*
X370770Y300250D02*
G36*
X370770Y300250D02*
X376144Y294876D01*
X388174D01*
G75*
G02*
X398074I4950J0D01*
G01*
X402500D01*
Y300250D01*
X394885D01*
G75*
G02*
X391363I-1761J4626D01*
G01*
X370770D01*
G37*
X272750Y47750D02*
Y2750D01*
X530250D01*
Y300250D01*
X491630D01*
G75*
G02*
Y290250I-1380J-5000D01*
G01*
G75*
G02*
Y280250I-1380J-5000D01*
G01*
G75*
G02*
X490250Y270063I-1380J-5000D01*
G01*
G75*
G02*
X485711Y272740I0J5187D01*
G01*
X437589D01*
G75*
G02*
X428174Y274876I-4465J2136D01*
G01*
G75*
G02*
X437589Y277012I4950J0D01*
G01*
X485371D01*
G75*
G02*
X488870Y280250I4879J-1762D01*
G01*
G75*
G02*
Y290250I1380J5000D01*
G01*
G75*
G02*
Y300250I1380J5000D01*
G01*
X434885D01*
G75*
G02*
X431363I-1761J4626D01*
G01*
X415250D01*
Y17750D01*
X282750D01*
Y30482D01*
G75*
G02*
X274866Y35250I-2500J4768D01*
G01*
G75*
G02*
X282750Y40018I5384J0D01*
G01*
Y47750D01*
X272750D01*
X502563Y22750D02*
G75*
G02*
X512937I5187J0D01*
G01*
G75*
G02*
X502563I-5187J0D01*
G01*
X428174Y264876D02*
G75*
G02*
X438074I4950J0D01*
G01*
G75*
G02*
X428174I-4950J0D01*
G01*
Y284876D02*
G75*
G02*
X438074I4950J0D01*
G01*
G75*
G02*
X428174I-4950J0D01*
G01*
Y294876D02*
G75*
G02*
X438074I4950J0D01*
G01*
G75*
G02*
X428174I-4950J0D01*
G01*
X273000Y22750D02*
G36*
X273000Y22750D02*
Y3000D01*
X530000D01*
Y22750D01*
X512937D01*
G75*
G02*
X502563I-5187J0D01*
G01*
X415250D01*
Y17750D01*
X282750D01*
Y22750D01*
X273000D01*
G37*
Y47750D02*
G36*
X273000Y47750D02*
Y22750D01*
X282750D01*
Y30482D01*
G75*
G02*
X274866Y35250I-2500J4768D01*
G01*
G75*
G02*
X282750Y40018I5384J0D01*
G01*
Y47750D01*
X273000D01*
G37*
X415250Y264876D02*
G36*
X415250Y264876D02*
Y22750D01*
X502563D01*
G75*
G02*
X512937I5187J0D01*
G01*
X530000D01*
Y264876D01*
X438074D01*
G75*
G02*
X428174I-4950J0D01*
G01*
X415250D01*
G37*
Y284876D02*
G36*
X415250Y284876D02*
Y264876D01*
X428174D01*
G75*
G02*
X438074I4950J0D01*
G01*
X530000D01*
Y284876D01*
X495424D01*
G75*
G02*
X491630Y280250I-5174J374D01*
G01*
G75*
G02*
X495437Y275250I-1380J-5000D01*
G01*
G75*
G02*
X490250Y270063I-5187J0D01*
G01*
G75*
G02*
X485711Y272740I0J5188D01*
G01*
X437589D01*
G75*
G02*
X428174Y274876I-4465J2136D01*
G01*
G75*
G02*
X437589Y277012I4950J0D01*
G01*
X485371D01*
G75*
G02*
X488870Y280250I4878J-1761D01*
G01*
G75*
G02*
X485076Y284876I1380J5000D01*
G01*
X438074D01*
G75*
G02*
X428174I-4950J0D01*
G01*
X415250D01*
G37*
Y294876D02*
G36*
X415250Y294876D02*
Y284876D01*
X428174D01*
G75*
G02*
X438074I4950J0D01*
G01*
X485076D01*
G75*
G02*
X485063Y285250I5175J372D01*
G01*
G75*
G02*
X488870Y290250I5187J0D01*
G01*
G75*
G02*
X485076Y294876I1380J5000D01*
G01*
X438074D01*
G75*
G02*
X428174I-4950J0D01*
G01*
X415250D01*
G37*
X495424D02*
G36*
X495424Y294876D02*
G75*
G02*
X491630Y290250I-5174J374D01*
G01*
G75*
G02*
X495437Y285250I-1380J-5000D01*
G01*
G75*
G02*
X495424Y284876I-5188J-2D01*
G01*
X530000D01*
Y294876D01*
X495424D01*
G37*
X415250Y300000D02*
G36*
X415250Y300000D02*
Y294876D01*
X428174D01*
G75*
G02*
X438074I4950J0D01*
G01*
X485076D01*
G75*
G02*
X485063Y295250I5175J372D01*
G01*
G75*
G02*
X488166Y300000I5187J0D01*
G01*
X433977D01*
G75*
G02*
X432271I-853J4876D01*
G01*
X415250D01*
G37*
X495437Y295250D02*
G36*
X495437Y295250D02*
G75*
G02*
X495424Y294876I-5188J-2D01*
G01*
X530000D01*
Y300000D01*
X492334D01*
G75*
G02*
X495437Y295250I-2084J-4750D01*
G01*
G37*
D02*
D11*
X262775Y265275D02*
X261361Y263861D01*
X262775Y270225D02*
X261361Y271639D01*
X267725Y265275D02*
X269139Y263861D01*
X267725Y270225D02*
X269139Y271639D01*
X276616Y35250D02*
X274616D01*
X280250Y31616D02*
Y29616D01*
Y38884D02*
Y40884D01*
X290250Y31616D02*
Y29616D01*
Y38884D02*
Y40884D01*
X293884Y35250D02*
X295884D01*
X322820Y292820D02*
X321406Y291406D01*
X322820Y297680D02*
X321406Y299094D01*
X327680Y292820D02*
X329094Y291406D01*
X327680Y297680D02*
X329094Y299094D01*
X390861Y292613D02*
X389447Y291199D01*
X390861Y297139D02*
X389447Y298553D01*
X395387Y292613D02*
X396801Y291199D01*
X395387Y297139D02*
X396801Y298553D01*
X430861Y292613D02*
X429447Y291199D01*
X430861Y297139D02*
X429447Y298553D01*
X435387Y292613D02*
X436801Y291199D01*
X435387Y297139D02*
X436801Y298553D01*
X487820Y292820D02*
X486406Y291406D01*
X487820Y297680D02*
X486406Y299094D01*
X492680Y292820D02*
X494094Y291406D01*
X492680Y297680D02*
X494094Y299094D01*
D02*
D12*
X210250Y225250D02*
X190250D01*
Y310250D01*
X227750Y347750D01*
X350250D01*
X393124Y304876D01*
X230250Y225250D02*
Y232750D01*
X210250Y252750D01*
Y315250D01*
X232750Y337750D01*
X340250D01*
Y327750D01*
X393124Y274876D01*
X433124D02*
X489876D01*
X490250Y275250D01*
X433124Y304876D02*
X489876D01*
X490250Y305250D01*
D02*
D13*
X25250Y22750D03*
Y337750D03*
X227750Y322750D03*
X237750D03*
X325250Y275250D03*
Y285250D03*
Y295250D03*
Y305250D03*
X490250Y275250D03*
Y285250D03*
Y295250D03*
Y305250D03*
X507750Y22750D03*
Y337750D03*
D02*
D14*
X110250Y225250D03*
X120250D03*
X210250D03*
X220250Y35250D03*
X230250D03*
Y225250D03*
X260250Y35250D03*
X280250D03*
X290250D03*
D02*
D15*
X393124Y264876D03*
Y274876D03*
Y284876D03*
Y294876D03*
Y304876D03*
Y314876D03*
X433124Y264876D03*
Y274876D03*
Y284876D03*
Y294876D03*
Y304876D03*
Y314876D03*
D02*
D16*
X265250Y267750D03*
Y277750D03*
Y287750D03*
Y297750D03*
Y307750D03*
Y317750D03*
X0Y0D02*
M02*
