G04 DesignSpark PCB Gerber Version 10.0 Build 5299*
G04 #@! TF.Part,Single*
G04 #@! TF.FileFunction,Copper,L2,Bot*
G04 #@! TF.FilePolarity,Positive*
%FSLAX35Y35*%
%MOIN*%
%ADD10C,0.00500*%
%ADD26C,0.02559*%
%ADD27C,0.03937*%
G04 #@! TA.AperFunction,WasherPad*
%ADD13C,0.07874*%
%ADD14C,0.08268*%
G04 #@! TD.AperFunction*
X0Y0D02*
D02*
D10*
X245250Y450250D02*
Y390250D01*
X331673D01*
X340065Y398642D01*
G75*
G02*
X339035Y402750I7686J4108D01*
G01*
G75*
G02*
X356465I8715J0D01*
G01*
G75*
G02*
X343642Y395065I-8715J0D01*
G01*
X338827Y390250D01*
X372750D01*
Y332750D01*
X412750D01*
Y257750D01*
X320250D01*
Y140250D01*
X457750D01*
Y365250D01*
X405250D01*
Y485250D01*
X396858D01*
G75*
G02*
X400261Y472376I-3734J-7874D01*
G01*
G75*
G02*
X397809Y460028I-7137J-5000D01*
G01*
G75*
G02*
Y454724I-4685J-2652D01*
G01*
G75*
G02*
X400261Y442376I-4685J-7348D01*
G01*
G75*
G02*
Y432376I-7137J-5000D01*
G01*
G75*
G02*
X393124Y418661I-7137J-5000D01*
G01*
G75*
G02*
X385987Y432376I0J8715D01*
G01*
G75*
G02*
Y442376I7137J5000D01*
G01*
G75*
G02*
X388439Y454724I7137J5000D01*
G01*
G75*
G02*
Y460028I4685J2652D01*
G01*
G75*
G02*
X385987Y472376I4685J7348D01*
G01*
G75*
G02*
X389390Y485250I7137J5000D01*
G01*
X305280D01*
Y460280D01*
X317117D01*
G75*
G02*
X320832Y465032I8133J-2530D01*
G01*
G75*
G02*
X325250Y472937I4418J2718D01*
G01*
G75*
G02*
X329668Y465032I0J-5187D01*
G01*
G75*
G02*
X332146Y452750I-4418J-7282D01*
G01*
G75*
G02*
Y442750I-6896J-5000D01*
G01*
G75*
G02*
X325250Y429232I-6896J-5000D01*
G01*
G75*
G02*
X318354Y442750I0J8518D01*
G01*
G75*
G02*
X317117Y445220I6896J5000D01*
G01*
X292750D01*
G75*
G02*
X290960Y445963I0J2530D01*
G01*
X288463Y448460D01*
G75*
G02*
X287720Y450250I1787J1790D01*
G01*
X273965D01*
G75*
G02*
X272387Y445250I-8715J0D01*
G01*
G75*
G02*
X269935Y432902I-7137J-5000D01*
G01*
G75*
G02*
X265250Y424866I-4685J-2652D01*
G01*
G75*
G02*
X260565Y432902I0J5384D01*
G01*
G75*
G02*
X258113Y445250I4685J7348D01*
G01*
G75*
G02*
X256535Y450250I7137J5000D01*
G01*
X245250D01*
X324866Y155250D02*
G75*
G02*
X335634I5384J0D01*
G01*
G75*
G02*
X324866I-5384J0D01*
G01*
X320250D02*
G36*
X320250Y155250D02*
Y140500D01*
X457500D01*
Y155250D01*
X335634D01*
G75*
G02*
X324866I-5384J0D01*
G01*
X320250D01*
G37*
X245500Y450250D02*
G36*
X245500Y450250D02*
Y390250D01*
X331673D01*
X340065Y398642D01*
G75*
G02*
X339035Y402748I7679J4107D01*
G01*
G75*
G02*
Y402750I9023J1D01*
G01*
G75*
G02*
X356465I8715J0D01*
G01*
G75*
G02*
X343642Y395065I-8715J0D01*
G01*
X338827Y390250D01*
X372750D01*
Y332750D01*
X412750D01*
Y257750D01*
X320250D01*
Y155250D01*
X324866D01*
G75*
G02*
X335634I5384J0D01*
G01*
X457500D01*
Y365250D01*
X405250D01*
Y485000D01*
X397345D01*
G75*
G02*
X401839Y477376I-4221J-7624D01*
G01*
G75*
G02*
X400261Y472376I-8715J0D01*
G01*
G75*
G02*
X401839Y467376I-7137J-5000D01*
G01*
G75*
G02*
X397809Y460028I-8715J0D01*
G01*
G75*
G02*
X398508Y457376I-4686J-2652D01*
G01*
G75*
G02*
X397809Y454724I-5384J0D01*
G01*
G75*
G02*
X401839Y447376I-4686J-7348D01*
G01*
G75*
G02*
X400261Y442376I-8715J0D01*
G01*
G75*
G02*
X401839Y437376I-7137J-5000D01*
G01*
G75*
G02*
X400261Y432376I-8715J0D01*
G01*
G75*
G02*
X401839Y427376I-7137J-5000D01*
G01*
G75*
G02*
X393124Y418661I-8715J0D01*
G01*
G75*
G02*
X384409Y427376I0J8715D01*
G01*
G75*
G02*
X385987Y432376I8715J0D01*
G01*
G75*
G02*
X384409Y437376I7137J5000D01*
G01*
G75*
G02*
X385987Y442376I8715J0D01*
G01*
G75*
G02*
X384409Y447376I7137J5000D01*
G01*
G75*
G02*
X388439Y454724I8715J0D01*
G01*
G75*
G02*
X387740Y457376I4686J2652D01*
G01*
G75*
G02*
X388439Y460028I5384J0D01*
G01*
G75*
G02*
X384409Y467376I4686J7348D01*
G01*
G75*
G02*
X385987Y472376I8715J0D01*
G01*
G75*
G02*
X384409Y477376I7137J5000D01*
G01*
G75*
G02*
X388903Y485000I8715J0D01*
G01*
X305280D01*
Y460280D01*
X317117D01*
G75*
G02*
X320832Y465032I8135J-2531D01*
G01*
G75*
G02*
X320063Y467750I4418J2717D01*
G01*
G75*
G02*
X325250Y472937I5187J0D01*
G01*
G75*
G02*
X330437Y467750I0J-5187D01*
G01*
G75*
G02*
X329668Y465032I-5187J0D01*
G01*
G75*
G02*
X333768Y457750I-4418J-7282D01*
G01*
G75*
G02*
X332146Y452750I-8517J0D01*
G01*
G75*
G02*
X333768Y447750I-6895J-5000D01*
G01*
G75*
G02*
X332146Y442750I-8517J0D01*
G01*
G75*
G02*
X333768Y437750I-6896J-5000D01*
G01*
G75*
G02*
X325250Y429232I-8518J0D01*
G01*
G75*
G02*
X316732Y437750I0J8518D01*
G01*
G75*
G02*
X318354Y442750I8518J0D01*
G01*
G75*
G02*
X317117Y445220I6898J5001D01*
G01*
X292750D01*
G75*
G02*
X290960Y445963I0J2529D01*
G01*
X288463Y448460D01*
G75*
G02*
X287720Y450250I1787J1790D01*
G01*
X273965D01*
Y450250D01*
G75*
G02*
X272387Y445250I-8713J0D01*
G01*
G75*
G02*
X273965Y440250I-7137J-5000D01*
G01*
G75*
G02*
X269935Y432902I-8715J0D01*
G01*
G75*
G02*
X270634Y430250I-4685J-2652D01*
G01*
G75*
G02*
X265250Y424866I-5384J0D01*
G01*
G75*
G02*
X259866Y430250I0J5384D01*
G01*
G75*
G02*
X260565Y432902I5383J0D01*
G01*
G75*
G02*
X256535Y440250I4686J7348D01*
G01*
G75*
G02*
X258113Y445250I8715J0D01*
G01*
G75*
G02*
X256535Y450250I7136J5000D01*
G01*
Y450250D01*
X245500D01*
G37*
X310250Y110250D02*
Y50250D01*
X532750D01*
Y485250D01*
X436858D01*
G75*
G02*
X440261Y472376I-3734J-7874D01*
G01*
G75*
G02*
X441463Y469906I-7138J-5000D01*
G01*
X455250D01*
G75*
G02*
X457780Y467376I0J-2530D01*
G01*
Y460280D01*
X482117D01*
G75*
G02*
X485832Y465032I8133J-2530D01*
G01*
G75*
G02*
X490250Y472937I4418J2718D01*
G01*
G75*
G02*
X494668Y465032I0J-5187D01*
G01*
G75*
G02*
X497146Y452750I-4418J-7282D01*
G01*
G75*
G02*
Y442750I-6896J-5000D01*
G01*
G75*
G02*
X490250Y429232I-6896J-5000D01*
G01*
G75*
G02*
X483354Y442750I0J8518D01*
G01*
G75*
G02*
Y452750I6896J5000D01*
G01*
G75*
G02*
X482117Y455220I6896J5000D01*
G01*
X455250D01*
G75*
G02*
X452720Y457750I0J2530D01*
G01*
Y464846D01*
X441463D01*
G75*
G02*
X437809Y460028I-8340J2530D01*
G01*
G75*
G02*
Y454724I-4685J-2652D01*
G01*
G75*
G02*
X440261Y442376I-4685J-7348D01*
G01*
G75*
G02*
Y432376I-7137J-5000D01*
G01*
G75*
G02*
X433124Y418661I-7137J-5000D01*
G01*
G75*
G02*
X425987Y432376I0J8715D01*
G01*
G75*
G02*
Y442376I7137J5000D01*
G01*
G75*
G02*
X428439Y454724I7137J5000D01*
G01*
G75*
G02*
Y460028I4685J2652D01*
G01*
G75*
G02*
X425987Y472376I4685J7348D01*
G01*
G75*
G02*
X429390Y485250I7137J5000D01*
G01*
X420250D01*
Y385250D01*
X500250D01*
Y110250D01*
X310250D01*
X314866Y82750D02*
G75*
G02*
X325634I5384J0D01*
G01*
G75*
G02*
X314866I-5384J0D01*
G01*
X310500D02*
G36*
X310500Y82750D02*
Y50500D01*
X532500D01*
Y82750D01*
X325634D01*
G75*
G02*
X314866I-5384J0D01*
G01*
X310500D01*
G37*
Y110250D02*
G36*
X310500Y110250D02*
Y82750D01*
X314866D01*
G75*
G02*
X325634I5384J0D01*
G01*
X532500D01*
Y485000D01*
X437345D01*
G75*
G02*
X441839Y477376I-4221J-7624D01*
G01*
G75*
G02*
X440261Y472376I-8715J0D01*
G01*
G75*
G02*
X441463Y469906I-7141J-5002D01*
G01*
X455250D01*
G75*
G02*
X457780Y467376I0J-2530D01*
G01*
Y460280D01*
X482117D01*
G75*
G02*
X485832Y465032I8135J-2531D01*
G01*
G75*
G02*
X485063Y467750I4418J2717D01*
G01*
G75*
G02*
X490250Y472937I5187J0D01*
G01*
G75*
G02*
X495437Y467750I0J-5187D01*
G01*
G75*
G02*
X494668Y465032I-5187J0D01*
G01*
G75*
G02*
X498768Y457750I-4418J-7282D01*
G01*
G75*
G02*
X497146Y452750I-8517J0D01*
G01*
G75*
G02*
X498768Y447750I-6895J-5000D01*
G01*
G75*
G02*
X497146Y442750I-8517J0D01*
G01*
G75*
G02*
X498768Y437750I-6896J-5000D01*
G01*
G75*
G02*
X490250Y429232I-8518J0D01*
G01*
G75*
G02*
X481732Y437750I0J8518D01*
G01*
G75*
G02*
X483354Y442750I8518J0D01*
G01*
G75*
G02*
X481732Y447750I6895J5000D01*
G01*
G75*
G02*
X483354Y452750I8517J0D01*
G01*
G75*
G02*
X482117Y455220I6898J5001D01*
G01*
X455250D01*
G75*
G02*
X452720Y457750I0J2530D01*
G01*
Y464846D01*
X441463D01*
G75*
G02*
X437809Y460028I-8341J2531D01*
G01*
G75*
G02*
X438508Y457376I-4686J-2652D01*
G01*
G75*
G02*
X437809Y454724I-5384J0D01*
G01*
G75*
G02*
X441839Y447376I-4686J-7348D01*
G01*
G75*
G02*
X440261Y442376I-8715J0D01*
G01*
G75*
G02*
X441839Y437376I-7137J-5000D01*
G01*
G75*
G02*
X440261Y432376I-8715J0D01*
G01*
G75*
G02*
X441839Y427376I-7137J-5000D01*
G01*
G75*
G02*
X433124Y418661I-8715J0D01*
G01*
G75*
G02*
X424409Y427376I0J8715D01*
G01*
G75*
G02*
X425987Y432376I8715J0D01*
G01*
G75*
G02*
X424409Y437376I7137J5000D01*
G01*
G75*
G02*
X425987Y442376I8715J0D01*
G01*
G75*
G02*
X424409Y447376I7137J5000D01*
G01*
G75*
G02*
X428439Y454724I8715J0D01*
G01*
G75*
G02*
X427740Y457376I4686J2652D01*
G01*
G75*
G02*
X428439Y460028I5384J0D01*
G01*
G75*
G02*
X424409Y467376I4686J7348D01*
G01*
G75*
G02*
X425987Y472376I8715J0D01*
G01*
G75*
G02*
X424409Y477376I7137J5000D01*
G01*
G75*
G02*
X428903Y485000I8715J0D01*
G01*
X420250D01*
Y385250D01*
X500250D01*
Y110250D01*
X310500D01*
G37*
D02*
D13*
X227750Y485250D03*
X237750D03*
X325250Y437750D03*
Y447750D03*
Y457750D03*
Y467750D03*
X490250Y437750D03*
Y447750D03*
Y457750D03*
Y467750D03*
D02*
D14*
X22750Y375250D03*
Y415250D03*
Y440250D03*
X32750D03*
X55250Y375250D03*
Y415250D03*
Y440250D03*
X65250D03*
X87750Y142750D03*
Y152750D03*
Y162750D03*
Y172750D03*
Y182750D03*
Y192750D03*
Y202750D03*
Y212750D03*
Y222750D03*
Y232750D03*
Y242750D03*
Y252750D03*
Y262750D03*
Y272750D03*
Y282750D03*
Y292750D03*
Y302750D03*
Y312750D03*
X100250Y142750D03*
Y152750D03*
Y162750D03*
Y172750D03*
Y182750D03*
Y192750D03*
Y202750D03*
Y212750D03*
Y222750D03*
Y232750D03*
Y242750D03*
Y252750D03*
Y262750D03*
Y272750D03*
Y282750D03*
Y292750D03*
Y302750D03*
Y312750D03*
X110250Y77750D03*
Y122750D03*
X120250Y77750D03*
Y122750D03*
X130250Y77750D03*
Y122750D03*
Y312750D03*
Y365250D03*
X140250Y77750D03*
Y122750D03*
Y312750D03*
Y365250D03*
X150250Y77750D03*
Y122750D03*
Y312750D03*
X160250Y77750D03*
Y122750D03*
Y312750D03*
X170250Y77750D03*
Y122750D03*
Y312750D03*
Y365250D03*
X180250Y77750D03*
Y122750D03*
Y312750D03*
Y365250D03*
X190250Y312750D03*
Y365250D03*
X200250Y77750D03*
Y122750D03*
Y312750D03*
Y365250D03*
X210250Y77750D03*
Y122750D03*
X220250Y77750D03*
Y122750D03*
Y312750D03*
Y365250D03*
X230250Y77750D03*
Y122750D03*
Y312750D03*
Y365250D03*
X240250Y77750D03*
Y122750D03*
Y312750D03*
Y365250D03*
X250250Y77750D03*
Y122750D03*
Y312750D03*
X260250Y122750D03*
Y312750D03*
Y365250D03*
X265250Y430250D03*
Y440250D03*
Y450250D03*
Y460250D03*
Y470250D03*
Y480250D03*
X270250Y122750D03*
Y312750D03*
X280250D03*
Y365250D03*
X290250Y122750D03*
Y312750D03*
Y365250D03*
X300250Y122750D03*
X305750Y365250D03*
X306250Y312750D03*
X310250Y122750D03*
X315750Y365250D03*
X316250Y312750D03*
X320250Y82750D03*
Y122750D03*
X326250Y312750D03*
X330250Y122750D03*
Y155250D03*
X335750Y365250D03*
X336250Y312750D03*
X340250Y122750D03*
X345750Y365250D03*
X346250Y312750D03*
X347750Y402750D03*
X350250Y122750D03*
X355750Y365250D03*
X356250Y312750D03*
X360250Y122750D03*
X366250Y312750D03*
X376250D03*
X386250D03*
X393124Y427376D03*
Y437376D03*
Y447376D03*
Y457376D03*
Y467376D03*
Y477376D03*
X396250Y312750D03*
X433124Y427376D03*
Y437376D03*
Y447376D03*
Y457376D03*
Y467376D03*
Y477376D03*
X487750Y282750D03*
Y297750D03*
D02*
D26*
X22750Y440250D02*
Y415250D01*
X55250Y440250D02*
Y415250D01*
X110250Y77750D02*
Y122750D01*
X120250Y77750D02*
Y122750D01*
X130250Y77750D02*
Y122750D01*
Y365250D02*
Y312750D01*
X140250Y77750D02*
Y122750D01*
Y365250D02*
Y312750D01*
X150250Y77750D02*
Y122750D01*
Y312750D02*
Y390250D01*
X230250Y470250D01*
X265250D01*
X160250Y77750D02*
Y122750D01*
Y312750D02*
Y385250D01*
X235250Y460250D01*
X265250D01*
X170250Y77750D02*
Y122750D01*
Y365250D02*
Y312750D01*
X180250Y77750D02*
Y122750D01*
Y365250D02*
Y312750D01*
X190250Y365250D02*
Y312750D01*
X200250Y77750D02*
Y122750D01*
Y365250D02*
Y312750D01*
X210250Y77750D02*
Y122750D01*
X220250Y77750D02*
Y122750D01*
Y365250D02*
Y312750D01*
X230250Y77750D02*
Y122750D01*
Y365250D02*
Y312750D01*
X240250Y77750D02*
Y122750D01*
Y365250D02*
Y312750D01*
X250250Y77750D02*
Y122750D01*
X260250Y365250D02*
Y312750D01*
X261616Y430250D02*
X259616D01*
X265250Y426616D02*
Y424616D01*
X268884Y430250D02*
X270884D01*
X270250Y312750D02*
Y382750D01*
X327750D01*
X347750Y402750D01*
X280250Y365250D02*
Y312750D01*
X290250Y365250D02*
Y312750D01*
X305750Y365250D02*
Y313250D01*
X306250Y312750D01*
X315750Y365250D02*
Y313250D01*
X316250Y312750D01*
X316616Y82750D02*
X314616D01*
X320250Y79116D02*
Y77116D01*
Y86384D02*
Y88384D01*
X321813Y467750D02*
X319813D01*
X323884Y82750D02*
X325884D01*
X325250Y447750D02*
X292750D01*
X290250Y450250D01*
Y492750D01*
X282750Y500250D01*
X220250D01*
X47750Y327750D01*
Y67750D01*
X260250D01*
Y122750D01*
X325250Y457750D02*
X302750D01*
Y497750D01*
X292750Y507750D01*
X212750D01*
X37750Y332750D01*
Y57750D01*
X270250D01*
Y122750D01*
X325250Y471187D02*
Y473187D01*
X326616Y155250D02*
X324616D01*
X328687Y467750D02*
X330687D01*
X330250Y151616D02*
Y149616D01*
Y158884D02*
Y160884D01*
X333884Y155250D02*
X335884D01*
X335750Y365250D02*
Y313250D01*
X336250Y312750D01*
X345750Y365250D02*
Y313250D01*
X346250Y312750D01*
X355750Y365250D02*
Y313250D01*
X356250Y312750D01*
X389490Y457376D02*
X387490D01*
X396758D02*
X398758D01*
X429490D02*
X427490D01*
X436758D02*
X438758D01*
X486813Y467750D02*
X484813D01*
X490250Y457750D02*
X455250D01*
Y467376D01*
X433124D01*
X490250Y471187D02*
Y473187D01*
X493687Y467750D02*
X495687D01*
D02*
D27*
X320250Y122750D02*
Y82750D01*
X330250Y122750D02*
Y155250D01*
X0Y0D02*
M02*
