G05
M48
;#@! TF.GenerationSoftware,DesignSpark,DesignSpark PCB,10.0.5344
;#@! TF.CreationDate,2022-06-30T08:06:32--2:00*
;#@! TF.FileFunction,Plated,1,2,PTH
;FILE_FORMAT=3:5
;TYPE=PLATED
INCH,TZ
FMAT,2
T1C000.03937
T2C000.04000
T3C000.04134
%
T001
X0.25250Y0.22750
X0.25250Y3.37750
X2.27750Y3.22750
X2.37750Y3.22750
X3.25250Y2.75250
X3.25250Y2.85250
X3.25250Y2.95250
X3.25250Y3.05250
X4.90250Y2.75250
X4.90250Y2.85250
X4.90250Y2.95250
X4.90250Y3.05250
X5.07750Y0.22750
T002
X2.65250Y2.67750
X2.65250Y2.77750
X2.65250Y2.87750
X2.65250Y2.97750
X2.65250Y3.07750
X3.93124Y2.64876
X3.93124Y2.74876
X3.93124Y2.84876
X3.93124Y2.94876
X3.93124Y3.04876
X3.93124Y3.14876
X4.33124Y2.64876
X4.33124Y2.74876
X4.33124Y2.84876
X4.33124Y2.94876
X4.33124Y3.04876
X4.33124Y3.14876
T003
X1.10250Y2.25250
X1.20250Y2.25250
X2.10250Y2.25250
X2.20250Y0.35250
X2.30250Y0.35250
X2.30250Y2.25250
X2.60250Y0.35250
X2.80250Y0.35250
X2.90250Y0.35250
M30
