G04 DesignSpark PCB Gerber Version 10.0 Build 5299*
G04 #@! TF.Part,Single*
G04 #@! TF.FileFunction,Drillmap*
G04 #@! TF.FilePolarity,Positive*
%FSLAX35Y35*%
%MOIN*%
%ADD10C,0.00500*%
G04 #@! TA.AperFunction,WasherPad*
%ADD25C,0.10000*%
G04 #@! TD.AperFunction*
X0Y0D02*
D02*
D10*
X35250Y28687D02*
X36813Y32437D01*
X38375Y28687D01*
X35875Y30250D02*
X37750D01*
X35250Y343687D02*
X36813Y347437D01*
X38375Y343687D01*
X35875Y345250D02*
X37750D01*
X122437Y233063D02*
X123063Y232750D01*
X123375Y232125D01*
X123063Y231500D01*
X122437Y231187D01*
X120250D01*
Y234937D01*
X122437D01*
X123063Y234625D01*
X123375Y234000D01*
X123063Y233375D01*
X122437Y233063D01*
X120250D01*
X132437D02*
X133063Y232750D01*
X133375Y232125D01*
X133063Y231500D01*
X132437Y231187D01*
X130250D01*
Y234937D01*
X132437D01*
X133063Y234625D01*
X133375Y234000D01*
X133063Y233375D01*
X132437Y233063D01*
X130250D01*
X222437D02*
X223063Y232750D01*
X223375Y232125D01*
X223063Y231500D01*
X222437Y231187D01*
X220250D01*
Y234937D01*
X222437D01*
X223063Y234625D01*
X223375Y234000D01*
X223063Y233375D01*
X222437Y233063D01*
X220250D01*
X232437Y43063D02*
X233063Y42750D01*
X233375Y42125D01*
X233063Y41500D01*
X232437Y41187D01*
X230250D01*
Y44937D01*
X232437D01*
X233063Y44625D01*
X233375Y44000D01*
X233063Y43375D01*
X232437Y43063D01*
X230250D01*
X237750Y328687D02*
X239313Y332437D01*
X240875Y328687D01*
X238375Y330250D02*
X240250D01*
X242437Y43063D02*
X243063Y42750D01*
X243375Y42125D01*
X243063Y41500D01*
X242437Y41187D01*
X240250D01*
Y44937D01*
X242437D01*
X243063Y44625D01*
X243375Y44000D01*
X243063Y43375D01*
X242437Y43063D01*
X240250D01*
X242437Y233063D02*
X243063Y232750D01*
X243375Y232125D01*
X243063Y231500D01*
X242437Y231187D01*
X240250D01*
Y234937D01*
X242437D01*
X243063Y234625D01*
X243375Y234000D01*
X243063Y233375D01*
X242437Y233063D01*
X240250D01*
X247750Y328687D02*
X249313Y332437D01*
X250875Y328687D01*
X248375Y330250D02*
X250250D01*
X272437Y43063D02*
X273063Y42750D01*
X273375Y42125D01*
X273063Y41500D01*
X272437Y41187D01*
X270250D01*
Y44937D01*
X272437D01*
X273063Y44625D01*
X273375Y44000D01*
X273063Y43375D01*
X272437Y43063D01*
X270250D01*
X275250Y273687D02*
Y277437D01*
X277125D01*
X277750Y277125D01*
X278063Y276813D01*
X278375Y276187D01*
Y274937D01*
X278063Y274313D01*
X277750Y274000D01*
X277125Y273687D01*
X275250D01*
Y283687D02*
Y287437D01*
X277125D01*
X277750Y287125D01*
X278063Y286813D01*
X278375Y286187D01*
Y284937D01*
X278063Y284313D01*
X277750Y284000D01*
X277125Y283687D01*
X275250D01*
Y293687D02*
Y297437D01*
X277125D01*
X277750Y297125D01*
X278063Y296813D01*
X278375Y296187D01*
Y294937D01*
X278063Y294313D01*
X277750Y294000D01*
X277125Y293687D01*
X275250D01*
Y303687D02*
Y307437D01*
X277125D01*
X277750Y307125D01*
X278063Y306813D01*
X278375Y306187D01*
Y304937D01*
X278063Y304313D01*
X277750Y304000D01*
X277125Y303687D01*
X275250D01*
Y313687D02*
Y317437D01*
X277125D01*
X277750Y317125D01*
X278063Y316813D01*
X278375Y316187D01*
Y314937D01*
X278063Y314313D01*
X277750Y314000D01*
X277125Y313687D01*
X275250D01*
Y323687D02*
Y327437D01*
X278375D01*
X277750Y325563D02*
X275250D01*
Y323687D02*
X278375D01*
X292437Y43063D02*
X293063Y42750D01*
X293375Y42125D01*
X293063Y41500D01*
X292437Y41187D01*
X290250D01*
Y44937D01*
X292437D01*
X293063Y44625D01*
X293375Y44000D01*
X293063Y43375D01*
X292437Y43063D01*
X290250D01*
X302437D02*
X303063Y42750D01*
X303375Y42125D01*
X303063Y41500D01*
X302437Y41187D01*
X300250D01*
Y44937D01*
X302437D01*
X303063Y44625D01*
X303375Y44000D01*
X303063Y43375D01*
X302437Y43063D01*
X300250D01*
X335250Y281187D02*
X336813Y284937D01*
X338375Y281187D01*
X335875Y282750D02*
X337750D01*
X335250Y291187D02*
X336813Y294937D01*
X338375Y291187D01*
X335875Y292750D02*
X337750D01*
X335250Y301187D02*
X336813Y304937D01*
X338375Y301187D01*
X335875Y302750D02*
X337750D01*
X335250Y311187D02*
X336813Y314937D01*
X338375Y311187D01*
X335875Y312750D02*
X337750D01*
X403124Y270813D02*
Y274563D01*
X404999D01*
X405624Y274251D01*
X405937Y273939D01*
X406249Y273313D01*
Y272063D01*
X405937Y271439D01*
X405624Y271126D01*
X404999Y270813D01*
X403124D01*
Y280813D02*
Y284563D01*
X404999D01*
X405624Y284251D01*
X405937Y283939D01*
X406249Y283313D01*
Y282063D01*
X405937Y281439D01*
X405624Y281126D01*
X404999Y280813D01*
X403124D01*
Y290813D02*
Y294563D01*
X404999D01*
X405624Y294251D01*
X405937Y293939D01*
X406249Y293313D01*
Y292063D01*
X405937Y291439D01*
X405624Y291126D01*
X404999Y290813D01*
X403124D01*
Y300813D02*
Y304563D01*
X404999D01*
X405624Y304251D01*
X405937Y303939D01*
X406249Y303313D01*
Y302063D01*
X405937Y301439D01*
X405624Y301126D01*
X404999Y300813D01*
X403124D01*
Y310813D02*
Y314563D01*
X404999D01*
X405624Y314251D01*
X405937Y313939D01*
X406249Y313313D01*
Y312063D01*
X405937Y311439D01*
X405624Y311126D01*
X404999Y310813D01*
X403124D01*
Y320813D02*
Y324563D01*
X404999D01*
X405624Y324251D01*
X405937Y323939D01*
X406249Y323313D01*
Y322063D01*
X405937Y321439D01*
X405624Y321126D01*
X404999Y320813D01*
X403124D01*
X443124Y270813D02*
Y274563D01*
X444999D01*
X445624Y274251D01*
X445937Y273939D01*
X446249Y273313D01*
Y272063D01*
X445937Y271439D01*
X445624Y271126D01*
X444999Y270813D01*
X443124D01*
Y280813D02*
Y284563D01*
X444999D01*
X445624Y284251D01*
X445937Y283939D01*
X446249Y283313D01*
Y282063D01*
X445937Y281439D01*
X445624Y281126D01*
X444999Y280813D01*
X443124D01*
Y290813D02*
Y294563D01*
X444999D01*
X445624Y294251D01*
X445937Y293939D01*
X446249Y293313D01*
Y292063D01*
X445937Y291439D01*
X445624Y291126D01*
X444999Y290813D01*
X443124D01*
Y300813D02*
Y304563D01*
X444999D01*
X445624Y304251D01*
X445937Y303939D01*
X446249Y303313D01*
Y302063D01*
X445937Y301439D01*
X445624Y301126D01*
X444999Y300813D01*
X443124D01*
Y310813D02*
Y314563D01*
X444999D01*
X445624Y314251D01*
X445937Y313939D01*
X446249Y313313D01*
Y312063D01*
X445937Y311439D01*
X445624Y311126D01*
X444999Y310813D01*
X443124D01*
Y320813D02*
Y324563D01*
X444999D01*
X445624Y324251D01*
X445937Y323939D01*
X446249Y323313D01*
Y322063D01*
X445937Y321439D01*
X445624Y321126D01*
X444999Y320813D01*
X443124D01*
X500250Y281187D02*
X501813Y284937D01*
X503375Y281187D01*
X500875Y282750D02*
X502750D01*
X500250Y291187D02*
X501813Y294937D01*
X503375Y291187D01*
X500875Y292750D02*
X502750D01*
X500250Y301187D02*
X501813Y304937D01*
X503375Y301187D01*
X500875Y302750D02*
X502750D01*
X500250Y311187D02*
X501813Y314937D01*
X503375Y311187D01*
X500875Y312750D02*
X502750D01*
X517750Y28687D02*
X519313Y32437D01*
X520875Y28687D01*
X518375Y30250D02*
X520250D01*
X517750Y343687D02*
Y347437D01*
X520875D01*
X520250Y345563D02*
X517750D01*
D02*
D25*
X25250Y22750D03*
Y337750D03*
X110250Y225250D03*
X120250D03*
X210250D03*
X220250Y35250D03*
X227750Y322750D03*
X230250Y35250D03*
Y225250D03*
X237750Y322750D03*
X260250Y35250D03*
X265250Y267750D03*
Y277750D03*
Y287750D03*
Y297750D03*
Y307750D03*
Y317750D03*
X280250Y35250D03*
X290250D03*
X325250Y275250D03*
Y285250D03*
Y295250D03*
Y305250D03*
X393124Y264876D03*
Y274876D03*
Y284876D03*
Y294876D03*
Y304876D03*
Y314876D03*
X433124Y264876D03*
Y274876D03*
Y284876D03*
Y294876D03*
Y304876D03*
Y314876D03*
X490250Y275250D03*
Y285250D03*
Y295250D03*
Y305250D03*
X507750Y22750D03*
Y337750D03*
X0Y0D02*
M02*
