<?xml version="1.0" standalone="no"?>
<!DOCTYPE svg PUBLIC "-//W3C//DTD SVG 1.1//EN"
"http://www.w3.org/Graphics/SVG/1.1/DTD/svg11.dtd">
<!-- Creator: fig2dev Version 3.2 Patchlevel 5-alpha5 -->
<!-- CreationDate: Sat Jan 21 18:31:31 2006 -->
<!-- Magnification: 1.050 -->
<svg xmlns="http://www.w3.org/2000/svg" width="22.1in" height="15.8in" viewBox="-8915 -4699 26571 18904">
<g style="stroke-width:.025in; stroke:black; fill:none">
<!-- Line -->
<polyline points="11622,-2362
6316,-119
" style="stroke:#000000;stroke-width:32;
stroke-linejoin:miter; stroke-linecap:butt;
"/>
<!-- Arrowhead on XXXpoint -->
<polygon points="6522 -411
6161 -54
6669 -64
6509 -201

" style="stroke:#000000;stroke-width:16;
fill:#000000;"/>
<!-- Line -->
<polyline points="10535,-3070
5122,-296
" style="stroke:#000000;stroke-width:32;
stroke-linejoin:miter; stroke-linecap:butt;
"/>
<!-- Arrowhead on XXXpoint -->
<polygon points="5308 -603
4974 -220
5480 -267
5310 -392

" style="stroke:#000000;stroke-width:16;
fill:#000000;"/>
<!-- Line -->
<polyline points="-1984,12850
4271,9769
" style="stroke:#000000;stroke-width:32;
stroke-linejoin:miter; stroke-linecap:butt;
"/>
<!-- Arrowhead on XXXpoint -->
<polygon points="4079 10072
4420 9694
3912 9733
4081 9861

" style="stroke:#000000;stroke-width:16;
fill:#000000;"/>
<!-- Line -->
<polyline points="-2881,11952
3225,9610
" style="stroke:#000000;stroke-width:32;
stroke-linejoin:miter; stroke-linecap:butt;
"/>
<!-- Arrowhead on XXXpoint -->
<polygon points="3006 9896
3380 9550
2871 9543
3026 9685

" style="stroke:#000000;stroke-width:16;
fill:#000000;"/>
<!-- Line -->
<polyline points="5641,152
6499,-4059
" style="stroke:#000000;stroke-width:32;
stroke-linejoin:miter; stroke-linecap:butt;
"/>
<!-- Line -->
<polyline points="2911,13579
3767,9366
" style="stroke:#000000;stroke-width:32;
stroke-linejoin:miter; stroke-linecap:butt;
"/>
<!-- Line -->
<polyline points="6854,592
6856,591
6862,590
6872,586
6888,582
6910,576
6937,567
6970,559
7007,548
7049,536
7093,523
7140,511
7186,498
7232,485
7277,473
7320,460
7362,450
7402,439
7440,429
7475,419
7509,411
7541,404
7571,395
7602,389
7630,383
7657,376
7686,370
7713,365
7739,360
7766,354
7794,349
7822,344
7850,339
7879,334
7907,330
7937,325
7967,321
7997,317
8028,312
8058,309
8090,305
8121,302
8153,299
8183,296
8215,292
8245,290
8276,287
8306,285
8335,283
8365,282
8394,280
8423,279
8451,278
8478,277
8507,276
8534,275
8562,275
8590,274
8618,274
8647,274
8677,274
8707,274
8738,274
8769,275
8802,275
8834,276
8867,277
8899,278
8933,279
8966,281
9000,282
9033,284
9066,286
9099,287
9131,289
9163,292
9193,295
9224,297
9253,300
9282,302
9311,305
9339,308
9366,310
9394,313
9422,318
9451,321
9481,325
9510,329
9540,333
9570,338
9601,343
9631,348
9662,353
9694,359
9725,365
9758,371
9791,379
9822,385
9854,392
9886,399
9917,407
9948,414
9979,423
10008,431
10037,438
10067,447
10095,455
10123,464
10151,472
10179,481
10205,490
10232,499
10258,508
10285,517
10312,528
10341,538
10369,549
10398,560
10429,572
10459,584
10490,597
10521,609
10552,623
10583,637
10615,650
10646,665
10678,679
10708,693
10739,708
10769,723
10798,738
10827,752
10855,766
10883,781
10911,795
10937,810
10964,825
10991,839
11017,854
11043,869
11069,885
11096,900
11123,917
11150,934
11177,952
11206,970
11234,987
11262,1006
11292,1026
11320,1046
11350,1066
11378,1086
11407,1107
11436,1127
11464,1148
11492,1169
11520,1189
11546,1210
11573,1230
11598,1251
11624,1271
11648,1291
11672,1310
11696,1330
11719,1350
11742,1369
11764,1388
11787,1408
11811,1429
11834,1449
11857,1471
11880,1492
11904,1516
11928,1539
11952,1562
11977,1586
12002,1611
12027,1635
12052,1661
12076,1687
12101,1713
12125,1739
12150,1765
12174,1792
12198,1818
12221,1844
12244,1870
12266,1896
12287,1921
12309,1947
12330,1972
12350,1997
12371,2023
12391,2048
12410,2071
12429,2095
12448,2120
12467,2145
12486,2171
12506,2197
12524,2224
12544,2251
12564,2280
12585,2308
12605,2338
12625,2368
12646,2397
12666,2428
12686,2458
12706,2490
12726,2520
12746,2551
12765,2581
12784,2612
12802,2641
12819,2670
12836,2700
12853,2728
12870,2756
12885,2784
12900,2811
12915,2837
12930,2865
12943,2891
12957,2917
12971,2943
12983,2971
12997,2997
13011,3024
13023,3053
13036,3081
13049,3109
13062,3139
13076,3168
13088,3198
13101,3229
13113,3260
13126,3291
13139,3322
13150,3354
13163,3386
13174,3418
13185,3449
13196,3480
13207,3511
13217,3542
13228,3573
13238,3603
13248,3633
13257,3662
13267,3693
13275,3722
13285,3752
13293,3781
13301,3812
13310,3842
13319,3872
13328,3904
13336,3935
13344,3969
13354,4003
13362,4036
13372,4072
13380,4107
13388,4143
13398,4180
13406,4217
13415,4254
13423,4291
13432,4328
13440,4366
13447,4403
13455,4439
13462,4475
13469,4511
13477,4545
13483,4580
13488,4613
13495,4646
13500,4678
13505,4709
13510,4740
13514,4770
13520,4799
13524,4831
13528,4862
13532,4894
13535,4925
13540,4958
13543,4990
13546,5022
13548,5055
13551,5087
13553,5121
13555,5153
13558,5187
13560,5219
13561,5253
13562,5286
13563,5318
13563,5351
13563,5382
13563,5413
13563,5443
13562,5474
13561,5503
13560,5531
13559,5559
13558,5587
13555,5613
13553,5640
13551,5667
13549,5695
13546,5723
13543,5753
13540,5782
13535,5813
13531,5844
13526,5877
13521,5911
13516,5948
13508,5987
13502,6028
13495,6071
13486,6116
13478,6161
13469,6206
13461,6251
13453,6295
13445,6333
13439,6369
13433,6398
13428,6422
13425,6439
13423,6450
13422,6456
13421,6459
" style="stroke:#000000;stroke-width:32;
stroke-linejoin:bevel; stroke-linecap:butt;
"/>
<!-- Line -->
<polyline points="5158,9406
5160,9407
5163,9412
5170,9418
5182,9427
5196,9441
5216,9459
5239,9480
5267,9504
5296,9530
5328,9558
5360,9587
5394,9616
5427,9645
5460,9673
5491,9700
5522,9727
5550,9751
5579,9774
5605,9796
5630,9817
5654,9836
5678,9855
5700,9872
5723,9889
5745,9906
5767,9922
5790,9938
5812,9952
5834,9968
5857,9984
5880,9998
5904,10014
5928,10030
5953,10046
5979,10060
6005,10076
6031,10092
6058,10108
6086,10123
6114,10139
6142,10154
6170,10170
6198,10184
6226,10199
6255,10214
6282,10227
6310,10241
6338,10254
6364,10266
6390,10279
6416,10290
6443,10303
6469,10313
6494,10325
6519,10335
6544,10346
6571,10356
6597,10367
6623,10377
6650,10388
6678,10398
6706,10409
6734,10419
6764,10430
6793,10440
6823,10451
6853,10461
6883,10471
6914,10481
6944,10491
6975,10500
7005,10510
7036,10519
7065,10528
7095,10536
7123,10544
7151,10552
7179,10559
7206,10566
7233,10573
7259,10580
7285,10586
7311,10593
7338,10599
7365,10604
7394,10611
7422,10617
7451,10622
7480,10628
7510,10634
7541,10640
7571,10645
7603,10650
7635,10655
7667,10660
7699,10665
7732,10669
7763,10674
7796,10678
7827,10681
7859,10685
7890,10688
7922,10691
7952,10695
7982,10697
8011,10699
8041,10701
8070,10703
8099,10705
8127,10706
8155,10708
8183,10709
8212,10710
8241,10711
8271,10712
8302,10713
8333,10713
8366,10714
8398,10714
8432,10714
8466,10714
8499,10713
8534,10713
8569,10712
8602,10711
8637,10710
8670,10709
8705,10707
8738,10705
8771,10704
8803,10702
8835,10699
8866,10697
8897,10693
8928,10691
8957,10688
8987,10685
9017,10681
9047,10678
9078,10674
9108,10669
9140,10664
9171,10660
9204,10655
9236,10648
9270,10643
9303,10637
9337,10630
9372,10623
9406,10616
9441,10608
9476,10601
9510,10594
9544,10585
9577,10577
9611,10569
9644,10560
9676,10552
9708,10543
9739,10535
9770,10527
9799,10517
9828,10509
9858,10499
9886,10491
9914,10481
9944,10472
9972,10462
10002,10452
10032,10441
10062,10430
10093,10419
10124,10408
10156,10395
10187,10383
10220,10370
10253,10356
10286,10343
10319,10328
10352,10314
10385,10300
10417,10285
10450,10270
10481,10256
10513,10240
10544,10225
10575,10211
10605,10196
10635,10180
10664,10165
10692,10150
10721,10135
10749,10119
10775,10104
10803,10090
10830,10074
10857,10058
10885,10043
10913,10026
10941,10009
10971,9991
11000,9973
11029,9954
11060,9935
11090,9916
11121,9897
11151,9876
11182,9856
11212,9836
11243,9815
11272,9794
11301,9774
11331,9753
11359,9733
11386,9713
11414,9693
11440,9673
11466,9653
11491,9634
11516,9614
11540,9595
11563,9576
11586,9558
11609,9539
11632,9520
11654,9500
11677,9481
11700,9461
11723,9440
11746,9419
11770,9398
11793,9376
11816,9354
11840,9331
11863,9308
11887,9283
11911,9260
11934,9236
11959,9212
11982,9187
12005,9163
12028,9139
12050,9113
12072,9089
12094,9065
12115,9041
12136,9017
12157,8993
12177,8970
12197,8945
12217,8921
12237,8898
12257,8874
12276,8850
12296,8826
12316,8801
12337,8775
12356,8749
12377,8722
12398,8695
12420,8666
12443,8638
12465,8608
12487,8579
12509,8549
12531,8518
12554,8488
12576,8456
12598,8426
12620,8394
12642,8364
12663,8333
12684,8303
12704,8272
12724,8243
12743,8215
12762,8186
12781,8158
12797,8131
12815,8104
12831,8078
12848,8052
12864,8027
12879,7998
12896,7972
12912,7944
12928,7917
12943,7889
12959,7861
12974,7833
12990,7803
13005,7775
13020,7745
13035,7715
13049,7686
13064,7655
13078,7626
13091,7596
13105,7566
13118,7537
13130,7508
13143,7479
13154,7451
13166,7423
13176,7396
13186,7370
13196,7343
13206,7317
13214,7292
13223,7267
13231,7241
13240,7214
13249,7187
13257,7159
13266,7130
13274,7101
13282,7070
13291,7038
13299,7003
13308,6967
13317,6929
13327,6889
13337,6846
13346,6802
13357,6756
13366,6711
13377,6667
13385,6624
13395,6584
13402,6550
13408,6520
13414,6497
13417,6479
13419,6469
13420,6462
13421,6459
" style="stroke:#000000;stroke-width:32;
stroke-linejoin:bevel; stroke-linecap:butt;
"/>
<!-- Line -->
<polyline points="6226,9187
6230,9188
6238,9189
6253,9192
6272,9196
6298,9201
6327,9206
6359,9212
6390,9217
6422,9223
6451,9228
6479,9232
6507,9236
6532,9239
6556,9243
6580,9245
6605,9247
6629,9248
6649,9249
6668,9250
6689,9251
6710,9252
6732,9252
6755,9252
6780,9252
6804,9252
6830,9252
6856,9251
6883,9250
6912,9249
6940,9248
6969,9246
6997,9244
7026,9241
7055,9239
7084,9236
7112,9234
7141,9231
7169,9227
7197,9224
7226,9219
7254,9215
7278,9212
7303,9208
7329,9204
7355,9198
7381,9193
7409,9188
7437,9183
7466,9176
7496,9170
7525,9164
7555,9156
7587,9149
7617,9142
7649,9133
7680,9125
7712,9117
7743,9108
7775,9099
7805,9089
7836,9080
7865,9071
7895,9061
7924,9051
7952,9042
7980,9033
8007,9022
8034,9013
8060,9002
8087,8992
8114,8980
8140,8970
8167,8958
8195,8945
8222,8933
8250,8920
8279,8907
8307,8893
8337,8878
8366,8862
8395,8848
8425,8832
8454,8815
8483,8799
8513,8783
8541,8766
8571,8749
8598,8732
8626,8714
8654,8698
8680,8681
8706,8664
8731,8647
8756,8630
8781,8613
8805,8596
8829,8579
8853,8561
8877,8544
8901,8525
8927,8508
8951,8489
8976,8469
9001,8449
9027,8428
9054,8407
9079,8385
9106,8363
9132,8341
9159,8318
9185,8295
9211,8271
9236,8248
9262,8225
9287,8202
9312,8179
9336,8156
9359,8134
9381,8112
9403,8090
9424,8069
9445,8048
9465,8027
9485,8006
9505,7986
9525,7964
9546,7942
9566,7919
9586,7896
9606,7872
9627,7848
9647,7824
9668,7800
9688,7775
9709,7750
9729,7724
9750,7698
9770,7673
9790,7647
9808,7620
9828,7595
9846,7570
9865,7546
9883,7521
9900,7498
9917,7474
9932,7450
9948,7428
9964,7406
9979,7384
9993,7362
10009,7339
10025,7315
10040,7292
10056,7267
10072,7243
10088,7217
10104,7192
10120,7166
10137,7140
10153,7112
10169,7086
10184,7059
10200,7033
10216,7006
10230,6979
10244,6954
10258,6929
10271,6903
10284,6879
10296,6855
10307,6832
10319,6810
10329,6788
10340,6766
10350,6742
10361,6718
10370,6693
10381,6669
10390,6644
10401,6619
10410,6593
10419,6567
10428,6541
10437,6515
10446,6490
10454,6464
10461,6438
10470,6414
10477,6390
10483,6368
10490,6345
10496,6324
10501,6304
10507,6284
10512,6265
10517,6247
10522,6225
10528,6203
10533,6182
10538,6160
10543,6137
10549,6114
10555,6089
10561,6061
10567,6033
10574,6005
10579,5976
10585,5950
10591,5927
10594,5909
10597,5897
10598,5889
10599,5886
" style="stroke:#000000;stroke-width:32;
stroke-linejoin:bevel; stroke-linecap:butt;
"/>
<!-- Line -->
<polyline points="4611,9489
4612,9491
4614,9496
4619,9503
4626,9514
4636,9531
4649,9552
4666,9580
4686,9612
4709,9650
4734,9692
4763,9737
4793,9786
4825,9837
4857,9889
4890,9943
4923,9995
4956,10048
4988,10099
5020,10150
5050,10198
5081,10244
5109,10289
5137,10331
5163,10371
5188,10410
5212,10447
5235,10481
5258,10515
5280,10546
5301,10578
5323,10607
5343,10636
5364,10664
5384,10691
5405,10719
5427,10749
5450,10779
5474,10808
5498,10837
5521,10867
5545,10896
5570,10925
5594,10955
5620,10984
5646,11014
5672,11043
5698,11072
5725,11102
5753,11131
5779,11160
5806,11189
5835,11217
5862,11246
5889,11273
5917,11301
5943,11328
5970,11354
5996,11380
6023,11405
6049,11430
6074,11455
6099,11479
6124,11502
6150,11525
6174,11547
6198,11570
6223,11592
6247,11614
6271,11636
6297,11659
6322,11681
6348,11704
6374,11728
6401,11752
6428,11775
6455,11799
6483,11823
6512,11847
6541,11871
6570,11897
6599,11921
6628,11945
6658,11969
6687,11993
6717,12017
6746,12041
6775,12065
6804,12087
6832,12109
6860,12131
6888,12152
6914,12172
6941,12192
6966,12212
6993,12230
7018,12248
7042,12266
7067,12283
7091,12300
7118,12318
7143,12334
7169,12352
7195,12369
7222,12386
7249,12403
7276,12419
7303,12436
7332,12453
7360,12470
7390,12487
7419,12502
7448,12519
7478,12535
7507,12551
7538,12566
7567,12582
7597,12598
7627,12613
7656,12626
7686,12641
7715,12655
7743,12668
7773,12681
7801,12693
7828,12706
7857,12718
7884,12730
7911,12742
7940,12753
7968,12765
7996,12776
8025,12788
8054,12799
8085,12811
8115,12823
8148,12835
8180,12847
8213,12859
8247,12871
8282,12883
8317,12895
8352,12908
8389,12919
8426,12931
8462,12942
8499,12954
8536,12965
8573,12976
8609,12986
8646,12997
8683,13007
8719,13017
8753,13025
8789,13035
8824,13043
8857,13050
8892,13058
8925,13065
8960,13072
8990,13079
9020,13084
9050,13090
9082,13096
9113,13101
9146,13106
9179,13111
9212,13117
9246,13121
9280,13125
9316,13129
9352,13133
9388,13138
9426,13142
9464,13145
9502,13148
9541,13151
9579,13154
9617,13156
9656,13159
9696,13161
9735,13163
9773,13164
9812,13165
9850,13166
9888,13166
9926,13167
9964,13167
10002,13167
10038,13166
10075,13166
10113,13165
10150,13164
10187,13162
10220,13161
10255,13159
10288,13158
10324,13155
10359,13152
10395,13150
10432,13147
10469,13144
10508,13141
10546,13137
10585,13133
10625,13128
10666,13124
10708,13119
10749,13113
10792,13108
10834,13102
10877,13096
10920,13089
10963,13082
11006,13075
11049,13067
11092,13060
11135,13051
11179,13043
11220,13035
11262,13025
11303,13017
11344,13007
11384,12998
11424,12988
11464,12978
11503,12967
11542,12958
11580,12946
11617,12936
11654,12924
11692,12914
11729,12901
11766,12890
11804,12877
11842,12864
11880,12851
11918,12836
11956,12823
11995,12807
12035,12792
12075,12775
12115,12760
12156,12743
12197,12725
12238,12707
12279,12689
12321,12670
12362,12651
12404,12633
12445,12613
12486,12593
12527,12573
12566,12553
12607,12532
12646,12512
12685,12492
12724,12471
12762,12451
12798,12431
12835,12411
12870,12391
12906,12371
12939,12351
12973,12331
13005,12312
13038,12292
13069,12274
13101,12254
13131,12235
13164,12214
13196,12194
13228,12173
13259,12152
13292,12130
13323,12109
13356,12087
13388,12064
13421,12040
13454,12017
13486,11993
13519,11969
13551,11945
13585,11920
13617,11895
13651,11869
13683,11843
13716,11818
13749,11792
13780,11765
13813,11739
13843,11713
13875,11687
13905,11660
13935,11634
13965,11609
13993,11583
14022,11558
14050,11532
14077,11507
14104,11482
14131,11457
14157,11433
14182,11407
14208,11383
14234,11358
14260,11332
14287,11304
14314,11277
14341,11250
14368,11222
14396,11193
14424,11164
14452,11134
14480,11104
14509,11074
14537,11042
14566,11011
14596,10978
14624,10945
14654,10913
14682,10880
14711,10848
14740,10815
14768,10782
14795,10749
14823,10718
14850,10685
14876,10654
14901,10623
14927,10593
14951,10562
14975,10533
14998,10504
15020,10476
15042,10448
15063,10420
15084,10394
15104,10368
15124,10342
15144,10314
15165,10287
15185,10260
15205,10233
15225,10204
15245,10177
15265,10149
15283,10120
15303,10092
15323,10062
15343,10034
15362,10005
15382,9974
15401,9945
15421,9914
15440,9885
15459,9855
15477,9824
15496,9795
15513,9764
15530,9735
15548,9706
15565,9676
15582,9648
15597,9619
15613,9591
15629,9563
15645,9534
15659,9507
15674,9479
15690,9451
15704,9423
15719,9395
15734,9366
15749,9337
15763,9308
15779,9277
15794,9247
15809,9215
15825,9183
15841,9150
15858,9117
15874,9083
15889,9048
15906,9015
15922,8980
15939,8945
15954,8910
15970,8875
15986,8841
16002,8807
16016,8773
16031,8741
16046,8708
16059,8676
16073,8645
16086,8615
16098,8585
16111,8556
16122,8529
16134,8501
16144,8475
16155,8449
16165,8424
16178,8391
16191,8359
16202,8327
16215,8296
16226,8264
16237,8233
16248,8202
16259,8171
16269,8140
16279,8110
16289,8080
16299,8051
16307,8022
16317,7993
16324,7966
16332,7939
16340,7913
16346,7888
16353,7864
16360,7841
16365,7818
16371,7797
16376,7775
16382,7754
16387,7731
16392,7708
16398,7685
16404,7661
16409,7636
16415,7610
16422,7583
16428,7553
16434,7523
16441,7489
16449,7456
16456,7420
16464,7385
16471,7351
16477,7319
16483,7292
16488,7269
16492,7252
16494,7240
16495,7234
16496,7231
" style="stroke:#000000;stroke-width:32;
stroke-linejoin:bevel; stroke-linecap:butt;
"/>
<!-- Line -->
<polyline points="5781,180
5782,178
5783,174
5785,166
5790,155
5795,138
5802,116
5812,88
5823,54
5836,15
5850,-28
5866,-77
5884,-130
5902,-184
5921,-242
5941,-302
5961,-362
5980,-422
5999,-480
6018,-538
6037,-596
6056,-650
6074,-704
6091,-755
6107,-805
6122,-852
6138,-897
6153,-940
6166,-982
6180,-1022
6193,-1061
6205,-1099
6218,-1135
6230,-1171
6242,-1206
6254,-1240
6265,-1275
6277,-1309
6289,-1344
6301,-1380
6313,-1415
6326,-1450
6338,-1486
6350,-1523
6363,-1560
6375,-1596
6389,-1633
6402,-1671
6415,-1709
6429,-1746
6441,-1784
6455,-1823
6469,-1862
6483,-1901
6497,-1940
6511,-1979
6524,-2017
6538,-2056
6552,-2094
6565,-2133
6579,-2171
6593,-2207
6606,-2244
6620,-2281
6633,-2317
6645,-2352
6659,-2387
6671,-2422
6683,-2455
6696,-2489
6708,-2522
6720,-2555
6732,-2587
6745,-2620
6756,-2653
6769,-2685
6781,-2718
6793,-2751
6807,-2785
6819,-2819
6833,-2855
6847,-2892
6861,-2930
6876,-2970
6892,-3011
6909,-3053
6925,-3098
6943,-3144
6961,-3192
6981,-3241
7000,-3293
7021,-3345
7041,-3399
7062,-3454
7083,-3507
7103,-3560
7123,-3611
7142,-3660
7160,-3707
7176,-3749
7191,-3786
7204,-3819
7214,-3846
7223,-3868
7229,-3884
7233,-3896
7236,-3904
7237,-3907
7238,-3909
" style="stroke:#000000;stroke-width:32;
stroke-linejoin:bevel; stroke-linecap:butt;
"/>
<!-- Line -->
<polyline points="4171,9400
4171,9402
4172,9405
4174,9413
4177,9424
4181,9440
4186,9461
4194,9488
4202,9521
4213,9560
4224,9604
4237,9653
4251,9707
4266,9764
4283,9826
4300,9890
4318,9955
4334,10023
4352,10090
4371,10156
4388,10223
4406,10288
4423,10351
4439,10413
4456,10473
4472,10531
4488,10587
4502,10641
4516,10692
4530,10742
4543,10789
4556,10834
4569,10878
4581,10920
4593,10961
4604,11001
4616,11040
4627,11077
4639,11113
4649,11150
4661,11185
4672,11220
4685,11260
4698,11301
4711,11341
4724,11381
4738,11420
4751,11460
4765,11500
4779,11540
4792,11580
4807,11619
4820,11659
4835,11699
4850,11739
4865,11778
4879,11818
4894,11857
4909,11896
4923,11933
4938,11971
4953,12009
4966,12045
4981,12080
4995,12116
5009,12150
5023,12183
5036,12216
5049,12246
5062,12278
5075,12307
5087,12335
5099,12364
5111,12391
5123,12417
5134,12443
5145,12468
5156,12493
5170,12523
5185,12554
5198,12584
5212,12615
5227,12644
5240,12674
5255,12704
5270,12733
5285,12764
5299,12793
5314,12824
5330,12853
5344,12882
5360,12912
5376,12941
5391,12971
5406,12999
5422,13027
5437,13056
5453,13083
5467,13110
5482,13137
5498,13164
5512,13189
5527,13215
5542,13241
5556,13267
5572,13293
5586,13317
5601,13342
5616,13367
5631,13394
5648,13421
5665,13449
5682,13479
5701,13510
5721,13543
5743,13577
5765,13615
5790,13654
5815,13695
5840,13738
5867,13782
5896,13827
5924,13872
5951,13919
5979,13963
6005,14005
6029,14044
6050,14078
6069,14109
6083,14133
6096,14153
6104,14166
6110,14175
6113,14180
6114,14182
" style="stroke:#000000;stroke-width:32;
stroke-linejoin:bevel; stroke-linecap:butt;
"/>
<!-- Line -->
<polyline points="4034,9375
4034,9377
4034,9381
4034,9388
4034,9400
4034,9418
4035,9441
4035,9470
4035,9505
4035,9547
4036,9595
4036,9648
4037,9707
4037,9770
4038,9836
4039,9905
4039,9976
4040,10049
4041,10121
4043,10195
4044,10266
4045,10338
4045,10407
4046,10474
4047,10540
4048,10603
4049,10664
4050,10723
4051,10780
4052,10834
4053,10888
4054,10938
4056,10986
4057,11034
4058,11080
4059,11125
4061,11168
4062,11211
4065,11252
4066,11294
4068,11335
4069,11375
4071,11420
4073,11464
4075,11508
4078,11552
4080,11597
4082,11641
4086,11687
4088,11732
4091,11777
4094,11822
4097,11867
4100,11913
4103,11960
4108,12005
4111,12051
4114,12096
4118,12142
4122,12186
4125,12232
4130,12276
4134,12320
4138,12363
4142,12405
4145,12446
4150,12487
4154,12527
4158,12565
4162,12603
4166,12640
4171,12676
4175,12710
4179,12745
4183,12777
4186,12809
4191,12840
4195,12871
4199,12900
4203,12930
4208,12969
4214,13005
4220,13043
4225,13079
4232,13116
4238,13152
4244,13189
4251,13227
4259,13266
4266,13306
4275,13346
4283,13390
4292,13433
4302,13477
4311,13522
4321,13567
4330,13610
4340,13652
4349,13691
4356,13727
4364,13757
4369,13782
4373,13802
4376,13816
4379,13825
4381,13830
4381,13833
" style="stroke:#000000;stroke-width:32;
stroke-linejoin:bevel; stroke-linecap:butt;
"/>
<!-- Line -->
<polyline points="3907,9346
3907,9349
3907,9353
3906,9360
3905,9373
3904,9391
3902,9414
3899,9443
3897,9479
3892,9520
3889,9566
3885,9617
3880,9672
3876,9731
3870,9791
3865,9854
3860,9916
3856,9979
3850,10040
3845,10102
3840,10161
3836,10220
3832,10276
3827,10329
3823,10381
3819,10431
3815,10478
3812,10524
3808,10569
3804,10611
3801,10651
3798,10691
3796,10729
3793,10767
3790,10804
3787,10840
3784,10876
3782,10912
3779,10950
3777,10986
3774,11024
3772,11062
3769,11100
3766,11138
3763,11176
3761,11215
3758,11254
3756,11294
3753,11334
3751,11374
3748,11415
3745,11456
3743,11497
3740,11538
3738,11579
3736,11620
3733,11661
3731,11702
3729,11743
3727,11783
3724,11823
3721,11863
3719,11902
3717,11941
3716,11979
3714,12016
3712,12053
3710,12090
3709,12127
3707,12162
3704,12197
3703,12233
3701,12267
3700,12302
3698,12337
3697,12371
3696,12406
3694,12441
3693,12478
3691,12515
3690,12553
3689,12592
3687,12633
3686,12675
3683,12719
3682,12765
3680,12812
3678,12861
3677,12913
3675,12966
3673,13021
3671,13078
3670,13135
3668,13193
3666,13251
3664,13308
3662,13362
3660,13415
3659,13464
3657,13509
3656,13549
3655,13585
3654,13613
3653,13637
3653,13655
3652,13668
3652,13675
3652,13679
3652,13681
" style="stroke:#000000;stroke-width:32;
stroke-linejoin:bevel; stroke-linecap:butt;
"/>
<!-- Line -->
<polyline points="7714,1104
7717,1105
7723,1106
7735,1108
7752,1112
7775,1118
7802,1123
7834,1130
7867,1138
7903,1146
7938,1154
7972,1162
8005,1170
8035,1177
8065,1185
8092,1192
8118,1199
8142,1206
8165,1213
8188,1220
8212,1228
8234,1235
8255,1241
8276,1250
8298,1257
8319,1266
8342,1274
8365,1283
8389,1293
8413,1303
8437,1314
8464,1325
8489,1337
8515,1349
8541,1361
8567,1375
8594,1387
8620,1401
8646,1415
8671,1428
8697,1442
8722,1457
8747,1470
8771,1485
8796,1500
8820,1514
8841,1527
8862,1541
8885,1554
8907,1569
8930,1585
8953,1599
8976,1616
9000,1633
9025,1650
9050,1668
9076,1687
9101,1706
9127,1724
9152,1744
9179,1764
9204,1784
9229,1805
9254,1825
9279,1845
9303,1866
9328,1886
9351,1906
9373,1927
9396,1947
9417,1966
9438,1986
9459,2006
9480,2026
9500,2046
9520,2067
9541,2087
9561,2109
9582,2130
9602,2153
9623,2176
9644,2199
9665,2223
9686,2248
9707,2274
9728,2299
9749,2325
9770,2351
9790,2377
9811,2405
9830,2431
9850,2458
9869,2485
9888,2511
9906,2537
9924,2563
9942,2590
9959,2615
9974,2640
9991,2665
10007,2690
10022,2716
10037,2741
10052,2767
10068,2792
10082,2819
10098,2847
10114,2874
10130,2902
10144,2932
10160,2961
10176,2992
10192,3022
10207,3054
10222,3085
10238,3117
10253,3148
10267,3180
10282,3210
10296,3241
10309,3272
10322,3302
10334,3332
10347,3361
10359,3390
10370,3418
10381,3445
10391,3472
10402,3499
10411,3526
10422,3554
10431,3583
10441,3611
10451,3640
10460,3670
10470,3699
10479,3730
10489,3760
10497,3792
10507,3823
10515,3855
10524,3886
10533,3918
10541,3949
10549,3981
10556,4011
10563,4041
10571,4072
10578,4101
10584,4130
10591,4158
10596,4185
10602,4213
10607,4239
10613,4265
10618,4291
10623,4319
10628,4347
10633,4374
10638,4404
10643,4432
10648,4461
10653,4492
10658,4521
10662,4553
10667,4583
10671,4614
10676,4645
10679,4676
10683,4706
10686,4735
10689,4765
10691,4794
10695,4822
10697,4849
10698,4875
10700,4901
10701,4927
10702,4951
10703,4975
10703,5001
10704,5027
10704,5054
10703,5080
10703,5107
10702,5133
10701,5161
10699,5188
10698,5216
10696,5244
10693,5270
10691,5297
10688,5323
10686,5349
10683,5373
10681,5397
10678,5420
10676,5442
10672,5463
10669,5483
10667,5502
10664,5521
10661,5543
10658,5565
10654,5587
10650,5609
10646,5632
10642,5656
10638,5682
10633,5709
10627,5737
10622,5766
10617,5795
10612,5821
10607,5844
10603,5863
10601,5876
10600,5883
10599,5886
" style="stroke:#000000;stroke-width:32;
stroke-linejoin:bevel; stroke-linecap:butt;
"/>
<!-- Line -->
<polyline points="6058,238
6059,237
6062,233
6067,226
6075,216
6087,201
6101,182
6120,158
6143,128
6170,93
6200,54
6234,11
6270,-36
6309,-87
6351,-139
6393,-194
6436,-249
6480,-306
6524,-362
6567,-417
6609,-472
6651,-525
6692,-577
6731,-626
6769,-675
6806,-721
6840,-765
6874,-807
6907,-848
6937,-886
6967,-923
6997,-959
7024,-994
7051,-1026
7079,-1059
7104,-1090
7130,-1121
7155,-1150
7180,-1180
7205,-1208
7233,-1241
7262,-1275
7291,-1308
7320,-1341
7350,-1374
7379,-1406
7408,-1439
7438,-1472
7468,-1505
7498,-1538
7528,-1570
7559,-1603
7589,-1634
7619,-1667
7650,-1698
7680,-1730
7710,-1761
7739,-1792
7769,-1821
7798,-1850
7826,-1879
7855,-1907
7882,-1934
7909,-1961
7934,-1986
7961,-2011
7985,-2035
8009,-2058
8033,-2080
8056,-2102
8078,-2123
8100,-2143
8121,-2163
8142,-2183
8167,-2206
8192,-2228
8217,-2250
8241,-2272
8266,-2295
8290,-2317
8316,-2339
8341,-2361
8366,-2382
8391,-2404
8417,-2425
8443,-2447
8469,-2468
8494,-2489
8519,-2510
8545,-2531
8571,-2551
8596,-2572
8621,-2591
8646,-2611
8670,-2629
8695,-2648
8719,-2666
8743,-2685
8766,-2703
8790,-2721
8814,-2739
8838,-2756
8860,-2773
8883,-2790
8908,-2808
8932,-2826
8958,-2845
8984,-2864
9013,-2883
9042,-2906
9074,-2928
9107,-2952
9142,-2977
9180,-3003
9218,-3032
9259,-3060
9301,-3090
9344,-3121
9388,-3152
9432,-3183
9475,-3213
9514,-3241
9552,-3269
9585,-3292
9614,-3312
9637,-3329
9656,-3342
9669,-3352
9678,-3357
9682,-3361
9685,-3362
" style="stroke:#000000;stroke-width:32;
stroke-linejoin:bevel; stroke-linecap:butt;
"/>
<!-- Line -->
<polyline points="5920,208
5921,206
5922,203
5925,196
5930,185
5937,170
5946,148
5958,121
5972,89
5988,51
6008,7
6029,-41
6052,-95
6077,-152
6103,-213
6132,-277
6160,-342
6190,-408
6218,-475
6247,-541
6277,-607
6305,-672
6333,-735
6361,-797
6387,-857
6413,-916
6437,-972
6461,-1025
6485,-1077
6507,-1127
6529,-1174
6550,-1220
6570,-1266
6590,-1309
6608,-1350
6627,-1391
6645,-1430
6663,-1468
6681,-1506
6699,-1544
6717,-1581
6733,-1617
6753,-1657
6772,-1697
6791,-1737
6811,-1777
6831,-1817
6850,-1858
6870,-1898
6891,-1938
6911,-1979
6932,-2018
6952,-2059
6973,-2100
6994,-2141
7015,-2182
7036,-2223
7057,-2263
7079,-2304
7100,-2344
7121,-2383
7142,-2423
7162,-2460
7183,-2499
7203,-2536
7223,-2573
7243,-2608
7261,-2643
7280,-2678
7299,-2710
7317,-2743
7335,-2774
7353,-2805
7370,-2834
7386,-2862
7402,-2891
7418,-2918
7434,-2944
7449,-2970
7464,-2995
7484,-3028
7504,-3061
7524,-3092
7544,-3124
7563,-3155
7583,-3187
7604,-3218
7625,-3250
7647,-3282
7670,-3317
7693,-3352
7718,-3387
7743,-3423
7769,-3461
7796,-3499
7822,-3535
7847,-3572
7872,-3608
7896,-3640
7917,-3670
7935,-3695
7950,-3716
7962,-3733
7971,-3744
7976,-3752
7980,-3756
7981,-3758
" style="stroke:#000000;stroke-width:32;
stroke-linejoin:bevel; stroke-linecap:butt;
"/>
<!-- Line -->
<polyline points="4354,82
4352,80
4348,77
4340,71
4327,60
4310,47
4287,29
4261,7
4230,-16
4197,-44
4161,-72
4123,-102
4086,-132
4049,-162
4012,-191
3976,-219
3943,-245
3910,-270
3880,-295
3850,-317
3822,-338
3796,-358
3771,-376
3746,-394
3722,-411
3699,-428
3676,-444
3653,-459
3631,-475
3608,-491
3584,-507
3561,-521
3537,-537
3512,-553
3487,-567
3462,-583
3436,-599
3409,-615
3383,-630
3356,-646
3329,-662
3301,-677
3274,-692
3247,-707
3219,-722
3192,-737
3165,-750
3138,-765
3111,-777
3085,-791
3059,-804
3033,-816
3007,-828
2982,-840
2957,-852
2932,-864
2907,-875
2880,-887
2855,-898
2828,-909
2801,-921
2773,-933
2745,-944
2716,-956
2686,-969
2656,-980
2625,-992
2595,-1004
2563,-1016
2532,-1027
2500,-1039
2469,-1050
2438,-1062
2407,-1072
2376,-1084
2347,-1093
2318,-1104
2288,-1113
2260,-1123
2233,-1131
2205,-1140
2178,-1148
2152,-1156
2125,-1164
2098,-1172
2070,-1181
2041,-1188
2013,-1196
1984,-1204
1954,-1211
1924,-1218
1893,-1226
1863,-1233
1832,-1239
1800,-1247
1767,-1253
1736,-1259
1703,-1266
1671,-1272
1639,-1277
1607,-1282
1576,-1288
1545,-1292
1514,-1296
1484,-1300
1455,-1304
1424,-1308
1396,-1311
1366,-1314
1337,-1316
1310,-1318
1282,-1320
1254,-1322
1226,-1324
1196,-1325
1166,-1328
1135,-1329
1104,-1330
1071,-1331
1039,-1331
1005,-1332
972,-1332
938,-1332
903,-1331
870,-1331
835,-1330
801,-1329
767,-1328
733,-1327
700,-1324
667,-1322
635,-1320
603,-1318
572,-1316
541,-1313
511,-1310
480,-1307
451,-1303
420,-1300
390,-1296
360,-1293
329,-1289
298,-1283
266,-1279
234,-1274
201,-1268
167,-1262
134,-1256
100,-1250
66,-1243
31,-1235
-3,-1228
-37,-1220
-72,-1213
-106,-1205
-139,-1196
-173,-1188
-205,-1180
-238,-1171
-269,-1163
-301,-1154
-331,-1146
-361,-1137
-390,-1128
-419,-1119
-448,-1110
-476,-1101
-506,-1091
-534,-1082
-563,-1071
-594,-1061
-624,-1050
-655,-1039
-686,-1027
-718,-1015
-749,-1002
-782,-990
-814,-976
-848,-962
-880,-949
-914,-934
-946,-920
-979,-906
-1012,-891
-1043,-875
-1075,-860
-1106,-846
-1137,-831
-1167,-815
-1196,-801
-1226,-786
-1254,-770
-1282,-755
-1311,-740
-1338,-725
-1364,-710
-1392,-695
-1419,-680
-1446,-663
-1475,-646
-1503,-629
-1532,-612
-1562,-594
-1592,-575
-1622,-556
-1652,-537
-1682,-517
-1713,-497
-1743,-477
-1774,-456
-1804,-436
-1834,-415
-1863,-394
-1892,-374
-1921,-354
-1949,-333
-1975,-313
-2003,-293
-2028,-275
-2053,-255
-2078,-236
-2101,-217
-2125,-198
-2149,-179
-2172,-160
-2194,-141
-2217,-121
-2239,-101
-2262,-81
-2285,-61
-2308,-40
-2331,-18
-2354,3
-2379,25
-2402,48
-2426,71
-2449,94
-2473,118
-2496,142
-2519,166
-2543,191
-2566,216
-2588,240
-2612,264
-2634,289
-2655,313
-2677,338
-2698,362
-2718,386
-2739,409
-2759,433
-2779,456
-2797,480
-2817,504
-2837,529
-2857,553
-2877,578
-2897,603
-2917,629
-2938,657
-2960,684
-2981,712
-3003,741
-3025,770
-3047,799
-3069,830
-3091,860
-3114,892
-3137,922
-3159,954
-3181,984
-3203,1016
-3224,1046
-3245,1077
-3265,1106
-3285,1135
-3303,1165
-3322,1193
-3341,1220
-3358,1248
-3376,1275
-3392,1301
-3408,1328
-3424,1353
-3440,1380
-3457,1407
-3472,1435
-3488,1462
-3504,1490
-3520,1519
-3534,1547
-3550,1575
-3566,1605
-3581,1634
-3595,1664
-3610,1694
-3625,1723
-3638,1753
-3652,1783
-3666,1813
-3679,1842
-3692,1871
-3703,1900
-3715,1928
-3727,1955
-3737,1983
-3748,2009
-3757,2035
-3766,2061
-3775,2087
-3784,2112
-3793,2137
-3801,2164
-3809,2192
-3818,2220
-3826,2248
-3835,2278
-3843,2308
-3851,2341
-3861,2375
-3869,2411
-3879,2449
-3888,2490
-3899,2532
-3908,2576
-3919,2621
-3929,2666
-3939,2711
-3948,2753
-3956,2793
-3965,2828
-3971,2857
-3975,2880
-3980,2898
-3982,2909
-3983,2915
-3984,2918
" style="stroke:#000000;stroke-width:32;
stroke-linejoin:bevel; stroke-linecap:butt;
"/>
<!-- Line -->
<polyline points="1626,8258
1623,8257
1616,8256
1604,8253
1586,8249
1563,8244
1535,8238
1505,8230
1474,8223
1442,8215
1411,8207
1381,8200
1353,8193
1327,8185
1301,8179
1277,8172
1254,8164
1232,8158
1210,8151
1187,8142
1168,8136
1149,8129
1129,8121
1108,8113
1087,8104
1065,8096
1043,8086
1020,8076
996,8066
971,8054
946,8043
920,8031
895,8018
869,8006
844,7992
817,7979
792,7965
766,7951
741,7938
716,7924
691,7909
667,7895
642,7881
618,7865
597,7853
575,7839
554,7825
532,7811
509,7796
486,7780
461,7763
438,7746
413,7730
388,7712
363,7693
338,7674
311,7655
286,7635
260,7615
235,7595
209,7575
184,7554
159,7534
135,7513
111,7493
88,7474
65,7453
43,7433
22,7414
0,7394
-19,7374
-40,7354
-60,7334
-81,7313
-101,7293
-121,7271
-142,7250
-162,7227
-183,7204
-204,7181
-225,7156
-246,7131
-267,7106
-288,7081
-309,7055
-330,7028
-351,7002
-371,6975
-392,6949
-411,6921
-431,6895
-450,6869
-468,6843
-486,6816
-502,6790
-520,6765
-536,6740
-552,6714
-567,6689
-583,6664
-599,6639
-614,6613
-629,6586
-644,6560
-660,6533
-676,6504
-690,6476
-706,6448
-722,6417
-738,6388
-753,6356
-769,6326
-784,6295
-799,6263
-814,6232
-829,6200
-844,6169
-857,6138
-871,6107
-883,6077
-896,6047
-909,6017
-920,5989
-932,5961
-942,5933
-953,5906
-963,5880
-973,5854
-983,5825
-993,5796
-1003,5767
-1013,5738
-1022,5709
-1032,5679
-1041,5649
-1050,5618
-1059,5587
-1068,5555
-1077,5524
-1086,5492
-1095,5461
-1103,5429
-1110,5398
-1118,5367
-1125,5337
-1132,5307
-1140,5277
-1146,5249
-1152,5220
-1158,5193
-1164,5166
-1169,5140
-1174,5113
-1180,5088
-1185,5060
-1190,5033
-1194,5004
-1199,4976
-1205,4946
-1210,4917
-1214,4888
-1219,4857
-1224,4827
-1229,4796
-1233,4765
-1237,4734
-1240,4704
-1245,4674
-1248,4643
-1251,4614
-1253,4585
-1256,4557
-1258,4530
-1259,4503
-1261,4478
-1262,4453
-1264,4428
-1265,4404
-1265,4377
-1266,4352
-1266,4325
-1265,4299
-1265,4272
-1264,4245
-1262,4218
-1260,4191
-1259,4163
-1257,4135
-1255,4109
-1253,4081
-1250,4055
-1248,4030
-1245,4005
-1243,3982
-1239,3959
-1237,3937
-1234,3916
-1231,3896
-1229,3876
-1226,3858
-1223,3835
-1219,3813
-1215,3792
-1212,3769
-1208,3746
-1204,3722
-1199,3696
-1194,3670
-1189,3641
-1184,3612
-1179,3585
-1173,3558
-1169,3535
-1165,3517
-1163,3504
-1162,3497
-1161,3493
" style="stroke:#000000;stroke-width:32;
stroke-linejoin:bevel; stroke-linecap:butt;
"/>
<!-- Line -->
<polyline points="3011,9100
3009,9101
3005,9103
2999,9108
2990,9116
2975,9126
2956,9139
2932,9156
2903,9176
2870,9201
2832,9228
2790,9257
2746,9289
2699,9322
2649,9357
2599,9393
2548,9428
2497,9465
2447,9500
2397,9534
2349,9568
2302,9601
2257,9632
2213,9662
2171,9691
2131,9718
2092,9744
2055,9769
2019,9793
1986,9815
1952,9836
1921,9856
1889,9876
1859,9895
1829,9912
1800,9930
1772,9947
1743,9964
1710,9983
1676,10003
1641,10020
1608,10039
1574,10057
1540,10075
1505,10093
1469,10111
1435,10129
1398,10146
1362,10163
1325,10180
1290,10197
1253,10214
1216,10230
1179,10246
1143,10262
1106,10278
1069,10292
1034,10307
998,10322
963,10335
929,10349
894,10363
860,10375
828,10388
794,10399
763,10411
731,10423
700,10434
668,10446
637,10456
605,10467
574,10478
542,10489
510,10500
477,10511
445,10522
411,10533
376,10544
342,10555
306,10566
271,10578
235,10590
199,10600
162,10612
125,10622
89,10634
52,10644
16,10655
-19,10665
-55,10675
-90,10684
-124,10693
-159,10703
-192,10711
-225,10720
-257,10727
-288,10735
-320,10743
-350,10749
-380,10755
-409,10762
-437,10768
-469,10774
-499,10781
-530,10786
-560,10791
-592,10796
-622,10802
-655,10806
-686,10811
-719,10815
-751,10819
-785,10824
-818,10827
-851,10831
-886,10834
-919,10837
-953,10839
-986,10843
-1020,10845
-1053,10847
-1086,10848
-1119,10850
-1150,10851
-1182,10852
-1213,10853
-1245,10853
-1275,10854
-1306,10854
-1335,10854
-1365,10854
-1396,10854
-1426,10854
-1457,10853
-1487,10852
-1520,10852
-1551,10851
-1585,10850
-1618,10848
-1653,10847
-1689,10845
-1724,10843
-1761,10839
-1798,10837
-1836,10834
-1874,10831
-1912,10828
-1951,10824
-1989,10820
-2028,10816
-2066,10812
-2103,10807
-2141,10803
-2178,10797
-2215,10792
-2251,10787
-2287,10781
-2322,10775
-2356,10769
-2391,10763
-2425,10756
-2459,10749
-2489,10743
-2519,10737
-2550,10730
-2580,10723
-2612,10716
-2643,10708
-2676,10700
-2708,10691
-2742,10682
-2775,10672
-2810,10663
-2845,10653
-2880,10642
-2916,10630
-2952,10619
-2987,10607
-3024,10595
-3061,10582
-3098,10570
-3134,10557
-3171,10543
-3208,10530
-3244,10516
-3280,10501
-3316,10488
-3351,10473
-3386,10458
-3421,10444
-3455,10429
-3489,10414
-3523,10399
-3556,10384
-3590,10368
-3625,10352
-3654,10339
-3686,10324
-3716,10308
-3748,10292
-3779,10277
-3812,10260
-3844,10243
-3878,10226
-3911,10207
-3945,10190
-3980,10171
-4015,10151
-4051,10131
-4087,10110
-4123,10089
-4160,10067
-4197,10045
-4234,10022
-4271,9998
-4308,9975
-4345,9952
-4382,9928
-4418,9904
-4454,9880
-4491,9856
-4525,9832
-4561,9807
-4596,9782
-4629,9758
-4663,9734
-4696,9709
-4728,9685
-4760,9659
-4791,9635
-4823,9610
-4853,9586
-4882,9561
-4913,9535
-4942,9510
-4972,9484
-5001,9458
-5032,9432
-5061,9404
-5090,9377
-5121,9348
-5151,9319
-5181,9290
-5211,9259
-5243,9228
-5273,9196
-5303,9165
-5335,9132
-5365,9100
-5396,9066
-5427,9033
-5458,8998
-5487,8964
-5518,8930
-5547,8895
-5576,8861
-5606,8827
-5634,8792
-5661,8759
-5689,8725
-5716,8691
-5742,8658
-5767,8625
-5793,8593
-5817,8561
-5841,8530
-5864,8498
-5886,8468
-5908,8437
-5930,8407
-5951,8377
-5972,8347
-5993,8316
-6015,8284
-6036,8253
-6057,8221
-6078,8188
-6099,8156
-6120,8123
-6141,8090
-6162,8056
-6183,8022
-6204,7987
-6225,7952
-6246,7917
-6266,7881
-6287,7844
-6307,7808
-6327,7772
-6347,7735
-6367,7698
-6386,7661
-6406,7626
-6424,7589
-6443,7552
-6460,7517
-6478,7481
-6495,7446
-6512,7411
-6528,7376
-6543,7342
-6559,7308
-6574,7274
-6588,7241
-6603,7208
-6617,7175
-6630,7143
-6645,7110
-6659,7075
-6674,7040
-6687,7004
-6702,6969
-6716,6932
-6730,6895
-6744,6857
-6759,6818
-6772,6780
-6787,6741
-6802,6701
-6815,6660
-6830,6619
-6844,6578
-6857,6537
-6871,6495
-6885,6454
-6898,6412
-6912,6371
-6924,6330
-6937,6290
-6950,6250
-6961,6212
-6973,6173
-6983,6135
-6995,6098
-7004,6061
-7015,6026
-7024,5991
-7034,5956
-7042,5924
-7050,5890
-7059,5859
-7067,5827
-7076,5794
-7084,5760
-7091,5728
-7099,5695
-7107,5661
-7114,5628
-7121,5594
-7128,5561
-7135,5527
-7142,5492
-7149,5458
-7155,5423
-7162,5388
-7168,5353
-7173,5318
-7180,5282
-7185,5248
-7190,5213
-7195,5179
-7201,5144
-7205,5109
-7210,5076
-7214,5042
-7217,5009
-7222,4977
-7225,4944
-7228,4912
-7231,4880
-7234,4849
-7237,4817
-7240,4786
-7243,4754
-7245,4723
-7248,4691
-7250,4658
-7252,4625
-7254,4592
-7256,4557
-7258,4521
-7260,4486
-7261,4450
-7264,4413
-7266,4375
-7267,4338
-7269,4300
-7270,4262
-7271,4223
-7272,4185
-7273,4148
-7274,4110
-7275,4072
-7275,4035
-7276,3998
-7276,3964
-7277,3929
-7277,3895
-7277,3862
-7277,3829
-7277,3799
-7277,3769
-7276,3739
-7276,3711
-7276,3682
-7275,3656
-7274,3620
-7273,3586
-7272,3551
-7270,3518
-7269,3485
-7267,3451
-7265,3419
-7262,3385
-7260,3353
-7257,3321
-7255,3290
-7252,3258
-7249,3229
-7246,3199
-7243,3170
-7239,3143
-7236,3116
-7233,3090
-7230,3065
-7226,3041
-7223,3018
-7219,2996
-7216,2974
-7213,2953
-7209,2929
-7205,2906
-7201,2882
-7196,2858
-7192,2833
-7188,2807
-7183,2779
-7176,2749
-7171,2718
-7165,2685
-7158,2650
-7151,2616
-7144,2580
-7138,2546
-7131,2514
-7126,2487
-7121,2464
-7118,2447
-7116,2435
-7114,2429
-7113,2426
" style="stroke:#000000;stroke-width:32;
stroke-linejoin:bevel; stroke-linecap:butt;
"/>
<!-- Line -->
<polyline points="5503,123
5503,121
5503,117
5504,110
5505,97
5506,79
5508,56
5511,27
5513,-8
5518,-49
5521,-95
5525,-146
5530,-201
5534,-260
5540,-320
5545,-383
5550,-445
5555,-508
5561,-570
5565,-632
5570,-690
5575,-748
5580,-805
5584,-858
5588,-910
5592,-960
5595,-1007
5599,-1054
5603,-1097
5606,-1140
5609,-1181
5612,-1219
5615,-1258
5618,-1296
5620,-1333
5624,-1370
5627,-1405
5629,-1441
5632,-1478
5634,-1516
5637,-1553
5639,-1590
5643,-1628
5645,-1667
5648,-1704
5650,-1743
5653,-1782
5655,-1822
5658,-1862
5660,-1903
5662,-1943
5666,-1984
5668,-2025
5671,-2066
5673,-2107
5675,-2149
5678,-2190
5680,-2230
5682,-2270
5685,-2311
5687,-2351
5689,-2391
5691,-2430
5693,-2469
5695,-2507
5697,-2544
5699,-2581
5701,-2618
5702,-2654
5704,-2689
5707,-2725
5708,-2760
5710,-2794
5711,-2829
5712,-2864
5714,-2899
5715,-2934
5717,-2970
5718,-3005
5719,-3043
5721,-3081
5722,-3120
5724,-3161
5725,-3203
5728,-3247
5729,-3292
5731,-3340
5732,-3390
5734,-3441
5736,-3495
5737,-3549
5739,-3606
5741,-3664
5742,-3721
5744,-3779
5746,-3836
5749,-3891
5750,-3944
5752,-3993
5753,-4038
5754,-4078
5755,-4114
5756,-4142
5757,-4166
5757,-4184
5758,-4197
5758,-4204
5758,-4208
5758,-4211
" style="stroke:#000000;stroke-width:32;
stroke-linejoin:bevel; stroke-linecap:butt;
"/>
<!-- Line -->
<polyline points="3385,9233
3384,9234
3382,9237
3377,9244
3371,9253
3360,9266
3346,9283
3330,9306
3309,9333
3285,9364
3256,9400
3225,9441
3191,9485
3154,9533
3116,9583
3075,9635
3033,9690
2991,9744
2948,9799
2904,9855
2862,9908
2820,9962
2781,10014
2741,10065
2702,10114
2665,10161
2629,10206
2595,10250
2561,10292
2529,10332
2498,10371
2469,10408
2439,10444
2412,10478
2385,10512
2359,10543
2333,10575
2308,10604
2283,10635
2259,10663
2235,10691
2212,10720
2183,10752
2156,10784
2128,10815
2100,10847
2073,10878
2045,10910
2016,10941
1988,10973
1960,11004
1931,11035
1903,11066
1874,11098
1845,11128
1816,11159
1786,11189
1758,11219
1730,11250
1701,11279
1673,11308
1645,11336
1617,11364
1590,11392
1564,11418
1538,11444
1511,11469
1487,11493
1462,11518
1439,11541
1416,11563
1393,11585
1371,11606
1350,11626
1329,11646
1308,11665
1288,11683
1268,11702
1243,11725
1218,11748
1193,11770
1169,11792
1144,11814
1120,11836
1095,11858
1069,11880
1044,11901
1019,11923
993,11944
967,11966
941,11987
916,12008
890,12029
865,12050
839,12070
814,12091
789,12110
764,12130
740,12149
716,12167
691,12185
667,12204
644,12222
620,12240
596,12258
572,12276
550,12292
527,12309
502,12327
477,12345
452,12364
426,12383
397,12403
367,12425
337,12447
303,12471
267,12496
230,12522
192,12551
151,12579
108,12609
65,12640
20,12671
-22,12702
-64,12732
-104,12761
-141,12788
-175,12811
-204,12831
-227,12848
-246,12861
-259,12871
-268,12876
-272,12880
-275,12881
" style="stroke:#000000;stroke-width:32;
stroke-linejoin:bevel; stroke-linecap:butt;
"/>
<!-- Line -->
<polyline points="3518,9271
3517,9273
3516,9276
3512,9283
3507,9294
3501,9310
3491,9332
3480,9358
3465,9391
3449,9428
3430,9472
3408,9522
3385,9575
3360,9632
3334,9693
3307,9757
3277,9822
3249,9888
3219,9955
3190,10022
3161,10088
3132,10153
3105,10216
3078,10278
3050,10338
3025,10396
3000,10452
2977,10506
2954,10557
2931,10607
2910,10655
2889,10701
2869,10746
2849,10789
2830,10830
2811,10871
2793,10911
2774,10949
2758,10987
2740,11024
2722,11061
2705,11098
2685,11138
2666,11177
2646,11218
2627,11258
2607,11298
2587,11338
2567,11378
2548,11419
2528,11459
2507,11500
2487,11541
2466,11581
2445,11622
2424,11662
2403,11703
2382,11744
2360,11784
2339,11824
2318,11864
2297,11903
2277,11942
2256,11980
2236,12017
2216,12054
2196,12090
2177,12124
2158,12158
2139,12192
2121,12224
2103,12256
2086,12286
2069,12316
2052,12344
2036,12372
2020,12399
2005,12426
1989,12451
1974,12476
1954,12510
1934,12542
1914,12574
1895,12605
1875,12637
1855,12668
1835,12700
1813,12731
1792,12764
1769,12798
1744,12833
1720,12869
1695,12904
1669,12942
1643,12980
1616,13017
1590,13054
1565,13089
1542,13122
1521,13151
1502,13176
1487,13197
1476,13214
1466,13226
1461,13233
1458,13237
1457,13239
" style="stroke:#000000;stroke-width:32;
stroke-linejoin:bevel; stroke-linecap:butt;
"/>
<!-- Line -->
<polyline points="3645,9294
3644,9296
3643,9300
3640,9308
3636,9319
3631,9336
3624,9358
3614,9386
3604,9420
3590,9459
3575,9503
3560,9552
3543,9605
3524,9659
3505,9717
3486,9777
3466,9837
3446,9897
3426,9955
3407,10013
3388,10071
3371,10125
3353,10179
3336,10230
3319,10279
3303,10327
3289,10372
3274,10415
3260,10457
3247,10497
3233,10536
3220,10574
3209,10611
3196,10646
3185,10681
3173,10716
3162,10750
3150,10784
3138,10819
3126,10854
3113,10890
3101,10925
3089,10961
3077,10998
3064,11034
3050,11070
3038,11108
3025,11145
3012,11183
2998,11222
2984,11259
2972,11298
2957,11337
2943,11376
2930,11415
2916,11454
2902,11492
2889,11530
2874,11569
2860,11607
2847,11645
2834,11682
2820,11719
2807,11755
2794,11792
2781,11826
2768,11861
2755,11896
2743,11929
2731,11963
2719,11996
2706,12029
2695,12061
2682,12094
2670,12127
2658,12159
2645,12193
2633,12225
2620,12260
2606,12295
2594,12330
2579,12367
2564,12405
2550,12444
2534,12485
2518,12528
2500,12572
2482,12618
2465,12666
2445,12717
2425,12768
2405,12820
2384,12874
2363,12928
2343,12982
2322,13035
2302,13086
2283,13135
2265,13182
2248,13224
2234,13261
2221,13294
2211,13321
2202,13342
2196,13359
2192,13371
2188,13379
2187,13382
2186,13384
" style="stroke:#000000;stroke-width:32;
stroke-linejoin:bevel; stroke-linecap:butt;
"/>
<!-- Line -->
<polyline points="4753,20
4752,18
4750,14
4746,7
4739,-5
4729,-23
4718,-46
4702,-74
4684,-108
4663,-146
4639,-190
4615,-236
4587,-284
4560,-334
4532,-386
4503,-437
4475,-488
4448,-538
4420,-586
4394,-634
4369,-678
4344,-721
4321,-762
4298,-801
4276,-838
4255,-874
4234,-908
4214,-940
4195,-972
4176,-1002
4156,-1032
4137,-1061
4118,-1089
4099,-1117
4079,-1147
4058,-1176
4038,-1206
4016,-1235
3995,-1265
3973,-1294
3950,-1324
3927,-1354
3904,-1384
3880,-1415
3856,-1445
3830,-1477
3805,-1507
3779,-1538
3754,-1568
3728,-1598
3701,-1629
3675,-1658
3648,-1688
3622,-1717
3595,-1745
3569,-1774
3544,-1801
3518,-1827
3492,-1854
3467,-1880
3442,-1905
3418,-1929
3394,-1953
3369,-1976
3344,-2001
3320,-2024
3296,-2046
3271,-2069
3247,-2092
3222,-2115
3195,-2137
3169,-2161
3143,-2184
3116,-2207
3087,-2232
3060,-2256
3030,-2280
3002,-2303
2973,-2327
2943,-2351
2913,-2375
2883,-2399
2853,-2423
2823,-2447
2793,-2469
2764,-2492
2734,-2514
2705,-2536
2677,-2557
2648,-2578
2620,-2598
2593,-2618
2565,-2637
2539,-2655
2513,-2674
2487,-2691
2460,-2708
2435,-2725
2408,-2743
2381,-2761
2352,-2779
2325,-2796
2297,-2814
2267,-2832
2239,-2850
2208,-2867
2178,-2885
2148,-2902
2117,-2920
2086,-2938
2053,-2955
2022,-2973
1989,-2990
1956,-3006
1924,-3023
1892,-3039
1860,-3055
1828,-3070
1797,-3085
1765,-3100
1734,-3113
1703,-3127
1674,-3140
1644,-3152
1614,-3165
1585,-3176
1555,-3188
1526,-3199
1499,-3210
1470,-3219
1442,-3230
1414,-3239
1384,-3250
1354,-3259
1323,-3270
1292,-3279
1260,-3290
1227,-3299
1194,-3309
1161,-3318
1126,-3328
1091,-3337
1057,-3346
1021,-3355
985,-3363
950,-3372
914,-3380
878,-3388
843,-3396
808,-3403
773,-3411
739,-3418
704,-3424
669,-3430
636,-3436
603,-3442
570,-3447
537,-3453
504,-3457
471,-3462
440,-3466
409,-3470
377,-3475
345,-3478
312,-3482
279,-3485
245,-3489
211,-3492
175,-3496
139,-3499
102,-3501
65,-3504
27,-3506
-11,-3509
-50,-3511
-90,-3512
-130,-3514
-170,-3517
-209,-3518
-249,-3519
-290,-3520
-330,-3520
-370,-3521
-410,-3521
-450,-3521
-489,-3520
-528,-3520
-566,-3519
-605,-3519
-643,-3517
-681,-3516
-720,-3514
-758,-3512
-795,-3510
-829,-3509
-864,-3507
-899,-3504
-934,-3502
-971,-3500
-1007,-3497
-1044,-3493
-1082,-3489
-1121,-3486
-1160,-3482
-1199,-3478
-1240,-3474
-1281,-3468
-1323,-3463
-1365,-3458
-1407,-3451
-1450,-3445
-1493,-3439
-1537,-3433
-1581,-3425
-1624,-3418
-1667,-3411
-1710,-3402
-1753,-3394
-1796,-3385
-1838,-3377
-1880,-3369
-1921,-3359
-1962,-3350
-2003,-3340
-2043,-3331
-2082,-3320
-2121,-3310
-2159,-3300
-2198,-3289
-2235,-3278
-2272,-3267
-2310,-3256
-2347,-3244
-2385,-3232
-2422,-3219
-2459,-3206
-2497,-3193
-2536,-3179
-2575,-3165
-2614,-3149
-2654,-3134
-2693,-3118
-2733,-3102
-2774,-3085
-2814,-3067
-2856,-3049
-2897,-3032
-2938,-3013
-2980,-2994
-3021,-2975
-3062,-2955
-3104,-2935
-3144,-2915
-3185,-2895
-3225,-2874
-3265,-2854
-3303,-2834
-3341,-2813
-3379,-2793
-3416,-2773
-3453,-2753
-3488,-2733
-3523,-2713
-3558,-2693
-3590,-2674
-3624,-2655
-3655,-2635
-3688,-2616
-3718,-2596
-3750,-2577
-3781,-2556
-3814,-2536
-3845,-2515
-3878,-2494
-3909,-2472
-3942,-2451
-3973,-2429
-4006,-2406
-4038,-2383
-4071,-2360
-4103,-2335
-4136,-2311
-4170,-2287
-4202,-2262
-4236,-2237
-4268,-2212
-4301,-2185
-4333,-2160
-4366,-2134
-4398,-2108
-4430,-2081
-4461,-2055
-4492,-2029
-4523,-2003
-4553,-1976
-4582,-1951
-4612,-1925
-4640,-1900
-4668,-1875
-4696,-1849
-4722,-1824
-4749,-1799
-4774,-1775
-4801,-1750
-4826,-1725
-4852,-1700
-4878,-1674
-4906,-1647
-4932,-1619
-4959,-1592
-4986,-1564
-5014,-1535
-5042,-1506
-5070,-1477
-5098,-1446
-5127,-1416
-5155,-1384
-5185,-1353
-5213,-1320
-5243,-1288
-5271,-1255
-5300,-1223
-5329,-1190
-5357,-1158
-5385,-1124
-5414,-1091
-5441,-1060
-5467,-1027
-5493,-996
-5519,-965
-5544,-935
-5569,-904
-5592,-875
-5615,-847
-5637,-818
-5659,-790
-5680,-763
-5701,-737
-5721,-710
-5741,-684
-5762,-657
-5782,-629
-5802,-602
-5822,-575
-5842,-546
-5862,-519
-5882,-491
-5902,-462
-5922,-434
-5941,-405
-5961,-376
-5981,-347
-5999,-317
-6019,-287
-6038,-257
-6057,-227
-6076,-197
-6095,-166
-6113,-137
-6131,-107
-6149,-77
-6166,-48
-6183,-18
-6200,9
-6216,37
-6232,66
-6247,94
-6263,122
-6278,150
-6292,178
-6307,205
-6322,234
-6337,262
-6351,290
-6367,320
-6382,349
-6397,380
-6412,410
-6428,441
-6444,474
-6459,507
-6476,540
-6492,574
-6508,607
-6524,642
-6540,677
-6557,711
-6573,746
-6588,781
-6604,815
-6620,849
-6635,882
-6649,916
-6664,949
-6678,980
-6691,1012
-6704,1042
-6717,1071
-6729,1100
-6741,1128
-6752,1154
-6763,1182
-6773,1207
-6784,1232
-6796,1265
-6809,1297
-6822,1329
-6833,1360
-6845,1392
-6856,1423
-6867,1455
-6877,1485
-6888,1516
-6898,1546
-6908,1576
-6917,1606
-6927,1635
-6935,1664
-6943,1691
-6951,1717
-6958,1743
-6965,1769
-6972,1793
-6978,1816
-6984,1838
-6990,1860
-6995,1882
-7000,1903
-7006,1926
-7012,1948
-7017,1972
-7022,1995
-7028,2020
-7034,2047
-7040,2074
-7046,2103
-7053,2134
-7060,2167
-7067,2201
-7075,2237
-7082,2271
-7089,2306
-7096,2338
-7101,2365
-7106,2388
-7109,2405
-7111,2416
-7112,2423
-7113,2426
" style="stroke:#000000;stroke-width:32;
stroke-linejoin:bevel; stroke-linecap:butt;
"/>
<!-- Line -->
<polyline points="3362,219
3359,218
3353,217
3341,215
3324,212
3301,207
3273,202
3241,196
3208,190
3172,183
3137,177
3102,171
3069,165
3038,160
3008,156
2980,152
2954,148
2929,144
2904,142
2880,139
2856,137
2833,135
2811,134
2789,133
2766,131
2743,131
2719,130
2693,129
2668,129
2642,129
2615,129
2587,130
2559,130
2530,131
2501,133
2472,134
2443,136
2413,138
2384,140
2355,143
2326,146
2298,150
2269,153
2241,157
2213,160
2184,165
2160,169
2135,173
2110,177
2083,182
2056,186
2029,192
2002,198
1972,204
1943,211
1913,217
1883,224
1851,232
1821,239
1790,247
1758,256
1727,264
1695,272
1664,282
1633,290
1603,300
1573,309
1544,319
1514,328
1486,339
1459,348
1432,358
1404,368
1378,379
1352,389
1324,399
1298,411
1271,423
1244,434
1216,447
1188,459
1160,473
1131,487
1102,501
1072,516
1043,532
1014,548
984,563
955,580
925,596
897,613
868,629
840,647
812,664
785,681
759,698
732,714
707,731
682,748
658,765
634,782
609,799
585,816
561,834
537,852
512,871
488,890
462,910
437,930
411,951
385,972
360,993
332,1015
306,1038
280,1061
254,1084
227,1107
202,1130
176,1153
152,1176
127,1199
102,1222
79,1245
57,1267
35,1288
14,1310
-6,1331
-26,1352
-46,1373
-66,1393
-86,1415
-107,1438
-127,1460
-146,1483
-166,1506
-187,1530
-207,1554
-228,1580
-248,1605
-269,1630
-289,1655
-310,1681
-330,1707
-350,1733
-369,1759
-389,1784
-407,1809
-426,1835
-444,1859
-460,1883
-477,1906
-493,1929
-509,1952
-524,1974
-539,1996
-554,2018
-570,2041
-585,2065
-601,2089
-617,2113
-633,2138
-648,2163
-665,2188
-681,2215
-698,2241
-713,2268
-729,2295
-745,2322
-761,2348
-776,2374
-791,2401
-805,2427
-818,2452
-832,2477
-845,2501
-856,2524
-868,2548
-879,2571
-890,2593
-900,2615
-911,2639
-921,2663
-932,2687
-941,2711
-952,2737
-961,2762
-971,2787
-980,2813
-990,2838
-998,2865
-1006,2890
-1015,2916
-1023,2940
-1030,2965
-1038,2988
-1045,3012
-1051,3034
-1057,3055
-1063,3076
-1068,3096
-1074,3114
-1078,3132
-1084,3154
-1089,3175
-1095,3197
-1100,3219
-1105,3241
-1110,3266
-1117,3291
-1123,3318
-1129,3345
-1135,3375
-1141,3402
-1147,3429
-1152,3451
-1155,3470
-1159,3483
-1160,3490
-1161,3493
" style="stroke:#000000;stroke-width:32;
stroke-linejoin:bevel; stroke-linecap:butt;
"/>
<!-- Line -->
<polyline points="5226,69
5226,67
5224,62
5223,55
5218,43
5214,25
5208,1
5201,-28
5191,-65
5180,-107
5167,-155
5153,-208
5138,-266
5122,-327
5104,-392
5086,-459
5068,-528
5050,-596
5032,-665
5014,-732
4996,-799
4978,-865
4961,-928
4944,-990
4929,-1048
4913,-1105
4898,-1159
4883,-1211
4869,-1260
4856,-1309
4843,-1355
4830,-1399
4817,-1441
4806,-1482
4793,-1523
4782,-1562
4770,-1599
4759,-1636
4747,-1673
4735,-1710
4722,-1752
4709,-1794
4696,-1835
4681,-1877
4667,-1919
4654,-1960
4639,-2002
4624,-2044
4609,-2086
4595,-2127
4579,-2169
4564,-2211
4549,-2253
4533,-2293
4518,-2334
4502,-2375
4487,-2415
4471,-2455
4456,-2494
4440,-2533
4426,-2571
4411,-2607
4396,-2643
4382,-2678
4368,-2711
4354,-2744
4341,-2775
4327,-2807
4314,-2836
4302,-2866
4289,-2893
4278,-2920
4265,-2948
4254,-2974
4240,-3004
4225,-3035
4212,-3065
4198,-3096
4183,-3125
4170,-3154
4155,-3185
4140,-3214
4125,-3245
4111,-3274
4095,-3304
4080,-3334
4065,-3363
4050,-3393
4034,-3422
4018,-3451
4003,-3480
3988,-3508
3972,-3537
3958,-3564
3942,-3591
3927,-3617
3912,-3645
3897,-3670
3882,-3696
3867,-3722
3853,-3748
3837,-3774
3823,-3798
3808,-3823
3793,-3848
3777,-3875
3761,-3902
3744,-3930
3727,-3960
3708,-3991
3687,-4024
3666,-4058
3644,-4096
3619,-4135
3594,-4176
3568,-4219
3541,-4263
3513,-4308
3485,-4353
3457,-4399
3429,-4444
3403,-4486
3379,-4524
3358,-4559
3339,-4590
3324,-4614
3312,-4634
3303,-4647
3298,-4656
3295,-4661
3294,-4663
" style="stroke:#000000;stroke-width:32;
stroke-linejoin:bevel; stroke-linecap:butt;
"/>
<!-- Line -->
<polyline points="5364,96
5364,94
5364,90
5364,82
5364,71
5364,53
5363,30
5363,1
5363,-33
5363,-75
5362,-122
5362,-176
5361,-235
5361,-298
5360,-364
5359,-433
5359,-503
5358,-576
5357,-649
5356,-722
5355,-794
5354,-865
5354,-934
5353,-1002
5352,-1067
5351,-1131
5350,-1192
5349,-1251
5348,-1308
5346,-1362
5345,-1415
5344,-1465
5342,-1514
5341,-1562
5340,-1607
5339,-1652
5337,-1695
5336,-1738
5334,-1780
5333,-1821
5331,-1862
5330,-1902
5328,-1947
5325,-1991
5323,-2035
5320,-2079
5318,-2124
5316,-2169
5313,-2214
5311,-2259
5308,-2304
5304,-2349
5301,-2395
5298,-2440
5295,-2487
5291,-2532
5288,-2578
5285,-2623
5280,-2669
5276,-2714
5273,-2759
5269,-2803
5265,-2847
5260,-2890
5256,-2932
5253,-2973
5249,-3014
5245,-3054
5240,-3092
5236,-3130
5232,-3167
5228,-3203
5224,-3237
5219,-3272
5215,-3304
5212,-3336
5208,-3367
5204,-3398
5199,-3427
5195,-3457
5190,-3496
5185,-3533
5179,-3570
5173,-3607
5167,-3643
5161,-3679
5154,-3717
5147,-3755
5140,-3793
5132,-3833
5124,-3875
5116,-3917
5106,-3961
5097,-4005
5087,-4050
5078,-4094
5068,-4138
5059,-4180
5049,-4219
5042,-4255
5035,-4285
5029,-4310
5025,-4330
5022,-4344
5020,-4353
5018,-4359
5018,-4361
" style="stroke:#000000;stroke-width:32;
stroke-linejoin:bevel; stroke-linecap:butt;
"/>
<!-- Line -->
<polyline points="2472,8860
2470,8861
2465,8862
2456,8866
2441,8871
2423,8877
2397,8886
2368,8896
2334,8908
2297,8920
2257,8934
2215,8948
2173,8961
2131,8975
2090,8988
2050,9001
2012,9013
1975,9024
1942,9035
1908,9044
1877,9054
1847,9062
1818,9070
1791,9078
1763,9084
1737,9090
1710,9097
1683,9103
1657,9108
1631,9113
1604,9119
1576,9124
1548,9128
1520,9133
1490,9138
1461,9142
1432,9146
1400,9150
1370,9154
1338,9158
1307,9161
1274,9164
1243,9167
1211,9170
1180,9172
1148,9174
1117,9176
1086,9177
1056,9180
1026,9181
997,9182
967,9182
939,9183
912,9183
883,9184
856,9184
829,9183
801,9183
772,9183
744,9182
716,9181
686,9180
656,9179
625,9176
595,9175
563,9173
532,9171
499,9169
468,9166
435,9164
404,9161
371,9158
340,9154
309,9151
278,9147
248,9144
218,9140
190,9137
161,9132
133,9128
106,9124
79,9120
53,9116
27,9111
0,9106
-28,9101
-56,9096
-85,9090
-113,9084
-142,9078
-172,9071
-202,9064
-233,9057
-264,9049
-295,9042
-326,9034
-358,9025
-389,9017
-420,9008
-452,8999
-482,8991
-513,8981
-543,8972
-573,8962
-602,8953
-630,8943
-659,8934
-687,8924
-714,8915
-743,8906
-768,8896
-794,8887
-820,8876
-848,8867
-875,8856
-903,8845
-932,8833
-961,8822
-991,8809
-1021,8796
-1051,8784
-1083,8770
-1114,8756
-1146,8743
-1176,8729
-1208,8714
-1239,8700
-1270,8685
-1300,8670
-1331,8656
-1360,8641
-1388,8626
-1417,8613
-1445,8598
-1472,8583
-1499,8569
-1526,8554
-1552,8539
-1579,8524
-1605,8509
-1631,8494
-1657,8477
-1685,8461
-1712,8445
-1739,8427
-1767,8409
-1796,8390
-1824,8371
-1854,8352
-1882,8332
-1911,8312
-1940,8292
-1969,8271
-1997,8250
-2026,8229
-2054,8209
-2081,8188
-2109,8167
-2135,8148
-2160,8128
-2185,8108
-2211,8088
-2234,8068
-2258,8048
-2281,8029
-2304,8009
-2327,7989
-2349,7969
-2372,7949
-2395,7928
-2418,7907
-2443,7885
-2466,7863
-2490,7840
-2515,7816
-2539,7792
-2564,7767
-2588,7742
-2614,7717
-2639,7691
-2663,7665
-2688,7639
-2712,7613
-2737,7587
-2760,7561
-2783,7534
-2806,7508
-2828,7483
-2850,7457
-2871,7432
-2892,7406
-2913,7381
-2933,7356
-2954,7331
-2972,7307
-2991,7282
-3009,7258
-3028,7233
-3048,7207
-3067,7181
-3087,7154
-3107,7126
-3127,7098
-3147,7069
-3167,7040
-3188,7011
-3208,6980
-3229,6950
-3249,6919
-3269,6889
-3289,6858
-3308,6827
-3327,6797
-3345,6767
-3363,6737
-3381,6707
-3399,6679
-3415,6649
-3432,6622
-3447,6594
-3462,6566
-3477,6540
-3491,6513
-3505,6487
-3519,6460
-3532,6434
-3545,6407
-3559,6381
-3571,6353
-3585,6325
-3597,6297
-3611,6268
-3624,6239
-3636,6209
-3649,6179
-3662,6149
-3675,6117
-3687,6087
-3699,6055
-3712,6024
-3723,5992
-3735,5960
-3746,5928
-3758,5898
-3769,5866
-3779,5836
-3790,5804
-3799,5775
-3808,5744
-3818,5715
-3827,5685
-3836,5655
-3845,5626
-3854,5596
-3862,5566
-3871,5535
-3880,5505
-3888,5474
-3897,5442
-3906,5408
-3914,5375
-3924,5341
-3932,5306
-3941,5271
-3950,5234
-3959,5197
-3967,5161
-3976,5124
-3985,5086
-3993,5049
-4001,5012
-4009,4975
-4016,4938
-4024,4902
-4031,4867
-4037,4832
-4044,4798
-4050,4765
-4056,4732
-4061,4700
-4067,4668
-4072,4638
-4076,4607
-4080,4578
-4085,4546
-4089,4515
-4093,4483
-4097,4452
-4100,4420
-4103,4388
-4107,4356
-4110,4324
-4113,4291
-4115,4258
-4117,4225
-4119,4192
-4120,4159
-4121,4125
-4122,4093
-4123,4060
-4123,4028
-4124,3996
-4124,3966
-4123,3935
-4123,3905
-4122,3877
-4121,3847
-4120,3820
-4118,3793
-4117,3765
-4115,3739
-4113,3713
-4110,3683
-4108,3655
-4104,3627
-4100,3597
-4097,3567
-4093,3535
-4088,3502
-4082,3467
-4076,3430
-4070,3392
-4064,3350
-4056,3308
-4048,3262
-4039,3217
-4031,3171
-4024,3127
-4015,3084
-4008,3044
-4002,3008
-3995,2979
-3991,2956
-3988,2938
-3986,2928
-3985,2921
-3984,2918
" style="stroke:#000000;stroke-width:32;
stroke-linejoin:bevel; stroke-linecap:butt;
"/>
<!-- Line -->
<polyline points="6512,377
6514,376
6517,373
6524,367
6535,359
6551,346
6572,330
6597,309
6626,286
6661,259
6699,228
6740,196
6783,161
6828,125
6874,90
6920,53
6966,17
7011,-17
7055,-51
7098,-83
7139,-115
7177,-144
7215,-174
7251,-200
7286,-226
7319,-250
7352,-274
7382,-296
7413,-317
7442,-338
7471,-358
7500,-376
7528,-395
7556,-413
7587,-433
7617,-452
7648,-471
7679,-490
7711,-509
7742,-527
7775,-545
7808,-564
7842,-583
7876,-601
7910,-620
7945,-639
7981,-657
8016,-675
8052,-693
8088,-710
8124,-728
8160,-745
8196,-762
8232,-779
8267,-794
8302,-810
8337,-825
8370,-839
8405,-854
8437,-868
8470,-881
8502,-894
8535,-907
8566,-918
8598,-931
8629,-942
8661,-954
8692,-965
8724,-976
8756,-987
8789,-999
8823,-1009
8856,-1021
8890,-1032
8925,-1043
8960,-1054
8996,-1065
9033,-1076
9068,-1086
9105,-1097
9142,-1107
9180,-1118
9216,-1127
9253,-1138
9289,-1147
9325,-1156
9361,-1165
9397,-1173
9432,-1182
9465,-1190
9499,-1197
9532,-1205
9564,-1212
9596,-1218
9627,-1225
9658,-1231
9689,-1237
9719,-1243
9751,-1249
9783,-1254
9816,-1260
9848,-1266
9881,-1271
9914,-1276
9948,-1280
9983,-1286
10017,-1290
10052,-1294
10088,-1298
10123,-1302
10159,-1306
10196,-1310
10232,-1313
10268,-1315
10304,-1318
10341,-1320
10376,-1322
10411,-1323
10446,-1325
10480,-1327
10514,-1328
10548,-1328
10580,-1328
10613,-1328
10645,-1328
10677,-1327
10708,-1327
10740,-1325
10769,-1323
10798,-1322
10829,-1320
10859,-1318
10890,-1316
10921,-1314
10954,-1311
10986,-1308
11020,-1304
11054,-1300
11088,-1296
11123,-1292
11159,-1287
11193,-1281
11230,-1276
11266,-1271
11301,-1265
11338,-1259
11374,-1253
11409,-1246
11445,-1239
11481,-1232
11517,-1225
11550,-1217
11585,-1210
11618,-1203
11652,-1195
11685,-1187
11717,-1180
11750,-1171
11782,-1163
11814,-1154
11844,-1146
11875,-1138
11905,-1129
11937,-1120
11968,-1110
12001,-1101
12033,-1090
12066,-1080
12100,-1069
12134,-1058
12170,-1046
12204,-1035
12241,-1022
12277,-1008
12313,-996
12351,-982
12388,-967
12426,-954
12464,-939
12500,-924
12538,-910
12575,-894
12612,-879
12648,-864
12685,-848
12721,-833
12756,-817
12792,-802
12827,-786
12861,-770
12896,-753
12931,-738
12965,-721
12999,-705
13029,-689
13061,-674
13092,-659
13124,-642
13156,-625
13189,-608
13222,-592
13255,-574
13289,-555
13323,-536
13359,-516
13394,-496
13430,-476
13466,-455
13503,-433
13540,-411
13576,-389
13614,-366
13651,-343
13689,-320
13725,-296
13762,-271
13799,-248
13836,-223
13871,-199
13907,-175
13942,-150
13976,-125
14011,-101
14045,-76
14077,-52
14110,-27
14141,-3
14173,20
14204,46
14235,70
14264,95
14295,120
14324,145
14353,172
14384,198
14413,224
14443,251
14472,280
14502,308
14533,338
14563,367
14594,397
14624,428
14655,459
14686,492
14717,524
14747,557
14779,591
14809,624
14839,658
14870,692
14900,726
14930,761
14959,795
14987,830
15016,864
15044,898
15071,932
15099,965
15124,998
15150,1030
15175,1063
15199,1096
15223,1127
15246,1158
15269,1189
15291,1219
15312,1250
15334,1279
15355,1310
15376,1341
15398,1373
15419,1404
15440,1436
15461,1468
15482,1501
15503,1533
15524,1567
15545,1601
15566,1635
15587,1670
15607,1704
15628,1740
15649,1776
15669,1813
15690,1848
15710,1885
15730,1922
15749,1959
15769,1995
15787,2031
15806,2068
15824,2104
15842,2140
15860,2176
15877,2211
15893,2246
15909,2281
15925,2314
15941,2349
15955,2383
15970,2415
15985,2449
15998,2481
16013,2514
16027,2546
16040,2582
16055,2617
16069,2653
16083,2688
16097,2725
16112,2762
16125,2799
16140,2838
16154,2877
16169,2916
16183,2956
16197,2997
16212,3038
16225,3079
16239,3120
16253,3162
16266,3203
16280,3245
16293,3286
16306,3327
16319,3366
16331,3406
16343,3445
16354,3484
16365,3522
16376,3559
16386,3595
16396,3631
16406,3666
16415,3700
16424,3733
16432,3766
16440,3798
16449,3829
16457,3863
16466,3897
16473,3929
16480,3962
16489,3995
16496,4029
16502,4062
16510,4096
16517,4130
16523,4164
16531,4199
16537,4234
16543,4268
16550,4304
16555,4339
16561,4374
16566,4409
16572,4444
16577,4478
16582,4513
16586,4548
16592,4581
16596,4615
16599,4647
16603,4681
16606,4712
16609,4745
16613,4776
16616,4808
16619,4839
16622,4871
16624,4902
16626,4934
16629,4966
16632,4999
16634,5032
16636,5066
16638,5100
16640,5135
16642,5171
16643,5207
16645,5245
16647,5281
16648,5319
16650,5357
16651,5396
16653,5434
16654,5472
16655,5510
16656,5548
16657,5586
16657,5623
16658,5658
16658,5694
16659,5729
16659,5762
16659,5796
16659,5827
16659,5859
16659,5889
16659,5919
16658,5947
16658,5974
16657,6002
16656,6037
16655,6072
16654,6106
16653,6139
16650,6173
16648,6205
16647,6239
16644,6271
16642,6304
16640,6335
16637,6367
16635,6398
16632,6428
16628,6457
16625,6487
16622,6514
16619,6540
16615,6566
16612,6591
16608,6615
16605,6638
16602,6661
16599,6682
16595,6704
16592,6727
16587,6750
16583,6774
16579,6798
16575,6824
16571,6850
16565,6877
16559,6907
16554,6938
16548,6972
16540,7005
16534,7041
16527,7077
16520,7110
16514,7142
16509,7170
16503,7193
16500,7210
16498,7222
16497,7228
16496,7231
" style="stroke:#000000;stroke-width:32;
stroke-linejoin:bevel; stroke-linecap:butt;
"/>
<!-- Text -->
<text x="11858" y="-2314" fill="#000000"  font-family="Times" font-style="normal" font-weight="normal" font-size="404" text-anchor="start" >
Geomagnetic North Pole</text>
<!-- Text -->
<text x="10677" y="-3070" fill="#000000"  font-family="Times" font-style="normal" font-weight="normal" font-size="404" text-anchor="start" >
Geographic North Pole</text>
<!-- Text -->
<text x="-3118" y="12047" fill="#000000"  font-family="Times" font-style="normal" font-weight="normal" font-size="404" text-anchor="end" >
Geomagnetic South Pole</text>
<!-- Text -->
<text x="-2220" y="12992" fill="#000000"  font-family="Times" font-style="normal" font-weight="normal" font-size="404" text-anchor="end" >
Geographic South Pole</text>
<!-- Line -->
<polyline points="10607,5840
10576,5994
" style="stroke:#000000;stroke-width:32;
stroke-linejoin:miter; stroke-linecap:butt;
"/>
<!-- Arrowhead on XXXpoint -->
<polygon points="10738 6457
10618 5791
10244 6356
10516 6284

" style="stroke:#000000;stroke-width:32;
fill:white;"/>
<!-- Line -->
<polyline points="13432,6413
13401,6569
" style="stroke:#000000;stroke-width:32;
stroke-linejoin:miter; stroke-linecap:butt;
"/>
<!-- Arrowhead on XXXpoint -->
<polygon points="13568 7029
13441 6364
13074 6934
13344 6858

" style="stroke:#000000;stroke-width:32;
fill:white;"/>
<!-- Line -->
<polyline points="16534,7045
16504,7199
" style="stroke:#000000;stroke-width:32;
stroke-linejoin:miter; stroke-linecap:butt;
"/>
<!-- Arrowhead on XXXpoint -->
<polygon points="16672 7660
16543 6995
16177 7566
16448 7489

" style="stroke:#000000;stroke-width:32;
fill:white;"/>
<!-- Line -->
<polyline points="-7076,2241
-7105,2397
" style="stroke:#000000;stroke-width:32;
stroke-linejoin:miter; stroke-linecap:butt;
"/>
<!-- Arrowhead on XXXpoint -->
<polygon points="-6938 2858
-7065 2193
-7433 2762
-7162 2687

" style="stroke:#000000;stroke-width:32;
fill:white;"/>
<!-- Line -->
<polyline points="1743,12828
1655,12960
" style="stroke:#000000;stroke-width:32;
stroke-linejoin:miter; stroke-linecap:butt;
"/>
<!-- Arrowhead on XXXpoint -->
<polygon points="1765 12337
1628 13001
2185 12615
1906 12580

" style="stroke:#000000;stroke-width:32;
fill:white;"/>
<!-- Line -->
<polyline points="2361,12909
2309,13057
" style="stroke:#000000;stroke-width:32;
stroke-linejoin:miter; stroke-linecap:butt;
"/>
<!-- Arrowhead on XXXpoint -->
<polygon points="2262 12428
2292 13106
2738 12594
2458 12629

" style="stroke:#000000;stroke-width:32;
fill:white;"/>
<!-- Line -->
<polyline points="3012,13084
2980,13238
" style="stroke:#000000;stroke-width:16;
stroke-linejoin:miter; stroke-linecap:butt;
"/>
<!-- Arrowhead on XXXpoint -->
<polygon points="2849 12620
2970 13288
3342 12721
3070 12793

" style="stroke:#000000;stroke-width:32;
fill:white;"/>
<!-- Line -->
<polyline points="3672,13171
3665,13328
" style="stroke:#000000;stroke-width:32;
stroke-linejoin:miter; stroke-linecap:butt;
"/>
<!-- Arrowhead on XXXpoint -->
<polygon points="3438 12739
3662 13379
3942 12761
3685 12875

" style="stroke:#000000;stroke-width:32;
fill:white;"/>
<!-- Line -->
<polyline points="3674,-4050
3596,-4185
" style="stroke:#000000;stroke-width:32;
stroke-linejoin:miter; stroke-linecap:butt;
"/>
<!-- Arrowhead on XXXpoint -->
<polygon points="3168 -4426
3699 -4004
3606 -4676
3449 -4441

" style="stroke:#000000;stroke-width:32;
fill:white;"/>
<!-- Line -->
<polyline points="5162,-3662
5130,-3818
" style="stroke:#000000;stroke-width:32;
stroke-linejoin:miter; stroke-linecap:butt;
"/>
<!-- Arrowhead on XXXpoint -->
<polygon points="4802 -4183
5171 -3614
5296 -4281
5072 -4108

" style="stroke:#000000;stroke-width:32;
fill:white;"/>
<!-- Line -->
<polyline points="5737,-3499
5748,-3653
" style="stroke:#000000;stroke-width:32;
stroke-linejoin:miter; stroke-linecap:butt;
"/>
<!-- Arrowhead on XXXpoint -->
<polygon points="5523 -4091
5734 -3446
6026 -4057
5766 -3948

" style="stroke:#000000;stroke-width:32;
fill:white;"/>
<!-- Line -->
<polyline points="6354,-3353
6387,-3505
" style="stroke:#000000;stroke-width:16;
stroke-linejoin:miter; stroke-linecap:butt;
"/>
<!-- Arrowhead on XXXpoint -->
<polygon points="6228 -3969
6344 -3301
6721 -3864
6449 -3794

" style="stroke:#000000;stroke-width:32;
fill:white;"/>
<!-- Line -->
<polyline points="6977,-3232
7034,-3377
" style="stroke:#000000;stroke-width:32;
stroke-linejoin:miter; stroke-linecap:butt;
"/>
<!-- Arrowhead on XXXpoint -->
<polygon points="6951 -3861
6958 -3183
7420 -3678
7140 -3652

" style="stroke:#000000;stroke-width:32;
fill:white;"/>
<!-- Line -->
<polyline points="7543,-3122
7631,-3252
" style="stroke:#000000;stroke-width:32;
stroke-linejoin:miter; stroke-linecap:butt;
"/>
<!-- Arrowhead on XXXpoint -->
<polygon points="7658 -3742
7514 -3080
8075 -3460
7796 -3497

" style="stroke:#000000;stroke-width:32;
fill:white;"/>
<!-- Line -->
<polyline points="9093,-2946
9218,-3041
" style="stroke:#000000;stroke-width:32;
stroke-linejoin:miter; stroke-linecap:butt;
"/>
<!-- Arrowhead on XXXpoint -->
<polygon points="9400 -3496
9053 -2914
9706 -3096
9453 -3219

" style="stroke:#000000;stroke-width:32;
fill:white;"/>
<!-- Line -->
<polyline points="-1150,3447
-1181,3601
" style="stroke:#000000;stroke-width:32;
stroke-linejoin:miter; stroke-linecap:butt;
"/>
<!-- Arrowhead on XXXpoint -->
<polygon points="-1016 4064
-1139 3397
-1510 3964
-1238 3890

" style="stroke:#000000;stroke-width:32;
fill:white;"/>
<!-- Line -->
<polyline points="5853,13754
5933,13888
" style="stroke:#000000;stroke-width:32;
stroke-linejoin:miter; stroke-linecap:butt;
"/>
<!-- Arrowhead on XXXpoint -->
<polygon points="5418 13522
5960 13932
5849 13262
5699 13500

" style="stroke:#000000;stroke-width:32;
fill:white;"/>
<!-- Line -->
<polyline points="4275,13334
4306,13490
" style="stroke:#000000;stroke-width:32;
stroke-linejoin:miter; stroke-linecap:butt;
"/>
<!-- Arrowhead on XXXpoint -->
<polygon points="3946 12967
4316 13538
4440 12870
4217 13043

" style="stroke:#000000;stroke-width:32;
fill:white;"/>
<!-- Line -->
<polyline points="-3974,2872
-4004,3027
" style="stroke:#000000;stroke-width:32;
stroke-linejoin:miter; stroke-linecap:butt;
"/>
<!-- Arrowhead on XXXpoint -->
<polygon points="-3836 3488
-3964 2823
-4330 3393
-4059 3317

" style="stroke:#000000;stroke-width:32;
fill:white;"/>
<!-- Line -->
<polyline points="133,12593
6,12686
" style="stroke:#000000;stroke-width:32;
stroke-linejoin:miter; stroke-linecap:butt;
"/>
<!-- Arrowhead on XXXpoint -->
<polygon points="324 12139
-32 12716
623 12544
372 12416

" style="stroke:#000000;stroke-width:32;
fill:white;"/>
<!-- Circle -->
<circle cx="4724" cy="4724" r="4724"
 style="fill:#ffffff;stroke:#000000;stroke-width:32;"/>
<!-- Line -->
<polyline points="5669,94
3779,9354
" style="stroke:#000000;stroke-width:32;
stroke-linejoin:miter; stroke-linecap:butt;
"/>
<!-- Line -->
<polyline points="0,4724
9448,4724
" style="stroke:#000000;stroke-width:32;
stroke-linejoin:miter; stroke-linecap:butt;
"/>
<!-- Line -->
<polyline points="4724,0
4724,9448
" style="stroke:#000000;stroke-width:32;
stroke-linejoin:miter; stroke-linecap:butt;
"/>
<!-- Line -->
<polyline points="90,3781
9349,5665
" style="stroke:#000000;stroke-width:32;
stroke-linejoin:miter; stroke-linecap:butt;
"/>
<!-- Line -->
<polyline points="4492,4682
4955,4776
5190,3618
4727,3525
4492,4682
" style="stroke:#000000;stroke-width:32;
stroke-linejoin:miter; stroke-linecap:butt;
fill:#ffffff;
"/>
<!-- Line -->
<polyline points="4256,5838
4719,5932
4954,4775
4491,4681
4256,5838
" style="stroke:#000000;stroke-width:16;
stroke-linejoin:miter; stroke-linecap:butt;
fill:#000000;
"/>
<!-- Circle -->
<circle cx="3779" cy="9354" r="141"
 style="fill:#ffffff;stroke:#000000;stroke-width:32;"/>
<!-- Circle -->
<circle cx="4724" cy="9448" r="141"
 style="fill:#ffffff;stroke:#000000;stroke-width:32;"/>
<!-- Circle -->
<circle cx="4724" cy="0" r="141"
 style="fill:#ffffff;stroke:#000000;stroke-width:32;"/>
<!-- Circle -->
<circle cx="5669" cy="94" r="141"
 style="fill:#ffffff;stroke:#000000;stroke-width:32;"/>
<!-- Text -->
<g transform="translate(5622,3543) rotate(-78)" >
<text x="0" y="0" fill="#000000"  font-family="Times" font-style="normal" font-weight="normal" font-size="404" text-anchor="start" >
Dipole Axis</text>
</g><!-- Text -->
<text x="377" y="5385" fill="#000000"  font-family="Times" font-style="normal" font-weight="normal" font-size="404" text-anchor="start" >
Equator</text>
<!-- Text -->
<g transform="translate(5055,6141) rotate(-348)" >
<text x="0" y="0" fill="#000000"  font-family="Times" font-style="normal" font-weight="normal" font-size="404" text-anchor="start" >
Equator</text>
</g><!-- Text -->
<g transform="translate(4440,3685) rotate(-90)" >
<text x="0" y="0" fill="#000000"  font-family="Times" font-style="normal" font-weight="normal" font-size="404" text-anchor="start" >
Rotation Axis</text>
</g><!-- Text -->
<g transform="translate(5149,5574) rotate(-348)" >
<text x="0" y="0" fill="#000000"  font-family="Times" font-style="normal" font-weight="normal" font-size="404" text-anchor="start" >
Geomagnetic</text>
</g><!-- Text -->
<g transform="translate(4869,4036) rotate(-348)" >
<text x="0" y="0" fill="#000000"  font-family="Helvetica" font-style="normal" font-weight="bold" font-size="404" text-anchor="middle" >
S</text>
</g><!-- Text -->
<g transform="translate(4496,5842) rotate(-348)" >
<text x="0" y="0" fill="#ffffff"  font-family="Helvetica" font-style="normal" font-weight="bold" font-size="479" text-anchor="middle" >
N</text>
</g></g>
</svg>
